<svg width="1075" height="1024" viewBox="0 0 1075 1024" fill="none" xmlns="http://www.w3.org/2000/svg">
<path d="M297.15 502.797C568.042 330.882 697.379 100.048 728.186 6.12075L1027.76 -112C1210.48 -91.1273 1583.72 -38.2813 1614.96 6.12075C1654 61.6233 1560.78 189.706 1447.64 200.38C1334.5 211.053 1054.85 502.797 961.631 593.167C868.412 683.536 856.461 1131.11 615.846 1193.73C375.231 1256.35 90.7949 1165.98 32.6329 1030.78C-25.529 895.584 -41.4638 717.692 297.15 502.797Z" fill="#9FEDD7" fill-opacity="0.5"/>
<path d="M462.479 502C632.479 381.2 713.646 219 732.979 153L920.979 70C1035.65 84.6667 1269.88 121.8 1289.48 153C1313.98 192 1255.48 282 1184.48 289.5C1113.48 297 937.979 502 879.479 565.5C820.979 629 813.479 943.5 662.479 987.5C511.479 1031.5 332.979 968 296.479 873C259.979 778 249.979 653 462.479 502Z" fill="#FEF9C7" fill-opacity="0.75"/>
</svg>
