<svg width="1053" height="1000" viewBox="0 0 1053 1000" fill="none" xmlns="http://www.w3.org/2000/svg">
<circle cx="553" cy="500" r="500" fill="#9FEDD7" fill-opacity="0.75"/>
<circle cx="553" cy="500" r="400" fill="#FEF9C7" fill-opacity="0.85"/>
<g clip-path="url(#clip0)">
<path d="M591.003 459.172H330.667V524.789H591.003V459.172Z" fill="#565661"/>
<path opacity="0.1" d="M591.003 459.172H330.667V524.789H591.003V459.172Z" fill="black"/>
<path d="M361.814 526.949L363.642 702.126L338.603 770.933L336.665 526.949H361.814Z" fill="#BCBEC9"/>
<path d="M333.413 471.77L586.878 473.429V522.3H333.413V471.77Z" fill="#565661"/>
<path d="M565.192 526.949L586.879 530.279V768.273L565.192 695.477V526.949Z" fill="#BCBEC9"/>
<path d="M717.272 461.801H595.118V744.347H717.272V461.801Z" fill="#EFEFF0"/>
<path d="M707.498 469.65H604.891V686.839H707.498V469.65Z" fill="#565661"/>
<path opacity="0.1" d="M707.498 469.65H604.891V686.839H707.498V469.65Z" fill="black"/>
<path d="M707.498 474.099H604.891V522.299H707.498V474.099Z" fill="#565661"/>
<path d="M707.498 526.949H604.891V629.33H707.498V526.949Z" fill="#565661"/>
<path d="M707.498 635.648H604.891V738.029H707.498V635.648Z" fill="#565661"/>
<path opacity="0.1" d="M707.498 635.648H604.891V738.029H707.498V635.648Z" fill="black"/>
<path d="M609.171 762.744C612.823 762.744 615.784 758.626 615.784 753.546C615.784 748.466 612.823 744.348 609.171 744.348C605.519 744.348 602.558 748.466 602.558 753.546C602.558 758.626 605.519 762.744 609.171 762.744Z" fill="#565661"/>
<path d="M700.885 763.185C704.538 763.185 707.499 759.066 707.499 753.986C707.499 748.906 704.538 744.788 700.885 744.788C697.233 744.788 694.272 748.906 694.272 753.986C694.272 759.066 697.233 763.185 700.885 763.185Z" fill="#565661"/>
<path d="M329.748 770.933H338.603L336.169 464.251H322.722L329.748 770.933Z" fill="#EFEFF0"/>
<path d="M586.879 461.801V768.273H595.118V464.25L586.879 461.801Z" fill="#EFEFF0"/>
<path d="M336.601 519.301V530.279H586.879V522.3L336.601 519.301Z" fill="#EFEFF0"/>
<path d="M353.565 441.195H670.859L716.968 457.812V467.45L321.197 464.131V454.323L353.565 441.195Z" fill="white"/>
<path d="M321.197 454.323L716.968 457.813V467.451L321.197 464.131V454.323Z" fill="#BCBEC9"/>
<path d="M357.047 568.622L355.21 568.322C355.21 568.232 355.21 568.152 355.21 568.072C355.154 567.602 355.09 567.142 355.026 566.672C355.779 567.322 356.495 567.972 357.157 568.622H357.047Z" fill="url(#paint0_linear)"/>
<path d="M317.128 723.001C318.322 722.701 319.534 722.451 320.747 722.271C329.074 720.981 337.566 722.342 345.198 726.191C344.426 732.37 343.664 738.758 345.299 744.727C346.438 748.926 348.725 752.726 349.212 757.105C350.438 757.334 351.582 757.931 352.515 758.828C353.448 759.725 354.133 760.887 354.493 762.184C354.845 763.331 355.022 764.534 355.017 765.743C355.006 767.24 354.834 768.73 354.502 770.182C354.391 771.343 353.867 772.41 353.044 773.157C352.221 773.904 351.162 774.271 350.093 774.182C342.984 775.061 336.013 772.012 329.399 769.023L316.54 763.204C315.034 762.524 313.518 761.834 312.076 760.994C309.341 759.385 306.912 757.224 304.921 754.625C304.5 754.161 304.204 753.58 304.066 752.946C303.828 751.186 305.72 750.136 306.923 748.946C307.275 748.584 307.584 748.174 307.842 747.727C309.265 745.387 309.403 742.158 310.257 739.398C312.278 732.849 318.524 728.63 320.728 722.241C320.848 721.892 320.958 721.542 321.05 721.182" fill="#A26565"/>
<path opacity="0.1" d="M355.017 765.744C355.007 767.241 354.834 768.731 354.502 770.183C354.391 771.344 353.868 772.411 353.044 773.158C352.221 773.905 351.162 774.272 350.093 774.183C342.984 775.062 336.013 772.013 329.399 769.024L316.54 763.205C315.034 762.525 313.518 761.835 312.076 760.995C309.341 759.386 306.912 757.225 304.921 754.626C304.5 754.162 304.204 753.581 304.066 752.947C303.828 751.187 305.72 750.137 306.923 748.947C307.275 748.585 307.584 748.175 307.842 747.728C311.387 748.557 315.787 750.987 318.496 751.927C321.211 752.731 323.817 753.918 326.249 755.456C329.629 757.816 332.063 761.455 334.929 764.454C337.795 767.454 341.496 770.183 345.492 769.813C347.604 769.467 349.64 768.701 351.499 767.554L355.017 765.744Z" fill="black"/>
<path d="M339.962 623.661C340.201 624.568 340.18 625.533 339.901 626.426C339.622 627.32 339.098 628.099 338.401 628.66C337.198 629.469 335.645 629.359 334.451 630.239C332.973 631.369 332.761 633.609 332.504 635.548C331.586 642.217 328.545 648.266 325.946 654.395C323.347 660.523 321.151 667.212 322.107 673.871C322.759 678.39 324.798 683.209 322.887 687.278C322.419 688.278 321.721 689.168 321.188 690.138C318.57 694.897 320.058 700.926 319.957 706.465C319.995 707.08 319.871 707.694 319.599 708.234C319.197 708.745 318.703 709.161 318.148 709.454C317.215 710.2 316.449 711.166 315.907 712.279C315.365 713.392 315.06 714.624 315.016 715.883C314.938 718.401 315.217 720.916 315.842 723.342C315.943 724.321 316.341 725.235 316.972 725.941C317.703 726.467 318.567 726.733 319.443 726.701C325.213 727.21 330.874 728.708 336.215 731.14C339.696 732.72 343.076 734.699 346.778 735.459C347.136 735.58 347.513 735.621 347.885 735.578C348.258 735.535 348.619 735.409 348.946 735.209C349.411 734.752 349.732 734.147 349.864 733.48C351.288 728.381 352.73 723.122 352.243 717.823C352.032 715.543 351.472 713.314 351.325 711.034C350.682 702.036 356.275 693.917 358.048 685.039C358.847 681.04 358.847 676.9 359.417 672.861C360.96 661.793 366.563 651.865 368.721 640.917C369.022 638.876 369.489 636.869 370.117 634.918C371.725 630.679 375.445 627.24 375.527 622.651C375.579 621.641 375.334 620.64 374.829 619.791C373.964 618.757 372.813 618.055 371.55 617.792C366.56 616.297 361.481 615.181 356.349 614.452C353.997 613.949 351.596 613.768 349.203 613.912C346.095 614.31 343.107 615.458 340.458 617.272C336.913 619.651 339.191 620.221 339.962 623.661Z" fill="#454B69"/>
<path opacity="0.05" d="M339.962 623.661C340.201 624.568 340.18 625.533 339.901 626.426C339.622 627.32 339.098 628.099 338.401 628.66C337.198 629.469 335.645 629.359 334.451 630.239C332.973 631.369 332.761 633.609 332.504 635.548C331.586 642.217 328.545 648.266 325.946 654.395C323.347 660.523 321.151 667.212 322.107 673.871C322.759 678.39 324.798 683.209 322.887 687.278C322.419 688.278 321.721 689.168 321.188 690.138C318.57 694.897 320.058 700.926 319.957 706.465C319.995 707.08 319.871 707.694 319.599 708.234C319.197 708.745 318.703 709.161 318.148 709.454C317.215 710.2 316.449 711.166 315.907 712.279C315.365 713.392 315.06 714.624 315.016 715.883C314.938 718.401 315.217 720.916 315.842 723.342C315.943 724.321 316.341 725.235 316.972 725.941C317.703 726.467 318.567 726.733 319.443 726.701C325.213 727.21 330.874 728.708 336.215 731.14C339.696 732.72 343.076 734.699 346.778 735.459C347.136 735.58 347.513 735.621 347.885 735.578C348.258 735.535 348.619 735.409 348.946 735.209C349.411 734.752 349.732 734.147 349.864 733.48C351.288 728.381 352.73 723.122 352.243 717.823C352.032 715.543 351.472 713.314 351.325 711.034C350.682 702.036 356.275 693.917 358.048 685.039C358.847 681.04 358.847 676.9 359.417 672.861C360.96 661.793 366.563 651.865 368.721 640.917C369.022 638.876 369.489 636.869 370.117 634.918C371.725 630.679 375.445 627.24 375.527 622.651C375.579 621.641 375.334 620.64 374.829 619.791C373.964 618.757 372.813 618.055 371.55 617.792C366.56 616.297 361.481 615.181 356.349 614.452C353.997 613.949 351.596 613.768 349.203 613.912C346.095 614.31 343.107 615.458 340.458 617.272C336.913 619.651 339.191 620.221 339.962 623.661Z" fill="black"/>
<path d="M321.987 774.342H314.152L309.027 659.724L308.668 653.205L315.328 650.655L315.778 657.584L321.987 774.342Z" fill="#565661"/>
<path opacity="0.1" d="M315.778 657.584L309.027 659.724L308.668 653.205L315.328 650.655L315.778 657.584Z" fill="black"/>
<path d="M420.296 798.587L407.372 800.287L347.834 653.205L331.778 651.925L303.58 660.883L298.096 836H285.173L290.261 654.484L259.316 655.344L204.095 804.976H192.347L250.425 630.099L252.666 623.36L339.218 620.131L360.794 633.298L361.07 634.058L420.296 798.587Z" fill="#565661"/>
<path opacity="0.1" d="M361.07 634.058C342.47 640.157 323.162 646.816 323.162 646.816C323.162 646.816 305.554 653.505 298.096 646.816C297.155 646.017 296.104 645.386 294.982 644.946C295.95 645.699 296.995 646.326 298.096 646.816L250.425 630.089L252.657 623.36L339.218 620.131L360.794 633.298L361.07 634.058Z" fill="black"/>
<path d="M273.03 605.035L308.274 596.507C308.274 596.507 392.483 613.564 398.748 620.382C398.748 620.382 331.384 635.299 323.944 640.378C316.504 645.457 272.24 651.076 273.03 605.035Z" fill="white"/>
<path d="M257.874 509.162C255.119 518.67 247.596 527.239 238.439 527.649C237.772 527.734 237.098 527.601 236.5 527.269C235.352 526.489 235.325 524.659 235.793 523.27C236.262 521.88 237.079 520.63 237.208 519.17C237.235 518.872 237.217 518.572 237.153 518.281C236.914 517.091 236.023 516.031 234.976 516.281C235.689 515.66 236.164 514.772 236.308 513.791C236.452 512.809 236.256 511.804 235.756 510.972C235.341 510.461 234.966 509.912 234.636 509.332C233.874 507.633 235.058 505.723 235.554 503.903C236.574 499.904 233.984 495.905 233.772 491.736C233.589 488.006 235.325 484.497 235.756 480.798C236.445 474.799 233.708 469.05 233.387 463.061C233.166 458.882 234.112 454.743 235.169 450.713C236.087 447.114 237.125 443.475 237.189 439.715C237.189 436.986 236.758 434.286 236.638 431.567C236.448 429.081 236.863 426.584 237.842 424.328C238.477 423.002 239.56 421.995 240.863 421.519C243.876 420.419 245.851 422.129 246.292 425.238C247.027 430.527 246.604 435.926 247.569 441.235C248.46 446.2 249.811 451.054 251.601 455.722C253.227 459.942 255.202 464.021 256.451 468.39C257.391 471.991 258.064 475.669 258.462 479.388C259.693 489.376 260.657 499.654 257.874 509.162Z" fill="#9FEDD7"/>
<path d="M467.076 751.157C465.914 752.94 464.419 754.435 462.689 755.544C460.959 756.654 459.033 757.353 457.037 757.595C453.051 758.135 448.908 757.046 445.041 758.235C444.442 758.343 443.877 758.61 443.396 759.013C442.916 759.416 442.534 759.942 442.286 760.545C442.19 761.358 442.132 762.175 442.111 762.994C441.661 765.664 438.437 766.264 435.929 766.244L425.587 766.174C423.438 766.174 421.059 766.044 419.515 764.424C418.782 763.54 418.368 762.395 418.351 761.204C418.334 760.012 418.715 758.854 419.424 757.945C419.744 757.532 420.138 757.192 420.581 756.946C419.935 756.713 419.361 756.29 418.923 755.723C418.486 755.156 418.201 754.469 418.101 753.736C417.913 752.266 417.978 750.771 418.294 749.327C418.294 745.148 419.212 738.149 421.913 734.88C425.229 730.811 430.979 725.552 435.984 724.462C437.675 724.109 439.418 724.192 441.073 724.704C442.729 725.216 444.251 726.143 445.519 727.411C447.888 729.811 449.615 733.57 452.867 733.99C454.64 734.23 456.348 733.32 458.102 732.99C460.096 732.711 462.121 733.109 463.898 734.131C465.676 735.153 467.12 736.749 468.032 738.699C468.477 739.688 468.786 740.742 468.95 741.828C469.435 745.084 468.766 748.419 467.076 751.157Z" fill="#A26565"/>
<path opacity="0.1" d="M467.076 751.156C465.914 752.939 464.419 754.434 462.689 755.544C460.958 756.654 459.032 757.353 457.036 757.595C453.05 758.135 448.908 757.045 445.041 758.235C444.442 758.342 443.877 758.609 443.396 759.012C442.915 759.415 442.533 759.942 442.285 760.544C442.189 761.357 442.131 762.175 442.111 762.994C441.66 765.663 438.436 766.263 435.929 766.243L425.586 766.173C423.437 766.173 421.058 766.043 419.515 764.424C418.781 763.539 418.368 762.395 418.351 761.203C418.334 760.011 418.715 758.854 419.423 757.945C425.394 757.675 431.263 757.945 437.215 756.605C439.631 756.075 442.01 755.375 444.453 755.005C449.743 754.186 455.374 754.885 460.233 752.446C464.284 750.446 467.186 746.377 468.904 741.838C469.4 745.084 468.747 748.414 467.076 751.156V751.156Z" fill="black"/>
<path d="M439.787 735.35C436.113 738.449 431.805 740.869 427.175 741.129C422.546 741.389 417.632 739.129 415.363 734.75C412.047 728.321 414.987 719.383 410.927 713.484C409.659 711.634 407.831 710.325 406.49 708.535C405.149 706.745 404.378 704.056 405.572 702.156C404.13 702.756 402.605 701.236 402.183 699.617C401.76 697.997 402.026 696.257 401.769 694.618C401.099 690.268 397.177 687.479 395.294 683.62C393.411 679.76 393.668 674.751 393.457 670.182C392.987 659.05 389.18 648.392 382.618 639.838C381.369 638.218 379.771 636.569 377.823 636.649C378.163 632.989 375.922 629.49 373.02 627.65C370.117 625.811 366.663 625.191 363.302 624.831C329.381 621.191 294.036 634.919 261.649 623.371C252.639 620.162 243.949 614.793 238.438 606.374C236.291 603.17 234.756 599.531 233.921 595.671C233.087 591.811 232.97 587.808 233.579 583.899V583.759C234.856 576.66 238.3 574.91 244.004 571.671C250.589 567.882 257.472 564.74 264.57 562.283C278.348 557.594 293.182 555.904 307.401 559.343C314.042 560.963 320.444 563.642 327.094 565.212C329.711 565.832 332.348 566.272 335.002 566.642C339.126 567.202 343.269 567.572 347.42 568.092C360.696 569.755 373.77 572.956 386.421 577.64C391.133 579.379 395.845 581.369 399.895 584.518C403.099 587.051 405.809 590.253 407.865 593.936C409.921 597.62 411.284 601.712 411.873 605.974C412.259 608.914 412.268 611.973 412.856 614.823C413.413 617.217 414.15 619.558 415.06 621.821C422.909 642.944 429.322 664.665 434.248 686.809C434.527 688.454 435.045 690.04 435.782 691.508C436.958 693.578 438.978 694.968 440.163 697.037C442.919 701.916 440.264 708.725 442.708 713.804C443.553 715.564 444.958 716.953 445.803 718.713C448.559 724.482 444.49 731.381 439.787 735.35Z" fill="#454B69"/>
<path opacity="0.1" d="M392.851 620.471C394.156 619.346 395.283 617.995 396.185 616.472C397.09 614.941 397.449 613.102 397.195 611.303C397.554 613.579 397.417 615.915 396.796 618.123C396.176 620.332 395.089 622.351 393.622 624.02C391.317 626.59 386.991 629.109 383.62 628.23C384.097 625.29 390.711 622.451 392.851 620.471Z" fill="black"/>
<path opacity="0.1" d="M335.462 570.641C335.184 571.713 334.666 572.692 333.954 573.492C333.242 574.291 332.359 574.885 331.383 575.22C329.425 575.872 327.374 576.133 325.33 575.99H323.493C299.391 575.41 275.032 569.591 251.491 575.14C248.653 575.777 245.87 576.67 243.169 577.81C239.728 579.286 236.506 581.307 233.607 583.809V583.669C234.884 576.57 238.328 574.82 244.032 571.581C250.611 567.824 257.484 564.712 264.57 562.283C278.348 557.594 293.182 555.904 307.401 559.343C314.042 560.963 320.444 563.642 327.094 565.212C329.712 565.832 332.348 566.272 335.002 566.642C335.517 567.896 335.677 569.288 335.462 570.641V570.641Z" fill="black"/>
<path d="M335.462 569.211C335.186 570.285 334.669 571.268 333.957 572.069C333.245 572.87 332.36 573.466 331.383 573.801C329.425 574.454 327.374 574.711 325.33 574.56H323.493C299.391 573.981 275.032 568.162 251.491 573.711C248.655 574.348 245.871 575.238 243.169 576.37C239.565 577.934 236.204 580.093 233.203 582.769C232.499 580.663 231.798 578.553 231.099 576.44C230.254 573.921 232.936 573.361 233.451 571.101C233.791 569.571 233.212 567.832 232.918 566.202C232.843 565.803 232.794 565.399 232.771 564.992C232.606 561.383 233.791 559.303 236.51 557.354C244.574 551.555 254.411 547.576 263.615 544.586C268.508 542.902 273.562 541.836 278.679 541.407C285.917 540.947 293.145 542.407 300.19 544.256C308.852 546.586 317.422 549.665 325.101 554.594C328.867 556.984 332.541 559.983 334.571 564.242C335.381 565.739 335.695 567.493 335.462 569.211Z" fill="#A26565"/>
<path opacity="0.1" d="M257.874 509.163C255.119 518.671 247.596 527.239 238.439 527.649C237.772 527.734 237.098 527.602 236.5 527.269C235.352 526.489 235.325 524.66 235.793 523.27C236.262 521.88 237.079 520.63 237.208 519.171C237.235 518.873 237.216 518.572 237.153 518.281C242.012 510.822 246.724 503.284 248.588 494.455C248.966 492.935 249.081 491.352 248.928 489.786C248.68 487.987 247.844 486.357 247.385 484.617C246.577 481.538 246.953 478.278 247.183 475.089C248.139 461.045 245.985 446.956 240.9 434.007C239.66 430.887 238.246 427.728 237.814 424.399C238.45 423.072 239.533 422.065 240.836 421.589C243.849 420.489 245.823 422.199 246.264 425.309C246.999 430.598 246.577 435.996 247.541 441.305C248.433 446.27 249.784 451.124 251.573 455.793C253.199 460.012 255.174 464.091 256.423 468.46C257.364 472.062 258.036 475.739 258.435 479.458C259.693 489.376 260.657 499.654 257.874 509.163Z" fill="black"/>
<path opacity="0.1" d="M335.462 569.211C335.186 570.285 334.669 571.268 333.957 572.069C333.245 572.87 332.36 573.466 331.383 573.801C329.425 574.454 327.374 574.711 325.33 574.56H323.493C315.648 568.888 306.215 566.41 296.856 567.562C293.862 567.952 290.868 568.712 287.873 568.412C281.82 567.812 276.915 563.073 271.524 560.043C265.388 556.746 258.488 555.519 251.707 556.52C244.927 557.521 238.576 560.705 233.469 565.662L232.946 566.162C232.87 565.763 232.821 565.359 232.799 564.952C232.633 561.343 233.818 559.263 236.537 557.314C244.602 551.515 254.439 547.536 263.643 544.546C268.536 542.862 273.59 541.796 278.706 541.367C285.944 540.907 293.173 542.367 300.218 544.216C308.88 546.546 317.45 549.625 325.128 554.554C328.867 556.984 332.541 559.983 334.571 564.242C335.381 565.739 335.695 567.493 335.462 569.211Z" fill="black"/>
<path d="M356.064 459.692L355.935 460.052C353.878 465.861 350.093 470.77 347.668 476.429C344.61 483.597 343.857 491.636 343.177 499.514C342.589 506.263 342.01 513.052 342.479 519.82C343.654 536.497 351.14 552.314 353.143 568.671C353.636 572.449 353.762 576.272 353.519 580.079C353.354 582.488 352.95 585.078 351.48 586.858C350.011 588.637 347.154 589.337 345.574 587.628C346.281 586.158 346.998 584.698 347.714 583.228C343.517 579.679 337.197 582.229 332.292 580.009C330.134 579.009 328.407 577.209 326.598 575.6C322.468 571.945 317.709 569.225 312.599 567.601C307.49 565.977 302.135 565.481 296.847 566.142C293.852 566.541 290.858 567.301 287.864 567.001C281.811 566.392 276.906 561.662 271.514 558.633C265.379 555.337 258.479 554.11 251.7 555.109C244.92 556.108 238.569 559.288 233.46 564.242C232.174 565.542 230.447 567.061 228.867 566.242C228.257 565.835 227.763 565.249 227.443 564.552C221.427 553.364 225.854 538.937 232.284 528.039C238.714 517.141 247.228 507.093 249.874 494.465C250.256 492.946 250.371 491.362 250.214 489.796C249.966 487.996 249.13 486.367 248.67 484.627C247.862 481.548 248.239 478.288 248.468 475.099C249.432 461.053 247.284 446.961 242.204 434.007C240.734 430.277 238.989 426.498 238.989 422.449C238.989 416.07 243.187 410.781 246.659 405.652C250.654 399.753 254.007 393.224 259.068 388.375C263.863 383.766 270.807 380.947 276.74 383.286C286.823 380.622 297.201 379.521 307.566 380.017C311.148 380.197 314.85 380.607 317.991 382.496C321.353 384.496 323.769 388.055 327.075 390.185C329.491 391.755 332.274 392.495 334.901 393.594C342.155 396.678 348.143 402.507 351.765 410.011C355.439 417.76 356.358 426.668 357.166 435.346C357.937 443.515 358.672 452.003 356.064 459.692Z" fill="#9FEDD7"/>
<path opacity="0.1" d="M342.479 519.82C343.655 536.497 351.141 552.314 353.143 568.671C349.138 564.982 343.563 561.272 342.819 556.983C341.992 552.344 339.347 546.265 338.906 541.576C338.465 536.887 341.487 531.158 338.318 527.939C336.775 526.369 340.881 526.809 339.375 525.199C335.985 521.61 335.149 516.081 334.938 510.952C334.58 501.874 335.636 492.695 334.102 483.767C333.184 478.258 331.264 473.009 329.73 467.66C327.948 461.431 326.662 455.052 325.376 448.664C324.111 442.984 323.19 437.219 322.621 431.407C322.226 426.408 322.41 421.109 324.458 416.55C326.506 411.991 330.649 408.291 335.296 408.361C350.838 408.581 348.156 431.517 351.572 442.115C352.941 446.334 354.787 450.413 355.531 454.813C355.803 456.537 355.95 458.282 355.972 460.032C353.915 465.84 350.13 470.749 347.706 476.408C344.647 483.577 343.894 491.616 343.214 499.494C342.589 506.263 342.011 513.051 342.479 519.82Z" fill="black"/>
<path d="M352.583 441.855C353.951 446.074 355.798 450.153 356.542 454.553C357.782 461.921 355.862 469.75 357.947 476.888C358.49 478.412 358.944 479.972 359.306 481.558C359.665 483.827 359.251 486.147 359.251 488.456C359.251 492.176 360.326 495.775 361.281 499.344C364.512 511.474 366.65 523.917 367.665 536.497C367.816 539.878 368.306 543.23 369.125 546.495C369.511 547.602 369.842 548.73 370.117 549.875C370.364 551.402 370.423 552.959 370.292 554.504C370.044 559.403 369.539 564.322 370.044 569.201C370.549 574.08 372.184 579.029 375.555 582.298C372.542 583.008 369.355 583.718 366.416 582.668C362.282 581.199 359.802 576.67 357.699 572.55C355.035 567.291 344.913 562.552 343.866 556.643C343.048 552.014 340.403 545.935 339.962 541.236C339.521 536.537 342.534 530.828 339.365 527.609C337.831 526.039 341.937 526.469 340.421 524.869C337.041 521.28 336.206 515.751 335.994 510.612C335.636 501.544 336.683 492.365 335.158 483.437C334.24 477.928 332.32 472.679 330.786 467.32C329.004 461.101 327.718 454.723 326.432 448.324C325.163 442.645 324.243 436.88 323.677 431.067C323.282 426.068 323.456 420.759 325.514 416.2C327.571 411.641 331.714 407.951 336.352 408.011C351.83 408.311 349.166 431.257 352.583 441.855Z" fill="#9FEDD7"/>
<path opacity="0.1" d="M308.292 445.764C309.743 447.613 311.608 449.643 313.803 449.283C313.636 449.571 313.373 449.776 313.069 449.854C312.765 449.933 312.445 449.878 312.177 449.703C311.65 449.323 311.228 448.794 310.956 448.173L307.814 442.404C307.401 441.654 304.553 437.285 303.855 439.805C303.58 440.875 307.585 444.864 308.292 445.764Z" fill="black"/>
<path opacity="0.1" d="M306.602 460.152C306.512 458.267 305.782 456.485 304.554 455.153C303.45 454.063 302.161 453.217 300.76 452.663C297.316 451.124 293.237 449.884 289.499 450.084C290.858 452.243 295.221 453.533 297.407 454.753C300.506 456.493 303.571 458.292 306.602 460.152Z" fill="black"/>
<path opacity="0.1" d="M316.384 501.104C315.75 506.223 311.901 510.103 308.007 513.102C304.112 516.101 299.74 518.681 297.196 523.02C295.432 526.02 294.642 529.499 293.145 532.628C291.492 536.078 289.021 538.977 287.046 542.216C285.071 545.456 283.528 549.325 284.134 553.164C284.143 553.341 284.185 553.514 284.258 553.672C284.331 553.83 284.432 553.971 284.557 554.084C284.746 554.171 284.953 554.204 285.157 554.179C285.361 554.155 285.556 554.074 285.724 553.944C289.728 551.665 291.308 546.456 292.989 541.947C294.754 537.395 296.74 532.95 298.941 528.629C299.933 526.629 301.026 524.45 302.872 523.34C304.136 522.767 305.431 522.276 306.749 521.87C308.618 520.937 310.258 519.536 311.534 517.781C316.548 511.27 319.166 502.966 318.882 494.476C318.827 492.686 318.735 484.067 316.264 486.727C313.794 489.386 316.806 497.625 316.384 501.104Z" fill="black"/>
<path d="M322.437 304.771C330.336 308.52 337.133 316.768 336.885 326.117C336.674 335.935 329.124 345.183 331.723 354.591C333.23 360.05 337.767 363.709 341.359 367.859C355.035 383.616 355.008 411.12 341.285 426.848C336.031 432.846 329.28 437.116 323.723 442.844C304.131 462.941 303.295 497.704 313.785 524.689C305.748 526.581 297.556 527.586 289.334 527.688C285.485 527.688 280.773 526.978 279.377 523.069C278.091 519.46 280.295 514.581 277.76 511.911C276.566 510.662 274.775 510.492 273.168 510.202C262.825 508.382 254.338 499.394 250.462 488.806C246.586 478.218 246.788 466.3 249.011 455.162C250.591 447.114 253.061 438.255 249.397 431.057C244.804 421.998 231.596 418.179 231.798 407.821C231.963 399.333 241.157 395.204 246.375 388.895C256.001 377.277 251.417 359.25 251.399 343.593C251.399 329.816 255.826 315.599 265.25 306.42C279.267 292.653 306.262 297.122 322.437 304.771Z" fill="#A26565"/>
<g opacity="0.1">
<path opacity="0.1" d="M250.903 420.789C246.87 412.871 236.28 408.952 233.818 401.163C232.587 402.981 231.895 405.164 231.834 407.422C231.632 417.78 244.822 421.599 249.433 430.668C250.947 433.878 251.585 437.493 251.27 441.086C252.721 434.127 253.998 426.868 250.903 420.789Z" fill="black"/>
<path opacity="0.1" d="M332.78 341.774C334.433 336.525 336.831 331.226 336.95 325.777C336.967 325.187 336.951 324.596 336.904 324.008C335.058 330.027 332.229 335.866 332.78 341.774Z" fill="black"/>
<path opacity="0.1" d="M252.483 369.74C255.642 358.872 252.914 345.394 252.905 333.336C252.905 331.877 252.96 330.407 253.061 328.947C251.973 333.607 251.424 338.397 251.426 343.205C251.445 351.813 252.832 361.151 252.483 369.74Z" fill="black"/>
<path opacity="0.1" d="M342.819 416.62C337.565 422.619 330.814 426.888 325.257 432.617C315.337 442.785 310.239 456.713 308.962 471.48C311.332 460.482 316.118 450.354 323.787 442.485C329.298 436.787 336.095 432.537 341.349 426.488C347.599 419.075 351.228 409.487 351.591 399.434C350.005 405.858 346.992 411.76 342.819 416.62V416.62Z" fill="black"/>
<path opacity="0.1" d="M290.868 517.431C287.019 517.431 282.307 516.711 280.911 512.802C279.625 509.203 281.83 504.324 279.294 501.644C278.1 500.394 276.3 500.224 274.702 499.934C264.369 498.125 255.881 489.127 252.005 478.549C249.149 470.73 248.533 462.202 249.25 453.783C249.176 454.113 249.112 454.443 249.048 454.783C246.862 465.921 246.632 477.849 250.499 488.437C254.366 499.025 262.862 508.013 273.196 509.823C274.83 510.113 276.631 510.293 277.788 511.532C280.351 514.212 278.119 519.091 279.405 522.69C280.801 526.599 285.513 527.369 289.361 527.319C297.584 527.216 305.775 526.211 313.812 524.32C312.679 521.403 311.689 518.423 310.846 515.392C304.249 516.668 297.567 517.35 290.868 517.431V517.431Z" fill="black"/>
</g>
<path opacity="0.1" d="M320.949 473.829C323.218 475.688 325.679 468.6 324.274 466.83C323.898 467.29 320.6 473.569 320.949 473.829Z" fill="black"/>
<path opacity="0.1" d="M330.621 602.145C333.294 601.145 336.132 600.145 337.877 597.745C339.32 595.816 340.504 588.157 337.455 591.826C334.865 594.976 333.643 599.125 330.621 602.145Z" fill="black"/>
<path opacity="0.1" d="M357.837 594.117C357.515 596.477 356.918 598.926 355.384 600.626C355.1 600.946 354.466 601.146 354.383 600.716C356.097 599.723 357.689 598.5 359.123 597.076C362.227 593.727 362.65 585.479 357.92 583.289C357.874 586.908 358.342 590.438 357.837 594.117Z" fill="black"/>
<path d="M390.508 579.249C390.508 579.249 364.441 568.101 355.017 569.251C345.593 570.401 365.69 586.568 365.69 586.568L377.704 595.386C377.704 595.386 385.052 592.387 385.539 592.157C386.026 591.927 390.508 579.249 390.508 579.249Z" fill="#454B69"/>
<path d="M211.149 459.652C211.149 459.652 230.732 447.294 256.579 462.651C282.426 478.009 286.734 568.381 286.734 568.381C286.734 568.381 276.162 660.454 316.926 639.968C316.926 639.968 391.326 614.823 398.775 620.362C398.775 620.362 405.83 620.362 391.73 623.771C377.631 627.18 323.163 645.967 323.163 645.967C323.163 645.967 305.555 652.665 298.096 645.967C290.638 639.268 269.503 646.827 266.757 600.775C264.939 571.755 261.67 542.865 256.965 514.232L249.7 490.786L211.149 459.652Z" fill="#565661"/>
<path d="M208.798 602.045C208.798 602.045 217.414 508.682 203.287 474.999C190.997 445.644 238.521 459.372 250.921 463.371C252.84 463.995 254.514 465.297 255.679 467.07C263.027 478.318 289.389 523.4 281.618 583.718C281.618 583.718 278.486 637.438 298.069 645.956L237.731 624.8C232.836 623.081 227.866 621.651 222.851 620.411C216.458 618.831 206.042 614.342 208.798 602.045Z" fill="white"/>
<path d="M637.939 776.342H645.774L650.908 661.724L651.257 655.205L644.598 652.655L644.157 659.584L637.939 776.342Z" fill="#565661"/>
<path opacity="0.1" d="M644.157 659.584L650.908 661.724L651.258 655.205L644.598 652.655L644.157 659.584Z" fill="black"/>
<path d="M572.522 732.08C572.33 733.65 571.959 735.188 571.42 736.659C570.863 738.58 569.668 740.206 568.067 741.218C566.993 741.701 565.841 741.949 564.678 741.948C560.352 742.228 555.778 742.158 552.058 739.758C550.473 738.647 549.02 737.327 547.731 735.829C539.372 726.788 531.773 716.951 525.026 706.435C523.896 704.665 522.729 702.575 523.234 700.436C531.975 697.797 540.275 693.663 547.823 688.188C548.865 687.318 550.032 686.643 551.277 686.189C553.408 685.693 555.603 685.605 557.762 685.929C559.847 686.299 559.939 686.369 560.738 688.928C562.06 693.257 561.84 697.926 563.328 702.256C564.272 704.648 565.423 706.938 566.763 709.094C570.603 716.083 573.551 724.331 572.522 732.08Z" fill="#A26565"/>
<path opacity="0.1" d="M572.522 732.08C572.329 733.65 571.959 735.188 571.42 736.66C570.863 738.581 569.667 740.206 568.067 741.219C566.993 741.702 565.841 741.95 564.678 741.949C560.352 742.228 555.778 742.158 552.058 739.759C550.473 738.647 549.02 737.328 547.731 735.83C539.372 726.789 531.773 716.951 525.026 706.435C523.896 704.666 522.729 702.576 523.234 700.436C526.086 699.576 528.894 698.555 531.648 697.377L531.786 697.487C534.606 699.677 536.654 702.816 538.647 705.895L545.077 715.743C546.223 717.678 547.577 719.457 549.109 721.043C551.009 722.702 553.107 724.075 555.346 725.122C558.368 726.711 561.39 728.301 564.531 729.581C566.561 730.471 569.996 730.821 572.522 732.08Z" fill="black"/>
<path d="M578.456 625.31C577.823 626.971 577.054 628.567 576.159 630.079C567.622 645.684 561.036 662.459 556.577 679.96C555.309 679.65 554.593 681.529 554.602 682.959C554.611 684.389 554.602 686.189 553.389 686.708C553.031 686.858 552.627 686.858 552.278 687.028C551.506 687.408 551.286 688.478 551.176 689.398L550.092 698.056C549.715 701.056 549.385 704.305 550.735 706.955C551.666 708.529 552.874 709.888 554.289 710.954L572.219 726.351C572.954 726.981 573.863 727.651 574.745 727.301C576.756 726.501 574.974 722.582 576.582 720.992C577.647 719.902 579.337 720.722 580.816 720.592C582.745 720.432 584.206 718.502 584.692 716.473C585.034 714.406 585.068 712.293 584.793 710.214C584.672 709.265 584.773 708.299 585.087 707.404C585.635 706.457 586.389 705.67 587.283 705.115C590.394 702.642 592.9 699.377 594.583 695.605C596.266 691.833 597.074 687.67 596.936 683.479C596.79 682.203 596.834 680.91 597.065 679.65C597.438 678.496 598.002 677.425 598.727 676.49C605.24 666.902 610.668 656.494 616.06 646.106C619.164 640.107 622.324 634.018 623.408 627.26C623.502 627.008 623.541 626.736 623.522 626.466C623.502 626.195 623.426 625.933 623.297 625.7C623.169 625.467 622.993 625.27 622.782 625.125C622.572 624.979 622.333 624.888 622.085 624.86C619.396 623.946 616.652 623.231 613.874 622.721C605.433 620.861 597.285 617.991 589.074 615.232C580.862 612.473 580.926 618.091 578.456 625.31Z" fill="#454B69"/>
<path d="M539.63 800.587L552.563 802.287L612.092 655.205L628.148 653.925L656.355 662.883L661.83 838H674.753L669.665 656.484L700.61 657.344L755.831 806.976H767.579L709.501 632.099L707.269 625.36L620.708 622.131L599.132 635.298L598.856 636.058L539.63 800.587Z" fill="#565661"/>
<path opacity="0.1" d="M598.856 636.058C617.456 642.157 636.763 648.816 636.763 648.816C636.763 648.816 654.371 655.504 661.83 648.816C662.77 648.017 663.821 647.386 664.943 646.946C663.976 647.699 662.931 648.326 661.83 648.816L709.501 632.089L707.296 625.36L620.735 622.131L599.159 635.298L598.856 636.058Z" fill="black"/>
<path d="M686.896 607.034L651.653 598.506C651.653 598.506 567.443 615.563 561.179 622.381C561.179 622.381 628.543 637.298 635.983 642.377C643.423 647.456 687.686 653.075 686.896 607.034Z" fill="white"/>
<path d="M556.117 744.087C553.995 748.486 548.769 749.726 544.177 749.796C537.8 749.882 531.467 748.651 525.512 746.167C522.114 744.747 518.853 742.918 515.344 741.878C510.118 740.318 504.322 740.448 499.729 737.319C497.294 735.551 495.281 733.176 493.86 730.39C493.594 729.9 493.336 729.39 493.098 728.87C490.902 724.221 489.883 718.812 491.104 713.793C492.326 708.774 496.763 703.245 501.906 703.325C508.014 703.425 515.298 706.574 521.195 708.204C528.543 710.204 535.891 712.513 542.385 716.743C547.823 720.302 552.627 725.411 555.19 731.65C555.682 732.853 556.088 734.097 556.402 735.369C557.201 738.248 557.385 741.458 556.117 744.087Z" fill="#A26565"/>
<path opacity="0.1" d="M556.117 744.088C553.995 748.487 548.769 749.727 544.176 749.797C537.8 749.883 531.467 748.651 525.512 746.168C522.114 744.748 518.853 742.918 515.344 741.879C510.118 740.319 504.322 740.449 499.729 737.32C497.294 735.552 495.281 733.176 493.86 730.391C493.594 729.901 493.336 729.391 493.098 728.871C494.016 728.951 494.861 729.051 495.32 729.101C500.96 729.691 506.343 731.931 511.725 733.62C519.198 735.97 526.913 737.28 534.688 737.519C540.199 737.689 545.949 737.25 550.762 734.32C552.2 733.333 553.69 732.442 555.226 731.651C555.719 732.854 556.124 734.098 556.439 735.37C557.201 738.249 557.385 741.459 556.117 744.088Z" fill="black"/>
<path d="M595.586 553.984C583.645 551.854 571.484 551.334 559.378 550.814L544.571 550.175C543.518 550.042 542.451 550.182 541.458 550.584C540.601 551.184 539.788 551.852 539.024 552.584C537.536 553.684 535.634 553.804 533.843 553.914C521.137 554.676 508.501 556.46 496.037 559.253C489.607 560.683 482.93 562.552 478.098 567.381C472.991 572.49 470.75 580.279 470.576 587.817C470.401 595.356 472.22 602.765 474.139 610.003C476.583 618.717 477.933 627.75 478.153 636.858C478.067 639.385 478.156 641.915 478.42 644.427C478.847 646.825 479.497 649.17 480.358 651.425L487.118 671.072C487.715 672.791 488.303 674.501 488.955 676.181C489.607 677.86 490.232 679.18 490.792 680.76C491.619 682.919 492.271 685.159 492.923 687.389L497.424 702.776L498.012 704.775C499.638 710.314 501.3 715.953 504.368 720.712C507.436 725.471 512.184 729.311 517.521 729.601C519.243 729.53 520.967 729.58 522.683 729.75C524.146 730.139 525.566 730.699 526.918 731.42C530.925 733.232 535.226 734.147 539.566 734.11C543.561 734.11 547.998 732.9 550.165 729.241C551.359 727.241 551.672 724.781 552.002 722.422C552.581 717.683 553.141 712.734 551.662 708.235C550.744 705.545 549.201 703.236 548.135 700.586C546.647 696.977 546.161 692.987 545.196 689.178C543.109 680.979 538.862 673.625 532.98 668.022C530.891 659.019 529.356 649.873 528.387 640.647C528.252 638.604 527.879 636.589 527.276 634.649C526.201 631.649 524.024 629.22 523.115 626.16C522.261 623.321 522.518 620.041 520.966 617.592C533.889 621.461 546.684 620.591 560.104 620.361C564.401 620.376 568.695 620.109 572.963 619.561C574.952 619.164 576.967 618.93 578.988 618.862C583.14 618.862 587.035 620.861 590.846 622.621C601.621 627.62 612.974 631.549 624.675 632.089C636.754 632.639 648.695 629.55 660.498 626.49C665.687 625.14 671.079 623.681 675.194 619.971C679.309 616.262 681.624 609.573 679.089 604.484C677.16 600.655 673.164 598.775 669.435 597.176C659.111 592.737 648.731 588.407 638.784 583.038C623.592 574.98 612.23 556.983 595.586 553.984Z" fill="#454B69"/>
<path d="M574.295 508.752C572.852 512.151 570.428 514.931 568.636 518.13C565.64 523.397 564.651 529.728 565.881 535.777C566.527 538.767 567.794 541.555 569.586 543.928C571.377 546.301 573.645 548.195 576.214 549.464C578.508 550.459 580.921 551.092 583.379 551.344C586.612 551.774 590.056 551.864 592.913 550.164C595.051 548.767 596.805 546.772 597.992 544.385C600.463 539.886 601.868 534.817 603.154 529.768C605.533 520.45 607.563 510.892 607.269 501.223C607.168 497.894 606.562 494.145 604.027 492.225C602.718 491.402 601.267 490.885 599.765 490.705L587.65 488.346C585.308 487.886 581.22 486.016 579.19 487.856C577.16 489.696 577.004 495.134 576.655 497.684C576.104 501.453 575.764 505.283 574.295 508.752Z" fill="#A1616A"/>
<path d="M721.561 470.08L718.392 498.995C717.736 504.152 717.359 509.346 717.262 514.552C717.262 517.451 717.345 520.671 715.581 522.84C714.719 523.827 713.627 524.542 712.422 524.91C708.573 526.209 704.375 525.05 700.701 523.26C698.552 522.26 696.357 520.81 695.383 518.481C694.817 516.866 694.582 515.136 694.694 513.412C694.694 496.165 696.191 478.179 704.467 463.481C705.173 462.039 706.168 460.788 707.379 459.822C709.675 458.222 712.679 458.672 715.278 459.542C716.876 460.072 721.193 460.662 722.213 462.212C723.232 463.761 721.781 468.09 721.561 470.08Z" fill="#A1616A"/>
<path d="M637.489 365.52C655.751 365.52 670.556 349.405 670.556 329.526C670.556 309.648 655.751 293.533 637.489 293.533C619.227 293.533 604.422 309.648 604.422 329.526C604.422 349.405 619.227 365.52 637.489 365.52Z" fill="#A1616A"/>
<path d="M628.644 383.167C628.524 385.967 627.824 388.701 626.595 391.165C643.478 388.366 660.317 385.246 677.114 381.807C671.541 378.689 667.328 373.297 665.394 366.81C664.48 363.331 663.98 359.739 663.906 356.122C663.639 350.385 663.74 344.636 664.209 338.915C658.33 339.585 652.764 341.984 647.161 344.044C641.528 346.116 635.797 347.862 629.994 349.273C627.192 349.953 624.372 350.533 621.543 351.073C618.237 351.713 616.648 351.703 618.944 354.862C625.107 363.3 629.507 371.879 628.644 383.167Z" fill="#A1616A"/>
<path d="M638.803 378.358C634.44 379.067 629.865 379.867 626.384 382.807C625.059 384.045 623.799 385.364 622.609 386.756C615.693 394.065 605.929 397.004 597.534 402.163C596.164 402.9 594.951 403.938 593.97 405.212C593.051 406.602 592.583 408.372 591.618 409.752C590.498 411.351 588.725 412.351 587.852 414.121C586.98 415.89 587.173 417.77 587.081 419.65C586.87 423.779 585.437 427.698 584.325 431.647C579.227 450.554 582.02 471.64 574.304 489.496C574.659 490.525 575.202 491.465 575.899 492.259C576.597 493.053 577.436 493.684 578.364 494.116C580.306 494.877 582.332 495.351 584.39 495.525L601.483 497.835C603.926 498.165 606.517 498.475 608.749 497.365C606.707 503.492 605.263 509.836 604.441 516.291C604.025 520.238 603.381 524.151 602.512 528.009C600.16 536.807 594.245 544.136 587.237 549.145C586.354 549.648 585.61 550.397 585.078 551.315C584.16 553.314 585.519 555.554 586.484 557.514C589.285 563.192 588.899 570.011 588.863 576.45C588.826 582.889 589.423 589.957 593.556 594.576C596 597.306 599.343 598.786 602.595 600.195L629.333 611.823C633.745 613.868 638.296 615.54 642.945 616.822C649.99 618.572 657.311 618.502 664.54 618.162C669.316 617.942 674.086 617.609 678.85 617.162C680.745 617.155 682.607 616.622 684.26 615.612C685.683 614.39 686.777 612.774 687.429 610.933C691.149 602.125 692.398 591.847 698.167 584.468C702.125 579.399 708.27 575.35 708.72 568.721C708.932 565.422 707.581 562.213 707.563 558.903C707.563 554.834 709.519 550.965 709.4 546.906C709.152 540.297 703.43 535.258 702.52 528.719C700.206 512.142 707.94 495.585 712.688 479.638C713.543 476.789 714.645 473.639 717.161 472.42C719.678 471.2 723.224 471.84 724.124 469.14C726.393 462.362 726.935 454.413 726.641 447.204C726.475 443.035 725.116 438.956 725.272 434.777C725.382 431.837 726.246 428.978 726.475 426.048C726.824 421.619 725.75 417.22 724.638 412.941C724.317 411.413 723.836 409.931 723.205 408.522C722.527 407.244 721.726 406.048 720.817 404.952L716.344 399.164C714.25 396.454 712.036 393.645 708.996 392.275C708.013 389.625 704.872 387.796 702.621 386.336C700.353 384.935 698.01 383.683 695.604 382.587L670.308 370.429C669.362 369.911 668.349 369.553 667.304 369.369C665.765 369.313 664.234 369.656 662.84 370.369C655.125 373.698 647.069 377.018 638.803 378.358Z" fill="#9FEDD7"/>
<path d="M612.009 335.785C611.036 332.055 608.546 328.836 608.17 324.977C607.83 321.547 609.217 318.228 610.007 314.889C610.797 311.549 610.769 307.47 608.335 305.251C607.931 304.871 607.417 304.531 607.27 303.971C606.976 302.971 607.903 302.061 608.188 301.051C608.712 299.052 606.443 296.842 607.27 294.922C607.738 293.873 608.914 293.503 609.943 293.173C613.874 291.903 617.86 289.084 618.714 284.714C621.792 286.114 625.071 283.485 627.431 280.935C629.792 278.386 632.694 275.476 635.946 276.246L635.22 277.856C640.234 275.874 645.718 275.807 650.771 277.666H649.228C653.66 277.747 657.959 279.331 661.527 282.195C661.132 282.195 661.095 282.835 661.251 283.195C662.537 286.464 665.844 288.194 669.031 289.004C670.951 289.503 673.036 289.863 674.441 291.363C675.846 292.863 675.874 295.992 674.019 296.712C677.802 298.316 681.385 300.432 684.683 303.011C685.601 303.741 686.639 304.731 686.52 306.01C686.388 306.653 686.197 307.279 685.95 307.88C685.767 308.947 685.833 310.047 686.143 311.079L687.163 315.659C688.283 320.748 689.165 326.876 685.757 330.566C687.033 333.16 687.506 336.133 687.108 339.043C686.709 341.953 685.459 344.646 683.544 346.723C683.814 347.616 683.907 348.561 683.818 349.497C683.728 350.432 683.457 351.336 683.023 352.149C682.589 352.963 682.002 353.667 681.3 354.215C680.598 354.763 679.798 355.144 678.951 355.331C680.081 357.251 679.043 359.99 677.261 361.19C675.479 362.39 673.238 362.4 671.162 362.19C669.086 361.98 666.983 361.47 664.907 361.81C661.885 362.32 658.927 364.559 656.016 363.559C654.93 363.054 653.888 362.445 652.902 361.74C650.863 360.55 648.493 360.28 646.233 359.74C642.381 358.839 638.724 357.142 635.459 354.741C633.295 353.325 631.571 351.236 630.508 348.742C628.488 343.183 631.886 335.895 628.313 331.366C626.219 328.726 622.067 328.686 619.725 330.946C618.558 332.075 618.402 334.455 617.19 335.305C615.498 335.771 613.749 335.933 612.009 335.785Z" fill="#464353"/>
<path opacity="0.1" d="M567.076 622.471C565.77 621.346 564.644 619.995 563.741 618.472C562.836 616.941 562.477 615.102 562.731 613.303C562.373 615.579 562.51 617.915 563.13 620.123C563.751 622.332 564.838 624.351 566.304 626.02C568.61 628.59 572.936 631.109 576.307 630.23C575.829 627.29 569.216 624.451 567.076 622.471Z" fill="black"/>
<path d="M748.777 461.651C748.777 461.651 729.194 449.293 703.347 464.65C677.5 480.008 673.192 570.38 673.192 570.38C673.192 570.38 683.764 662.453 643 641.967C643 641.967 568.6 616.822 561.151 622.361C561.151 622.361 554.097 622.361 568.196 625.77C582.295 629.179 636.763 647.966 636.763 647.966C636.763 647.966 654.371 654.665 661.83 647.966C669.288 641.267 690.423 648.826 693.17 602.774C694.987 573.754 698.256 544.864 702.961 516.231L710.227 492.785L748.777 461.651Z" fill="#565661"/>
<path d="M751.128 604.045C751.128 604.045 742.512 510.682 756.639 476.999C768.929 447.644 721.405 461.372 709.005 465.371C707.086 465.995 705.412 467.297 704.247 469.07C696.899 480.318 670.537 525.4 678.308 585.718C678.308 585.718 681.44 639.438 661.857 647.956L722.195 626.8C727.091 625.081 732.06 623.651 737.075 622.411C743.468 620.832 753.884 616.342 751.128 604.045Z" fill="white"/>
<path opacity="0.1" d="M909.306 785.59C958.736 785.59 998.807 778.585 998.807 769.943C998.807 761.301 958.736 754.296 909.306 754.296C859.876 754.296 819.806 761.301 819.806 769.943C819.806 778.585 859.876 785.59 909.306 785.59Z" fill="#9FEDD7"/>
<path d="M912.181 470.189H906.422V611.333H912.181V470.189Z" fill="#535461"/>
<path d="M948.38 610.903L948.022 617.262L947.507 626.26L947.296 630L946.791 638.998L946.571 642.737L946.056 651.736L940.251 753.786C939.985 758.166 938.2 762.273 935.256 765.273C932.312 768.273 928.43 769.943 924.397 769.943H894.206C890.166 769.941 886.279 768.263 883.337 765.25C880.394 762.236 878.618 758.115 878.371 753.726L872.547 651.666L872.042 642.667L871.831 638.928L871.307 629.93L871.096 626.19L870.591 617.192L870.223 610.833C870.16 609.615 870.325 608.394 870.708 607.247C871.091 606.1 871.685 605.05 872.454 604.16C873.222 603.271 874.148 602.561 875.176 602.073C876.205 601.586 877.313 601.331 878.435 601.325H940.178C941.304 601.332 942.418 601.59 943.449 602.082C944.481 602.574 945.409 603.291 946.178 604.188C946.946 605.085 947.537 606.143 947.916 607.298C948.295 608.453 948.453 609.68 948.38 610.903V610.903Z" fill="#565661"/>
<path d="M948.022 617.262L947.508 626.23H871.105L870.591 617.262H948.022Z" fill="#9D9CB5"/>
<path d="M947.296 629.979L946.791 638.958H871.831L871.316 629.979H947.296Z" fill="#9D9CB5"/>
<path d="M946.571 642.697L946.056 651.666H872.556L872.042 642.697H946.571Z" fill="#9D9CB5"/>
<path d="M861.791 523.091C895.336 549.506 909.306 590.818 909.306 590.818C909.306 590.818 868.891 589.308 835.338 562.893C801.784 536.478 787.832 495.176 787.832 495.176C787.832 495.176 828.256 496.686 861.791 523.091Z" fill="#9FEDD7"/>
<path d="M787.832 495.176C787.832 495.176 829.781 520.521 843.246 541.507C856.712 562.493 909.306 590.818 909.306 590.818" stroke="#535461" stroke-width="2" stroke-miterlimit="10"/>
<path d="M883.441 469.88C901.701 484.247 909.306 506.743 909.306 506.743C909.306 506.743 887.262 505.913 869.048 491.546C850.833 477.178 843.237 454.683 843.237 454.683C843.237 454.683 865.19 455.502 883.441 469.88Z" fill="#9FEDD7"/>
<path d="M843.237 454.683C843.237 454.683 866.072 468.48 873.392 479.898C880.713 491.316 909.352 506.743 909.352 506.743" stroke="#535461" stroke-width="2" stroke-miterlimit="10"/>
<path d="M935.833 505.593C914.863 530.679 910.427 563.462 910.427 563.462C910.427 563.462 939.994 555.564 960.945 530.469C981.897 505.373 986.352 472.6 986.352 472.6C986.352 472.6 956.803 480.508 935.833 505.593Z" fill="#9FEDD7"/>
<path d="M986.37 472.609C986.37 472.609 959.053 498.324 952.109 516.041C945.165 533.758 910.427 563.462 910.427 563.462" stroke="#535461" stroke-width="2" stroke-miterlimit="10"/>
<path d="M511.597 445.204V447.483H449.496V445.634C451.198 444.939 452.81 444.004 454.29 442.854C456.927 440.799 459.076 438.089 460.559 434.948C462.041 431.808 462.814 428.328 462.814 424.798C462.815 422.953 462.602 421.115 462.18 419.329C461.429 416.113 460.026 413.122 458.075 410.573C456.123 408.025 453.672 405.984 450.901 404.602H511.174C508.403 405.984 505.952 408.025 504 410.573C502.049 413.122 500.646 416.113 499.895 419.329C499.476 421.116 499.266 422.953 499.27 424.798C499.268 428.328 500.039 431.807 501.52 434.947C503.001 438.088 505.149 440.798 507.785 442.854C508.977 443.78 510.254 444.567 511.597 445.204V445.204Z" fill="#DFE6F5"/>
<path opacity="0.1" d="M511.175 404.602C508.404 405.984 505.953 408.025 504.001 410.573C502.049 413.122 500.646 416.113 499.895 419.329H462.181C461.43 416.113 460.027 413.122 458.075 410.573C456.123 408.025 453.672 405.984 450.901 404.602H511.175Z" fill="black"/>
<path d="M378.393 392.955V405.793C378.393 412.871 383.151 418.62 389.03 418.62H571.732C577.611 418.62 582.378 412.871 582.378 405.793V392.955H378.393Z" fill="#DFE6F5"/>
<path opacity="0.1" d="M511.597 445.205V447.485H449.496V445.635C451.198 444.94 452.81 444.005 454.29 442.855H507.785C508.977 443.781 510.254 444.569 511.597 445.205V445.205Z" fill="black"/>
<path d="M529.003 443.564H432.09C430.37 443.564 428.976 445.08 428.976 446.949C428.976 448.818 430.37 450.333 432.09 450.333H529.003C530.723 450.333 532.117 448.818 532.117 446.949C532.117 445.08 530.723 443.564 529.003 443.564Z" fill="#DFE6F5"/>
<path d="M582.378 252.351C582.378 250.83 582.102 249.324 581.567 247.918C581.032 246.513 580.248 245.236 579.259 244.161C578.27 243.086 577.097 242.233 575.805 241.652C574.514 241.071 573.13 240.772 571.732 240.773H389.03C387.632 240.772 386.249 241.071 384.958 241.652C383.667 242.233 382.494 243.086 381.506 244.162C380.518 245.237 379.734 246.514 379.2 247.919C378.666 249.324 378.392 250.83 378.393 252.351V395.454H582.378V252.351Z" fill="#474157"/>
<path d="M576.812 257.52V380.497C576.813 381.246 576.678 381.988 576.416 382.681C576.153 383.373 575.768 384.003 575.282 384.533C574.795 385.063 574.218 385.484 573.582 385.771C572.946 386.058 572.264 386.206 571.576 386.206H389.195C388.507 386.206 387.825 386.058 387.189 385.771C386.554 385.484 385.976 385.063 385.49 384.533C385.003 384.003 384.618 383.373 384.355 382.681C384.093 381.988 383.958 381.246 383.96 380.497V257.52C383.955 256.52 384.196 255.536 384.658 254.671C385.117 253.804 385.779 253.084 386.575 252.584C387.372 252.084 388.275 251.821 389.195 251.821H571.576C572.965 251.821 574.296 252.422 575.278 253.49C576.26 254.559 576.812 256.009 576.812 257.52V257.52Z" fill="#4C4C78"/>
<path d="M480.386 248.961C481.74 248.961 482.838 247.766 482.838 246.292C482.838 244.817 481.74 243.622 480.386 243.622C479.031 243.622 477.933 244.817 477.933 246.292C477.933 247.766 479.031 248.961 480.386 248.961Z" fill="white"/>
<path d="M480.386 412.911C483.729 412.911 486.439 409.961 486.439 406.322C486.439 402.683 483.729 399.733 480.386 399.733C477.043 399.733 474.333 402.683 474.333 406.322C474.333 409.961 477.043 412.911 480.386 412.911Z" fill="white"/>
<path d="M576.811 257.52H383.978C383.978 256.009 384.529 254.559 385.511 253.49C386.493 252.422 387.825 251.821 389.213 251.821H571.576C572.964 251.821 574.296 252.422 575.278 253.49C576.26 254.559 576.811 256.009 576.811 257.52Z" fill="#C8CAD7"/>
<path d="M389.195 256.101C389.92 256.101 390.508 255.461 390.508 254.671C390.508 253.881 389.92 253.241 389.195 253.241C388.469 253.241 387.881 253.881 387.881 254.671C387.881 255.461 388.469 256.101 389.195 256.101Z" fill="#EDEDF4"/>
<path d="M393.126 256.101C393.852 256.101 394.44 255.461 394.44 254.671C394.44 253.881 393.852 253.241 393.126 253.241C392.401 253.241 391.813 253.881 391.813 254.671C391.813 255.461 392.401 256.101 393.126 256.101Z" fill="#EDEDF4"/>
<path d="M397.058 256.101C397.783 256.101 398.371 255.461 398.371 254.671C398.371 253.881 397.783 253.241 397.058 253.241C396.332 253.241 395.744 253.881 395.744 254.671C395.744 255.461 396.332 256.101 397.058 256.101Z" fill="#EDEDF4"/>
</g>
<defs>
<linearGradient id="paint0_linear" x1="354.962" y1="567.652" x2="357.092" y2="567.652" gradientUnits="userSpaceOnUse">
<stop stop-color="#808080" stop-opacity="0.25"/>
<stop offset="0.54" stop-color="#808080" stop-opacity="0.12"/>
<stop offset="1" stop-color="#808080" stop-opacity="0.1"/>
</linearGradient>
<clipPath id="clip0">
<rect width="1038" height="738" fill="white" transform="translate(0 100)"/>
</clipPath>
</defs>
</svg>
