<svg width="699" height="580" viewBox="0 0 699 580" fill="none" xmlns="http://www.w3.org/2000/svg">
<g clip-path="url(#clip0)" filter="url(#filter0_d)">
<path d="M517.353 107.766C519.114 105.638 520.737 103.38 522.211 101.009L491.355 93.1611L525.082 95.8939C528.791 88.4696 531.068 80.3003 531.774 71.8857C532.48 63.4712 531.601 54.9884 529.188 46.9564L482.343 69.199L526.151 38.863C522.692 31.2263 517.825 24.4459 511.852 18.9442C505.879 13.4426 498.929 9.33758 491.434 6.88491C483.939 4.43224 476.06 3.68446 468.287 4.68816C460.515 5.69186 453.016 8.42552 446.257 12.7189C439.499 17.0122 433.625 22.7733 429.003 29.6431C424.381 36.5129 421.108 44.3444 419.39 52.6497C417.672 60.9549 417.545 69.556 419.016 77.9171C420.488 86.2782 423.526 94.2202 427.943 101.248C425.199 104.56 422.791 108.184 420.761 112.057L459.851 137.895L417.638 118.983C414.005 128.511 412.613 138.874 413.59 149.134C414.566 159.394 417.879 169.227 423.229 177.744C416.668 185.664 412.096 195.289 409.952 205.69C407.809 216.092 408.167 226.919 410.992 237.126C413.817 247.333 419.014 256.576 426.081 263.962C433.147 271.348 441.845 276.628 451.335 279.293C450.441 281.544 449.911 283.947 449.768 286.395C449.512 290.015 450.147 293.643 451.609 296.907C449.79 299.946 448.717 303.441 448.494 307.058C448.271 310.676 448.906 314.296 450.336 317.571C448.516 320.609 447.444 324.104 447.221 327.722C446.998 331.34 447.632 334.959 449.063 338.234C447.243 341.273 446.171 344.768 445.948 348.386C445.725 352.003 446.359 355.623 447.789 358.898C445.94 361.921 444.865 365.424 444.674 369.049C444.099 378.386 448.949 386.343 455.507 386.821C462.064 387.299 467.847 380.118 468.422 370.78C468.678 367.16 468.043 363.532 466.581 360.268C468.4 357.23 469.473 353.735 469.696 350.117C469.919 346.499 469.285 342.879 467.854 339.604C469.674 336.566 470.746 333.071 470.969 329.453C471.192 325.835 470.558 322.216 469.127 318.941C470.947 315.903 472.02 312.407 472.243 308.79C472.465 305.172 471.831 301.552 470.401 298.277C472.25 295.255 473.325 291.751 473.516 288.126C473.677 285.644 473.438 283.15 472.808 280.758C482.489 279.41 491.689 275.382 499.529 269.059C507.368 262.737 513.584 254.331 517.581 244.647C521.578 234.964 523.223 224.326 522.357 213.753C521.492 203.18 518.146 193.026 512.639 184.262C521.196 173.932 526.313 160.774 527.168 146.901C528.023 133.028 524.566 119.246 517.353 107.766V107.766Z" fill="#F2F2F2"/>
<path d="M579.626 381.171C579.626 390.313 520.357 421.635 449.749 421.635C379.141 421.635 323.931 390.313 323.931 381.171C323.931 372.028 379.141 388.528 449.749 388.528C520.357 388.528 579.626 372.028 579.626 381.171Z" fill="#3F3D56"/>
<path opacity="0.1" d="M579.626 381.171C579.626 390.313 520.357 421.635 449.749 421.635C379.141 421.635 323.931 390.313 323.931 381.171C323.931 372.028 379.141 388.528 449.749 388.528C520.357 388.528 579.626 372.028 579.626 381.171Z" fill="black"/>
<path d="M451.778 397.724C522.386 397.724 579.626 390.313 579.626 381.171C579.626 372.028 522.386 364.617 451.778 364.617C381.17 364.617 323.931 372.028 323.931 381.171C323.931 390.313 381.17 397.724 451.778 397.724Z" fill="#3F3D56"/>
<path opacity="0.1" d="M454.802 396.787C478.749 396.787 498.161 390.755 498.161 383.313C498.161 375.872 478.749 369.839 454.802 369.839C430.855 369.839 411.442 375.872 411.442 383.313C411.442 390.755 430.855 396.787 454.802 396.787Z" fill="black"/>
<path d="M464.315 293.834C465.974 290.683 466.831 287.109 466.799 283.479C466.799 274.121 461.47 266.534 454.898 266.534C448.325 266.534 442.997 274.121 442.997 283.479C442.964 287.109 443.822 290.683 445.481 293.834C443.852 296.997 442.997 300.563 442.997 304.189C442.997 307.815 443.852 311.38 445.481 314.544C443.852 317.707 442.997 321.273 442.997 324.899C442.997 328.525 443.852 332.09 445.481 335.254C443.852 338.417 442.997 341.983 442.997 345.609C442.997 349.234 443.852 352.8 445.481 355.963C443.822 359.114 442.964 362.688 442.997 366.318C442.997 375.677 448.325 383.263 454.898 383.263C461.47 383.263 466.799 375.677 466.799 366.318C466.831 362.688 465.974 359.114 464.315 355.963C465.943 352.8 466.799 349.234 466.799 345.609C466.799 341.983 465.943 338.417 464.315 335.254C465.943 332.09 466.799 328.525 466.799 324.899C466.799 321.273 465.943 317.707 464.315 314.544C465.943 311.38 466.799 307.815 466.799 304.189C466.799 300.563 465.943 296.997 464.315 293.834Z" fill="#3F3D56"/>
<path d="M454.898 279.713C461.47 279.713 466.799 272.127 466.799 262.769C466.799 253.411 461.47 245.824 454.898 245.824C448.325 245.824 442.997 253.411 442.997 262.769C442.997 272.127 448.325 279.713 454.898 279.713Z" fill="#3F3D56"/>
<path d="M454.898 259.003C461.47 259.003 466.799 251.417 466.799 242.059C466.799 232.701 461.47 225.114 454.898 225.114C448.325 225.114 442.997 232.701 442.997 242.059C442.997 251.417 448.325 259.003 454.898 259.003Z" fill="#3F3D56"/>
<path d="M499.449 100.334C501.075 98.0829 502.556 95.712 503.881 93.2386L472.611 87.6528L506.43 87.9264C509.675 80.2489 511.445 71.9322 511.632 63.4852C511.819 55.0381 510.42 46.6383 507.519 38.7998L462.146 64.3998L503.99 30.9454C500.07 23.5774 494.797 17.1662 488.499 12.1113C482.202 7.05648 475.014 3.46622 467.385 1.56421C459.756 -0.3378 451.849 -0.51081 444.155 1.05596C436.462 2.62273 429.148 5.89571 422.669 10.671C416.189 15.4463 410.683 21.6216 406.493 28.8123C402.304 36.0029 399.521 44.0548 398.317 52.4664C397.113 60.878 397.515 69.4691 399.497 77.7044C401.479 85.9398 404.999 93.643 409.838 100.334C407.304 103.838 405.124 107.629 403.337 111.641L443.928 134.577L400.646 118.779C397.607 128.549 396.856 138.99 398.461 149.156C400.066 159.322 403.976 168.893 409.838 177.002C403.224 186.147 399.11 197.132 397.966 208.7C396.821 220.269 398.693 231.954 403.367 242.421C408.041 252.887 415.328 261.711 424.396 267.885C433.464 274.059 443.946 277.333 454.644 277.333C465.341 277.333 475.823 274.059 484.891 267.885C493.959 261.711 501.246 252.887 505.92 242.421C510.594 231.954 512.466 220.269 511.321 208.7C510.177 197.132 506.063 186.147 499.449 177.002C507.352 166.073 511.648 152.572 511.648 138.668C511.648 124.764 507.352 111.263 499.449 100.334Z" fill="#FEF9C7"/>
<path opacity="0.1" d="M397.639 138.668C397.619 152.576 401.918 166.083 409.838 177.002C403.224 186.147 399.11 197.132 397.966 208.7C396.822 220.269 398.693 231.954 403.367 242.421C408.041 252.887 415.328 261.711 424.396 267.885C433.464 274.059 443.946 277.333 454.644 277.333C465.341 277.333 475.823 274.059 484.891 267.885C493.959 261.711 501.246 252.887 505.92 242.421C510.594 231.954 512.466 220.269 511.321 208.7C510.177 197.132 506.063 186.147 499.449 177.002C507.089 166.452 397.639 131.709 397.639 138.668Z" fill="black"/>
<path d="M657.892 199.638L670.731 187.186C645.242 182.028 619.661 206.417 612.986 241.922C612.764 241.969 612.544 242.029 612.327 242.1L597.849 190.453C596.783 196.596 596.31 202.843 596.436 209.093L585.145 185.245C580.582 211.921 591.447 236.709 609.686 242.65C608.163 242.652 606.642 242.533 605.135 242.294C605.066 242.283 605.018 242.275 605.018 242.275C604.901 243.592 604.936 244.919 605.121 246.226C605.201 246.958 605.488 247.645 605.944 248.191C606.501 248.734 608.071 249.484 610.129 250.259C610.287 250.319 610.448 250.378 610.612 250.438C611.923 250.916 613.403 251.398 614.93 251.842C616.839 252.397 618.821 252.891 620.639 253.242C620.836 253.281 621.017 253.305 621.188 253.32C621.243 253.325 621.292 253.324 621.344 253.326C621.454 253.332 621.563 253.335 621.662 253.331C621.716 253.329 621.766 253.322 621.817 253.317C621.9 253.309 621.983 253.296 622.065 253.279C622.111 253.269 622.155 253.257 622.197 253.244C622.267 253.223 622.335 253.197 622.402 253.165C622.437 253.149 622.473 253.133 622.505 253.114C622.566 253.078 622.625 253.036 622.68 252.988C622.702 252.969 622.727 252.953 622.747 252.932C622.811 252.87 622.867 252.799 622.915 252.723C622.92 252.715 622.926 252.71 622.931 252.702C622.985 252.611 623.029 252.514 623.062 252.412C623.064 252.405 623.065 252.398 623.067 252.391C623.098 252.292 623.121 252.191 623.135 252.088C623.136 252.081 623.139 252.075 623.14 252.068L623.137 252.072C623.469 249.691 620.402 244.653 620.363 243.227C620.325 241.863 617.249 241.496 614.736 241.681L661.98 200.201C660.628 199.928 659.263 199.74 657.892 199.638Z" fill="#F2F2F2"/>
<path d="M695 249.36C695 255.559 654.813 276.797 606.937 276.797C559.061 276.797 521.626 255.559 521.626 249.36C521.626 243.161 559.061 254.348 606.937 254.348C654.813 254.348 695 243.161 695 249.36Z" fill="#3F3D56"/>
<path opacity="0.1" d="M695 249.36C695 255.559 654.813 276.797 606.937 276.797C559.061 276.797 521.626 255.559 521.626 249.36C521.626 243.161 559.061 254.348 606.937 254.348C654.813 254.348 695 243.161 695 249.36Z" fill="black"/>
<path d="M608.313 260.584C656.189 260.584 695 255.559 695 249.36C695 243.161 656.189 238.135 608.313 238.135C560.437 238.135 521.626 243.161 521.626 249.36C521.626 255.559 560.437 260.584 608.313 260.584Z" fill="#3F3D56"/>
<path opacity="0.1" d="M608.281 256.057C618.544 256.057 626.864 253.041 626.864 249.32C626.864 245.6 618.544 242.583 608.281 242.583C598.018 242.583 589.698 245.6 589.698 249.32C589.698 253.041 598.018 256.057 608.281 256.057Z" fill="black"/>
<path d="M569.643 193.481C569.643 222.085 586.141 245.231 606.531 245.231L569.643 193.481Z" fill="#3F3D56"/>
<path d="M606.53 245.231C606.53 216.305 624.942 192.899 647.695 192.899L606.53 245.231Z" fill="#FEF9C7"/>
<path d="M583.008 196.074C583.008 223.245 593.529 245.231 606.531 245.231L583.008 196.074Z" fill="#FEF9C7"/>
<path d="M606.53 245.231C606.53 208.271 627.811 178.363 654.111 178.363L606.53 245.231Z" fill="#3F3D56"/>
<path d="M598.771 245.596C598.771 245.596 604.002 245.421 605.578 244.199C607.155 242.978 613.626 241.52 614.017 243.479C614.408 245.437 621.879 253.218 615.972 253.27C610.066 253.322 602.249 252.27 600.675 251.227C599.102 250.185 598.771 245.596 598.771 245.596Z" fill="#A8A8A8"/>
<path opacity="0.2" d="M616.078 252.589C610.171 252.64 602.354 251.588 600.781 250.545C599.582 249.752 599.105 246.903 598.945 245.588C598.834 245.594 598.771 245.596 598.771 245.596C598.771 245.596 599.102 250.185 600.675 251.227C602.249 252.27 610.066 253.322 615.972 253.27C617.677 253.255 618.266 252.596 618.234 251.618C617.997 252.209 617.347 252.577 616.078 252.589Z" fill="black"/>
<path d="M145.6 170.784L152.235 182.216C150.014 185.448 148.437 188.961 149.448 191.284C151.941 197.009 157.667 204.411 160.721 208.359C163.775 212.306 164.201 222.873 184.922 221.61C205.642 220.346 214.024 210.146 214.024 210.146C214.024 210.146 215.86 228.649 224.669 235.271C223.923 236.393 222.921 237.284 221.762 237.857C212.454 242.583 202.295 280.335 195.254 301.073C187.572 323.696 199.246 319.755 199.246 319.755C203.156 319.825 206.75 320.05 210.047 320.39C213.882 331.437 219.966 355.057 212.832 379.384C207.842 396.397 208.891 414.329 211.122 427.835L206.463 433.254C201.271 435.056 199.73 438.574 199.73 438.574L187.776 456.678L189.757 458.236L196.922 447.465C196.922 447.465 198.485 448.984 200.632 453.762C202.778 458.54 196.673 477.192 196.565 478.555C196.457 479.918 202.004 489.591 209.761 492.606C210.291 492.824 210.857 492.918 211.422 492.88L210.712 501.849L214.926 501.786L216.22 485.43C216.22 485.43 219.471 508.162 220.126 510.512C220.782 512.862 227.538 512.579 234.603 513.698C241.669 514.817 248.69 505.863 241.494 501.07C234.299 496.277 233.397 481.088 233.397 481.088C236.802 469.965 229.109 455.513 229.109 455.513L228.229 445.362C228.061 445.773 227.811 446.138 227.497 446.431C227.182 446.723 226.812 446.936 226.412 447.052L227.464 433.769C235.493 423.723 245.989 410.315 251.423 402.221C260.964 388.01 260.452 383.843 260.452 383.843L270.234 336.666C273.482 336.935 276.746 336.868 279.983 336.469C286.603 335.383 284.133 311.732 280.305 292.662C281.309 288.145 282.898 281.927 285.398 273.379C286.599 269.263 287.39 265.019 287.759 260.72C289.271 243.314 283.743 228.76 281.34 223.386L282.172 221.104C282.172 221.104 289.816 212.025 283.833 196.66C284.176 195.035 284.412 193.386 284.541 191.725C285.078 184.384 283.585 177.036 280.254 170.624C280.214 170.55 280.174 170.474 280.132 170.407L280.088 170.333L280.077 170.332C280.022 170.246 279.962 170.164 279.898 170.086C277.468 167.395 265.073 162.299 262.549 161.279C262.41 161.185 262.255 161.123 262.093 161.096C261.164 161.009 262.141 156.572 263.191 152.65C264.497 151.546 265.654 150.249 266.629 148.796C271.829 146.49 276.414 142.8 279.961 138.065C283.509 133.33 285.906 127.701 286.933 121.696C287.96 115.691 287.584 109.502 285.839 103.696C284.094 97.8905 281.036 92.6545 276.946 88.4688C278.389 86.2779 279.39 83.7806 279.885 81.1402C280.38 78.4997 280.357 75.7754 279.818 73.1451C279.279 70.5149 278.236 68.0379 276.757 65.8759C275.278 63.7138 273.396 61.9154 271.235 60.598C274.621 63.6504 276.835 67.97 277.441 72.7077C278.048 77.4455 277.003 82.2585 274.512 86.2007C274.136 85.883 273.754 85.5736 273.366 85.2723C274.298 82.5083 274.632 79.5477 274.342 76.6206C274.051 73.6935 273.144 70.8786 271.691 68.3946C270.238 65.9106 268.278 63.8244 265.963 62.2981C263.649 60.7718 261.042 59.8464 258.345 59.5938C255.648 59.3413 252.934 59.7684 250.413 60.842C247.893 61.9155 245.633 63.6066 243.811 65.7839C241.989 67.9612 240.653 70.5661 239.907 73.3962C239.161 76.2262 239.025 79.2053 239.509 82.1019C234.325 84.7919 229.864 88.8848 226.552 93.9884C223.24 99.092 221.189 105.035 220.595 111.248C220.002 117.462 220.885 123.737 223.161 129.472C225.437 135.207 229.029 140.211 233.593 144.003C230.239 145.703 226.56 146.513 222.862 146.365C219.163 146.217 215.549 145.116 212.318 143.152C215.7 146.195 219.802 148.142 224.153 148.769C228.505 149.396 232.931 148.678 236.925 146.696C238.42 149.672 240.611 152.165 243.277 153.923C242.994 154.794 242.615 155.625 242.148 156.397L241.077 155.467L236.432 160.982L224.448 163.521C224.448 163.521 216.785 164.634 208.057 173.887C199.329 183.139 184.659 187.715 184.659 187.715L173.142 184.348C173.142 184.348 159.897 176.242 160.041 174.425C160.064 174.136 159.745 174.224 159.208 174.594L152.729 160.467C152.729 160.467 140.59 127.749 132.806 135.716C125.021 143.684 145.6 170.784 145.6 170.784ZM231.114 387.648L231.414 383.87C235.341 377.837 237.545 362.957 238.774 349.166L236.988 382.561C234.761 383.854 232.771 385.578 231.114 387.648ZM215.086 458.294L215.022 463.348C213.753 465.82 212.8 468.469 212.189 471.221C211.823 468.807 213.354 463.381 215.086 458.294Z" fill="#F2F2F2"/>
<path d="M428.079 504.888C428.079 520.051 329.78 572 212.674 572C95.5677 572 4 520.051 4 504.888C4 489.725 95.5677 517.09 212.674 517.09C329.78 517.09 428.079 489.725 428.079 504.888Z" fill="#3F3D56"/>
<path opacity="0.1" d="M428.079 504.888C428.079 520.051 329.78 572 212.674 572C95.5677 572 4 520.051 4 504.888C4 489.725 95.5677 517.09 212.674 517.09C329.78 517.09 428.079 489.725 428.079 504.888Z" fill="black"/>
<path d="M216.04 532.343C333.146 532.343 428.079 520.051 428.079 504.888C428.079 489.725 333.146 477.433 216.04 477.433C98.9334 477.433 4 489.725 4 504.888C4 520.051 98.9334 532.343 216.04 532.343Z" fill="#3F3D56"/>
<path opacity="0.1" d="M217.356 516.557C256.128 516.557 287.558 509.184 287.558 500.089C287.558 490.994 256.128 483.621 217.356 483.621C178.585 483.621 147.155 490.994 147.155 500.089C147.155 509.184 178.585 516.557 217.356 516.557Z" fill="black"/>
<path d="M210.21 142.314C213.146 139.887 215.512 136.738 217.114 133.126C218.717 129.513 219.51 125.539 219.429 121.529C219.349 117.519 218.396 113.587 216.65 110.054C214.904 106.521 212.413 103.488 209.382 101.203C212.341 102.657 214.988 104.766 217.155 107.395C219.322 110.024 220.961 113.115 221.968 116.472C222.976 119.828 223.329 123.376 223.005 126.89C222.682 130.403 221.688 133.804 220.089 136.876C218.489 139.949 216.319 142.625 213.715 144.734C211.112 146.843 208.133 148.339 204.968 149.126C201.804 149.913 198.523 149.974 195.335 149.305C192.148 148.637 189.123 147.253 186.455 145.242C190.29 147.127 194.522 147.85 198.703 147.335C202.885 146.819 206.86 145.085 210.21 142.314Z" fill="#2F2E41"/>
<path d="M252.345 166.001H256.119C258.907 170.324 260.801 175.253 261.67 180.449C262.538 185.645 262.361 190.983 261.15 196.097C256.957 213.426 260.312 216.618 260.312 216.618C260.312 216.618 275.405 239.875 269.536 268.148C263.666 296.421 265.343 299.613 265.343 299.613L254.861 276.812L248.991 216.618L252.345 166.001Z" fill="#FEF9C7"/>
<path opacity="0.1" d="M252.345 166.024H256.119C258.907 170.347 260.801 175.276 261.67 180.472C262.538 185.668 262.361 191.007 261.15 196.121C256.957 213.449 260.312 216.641 260.312 216.641C260.312 216.641 275.405 239.898 269.536 268.171C263.666 296.444 265.343 299.636 265.343 299.636L254.861 276.835L248.991 216.641L252.345 166.024Z" fill="black"/>
<path d="M225.721 149.812C244.246 149.812 259.263 133.479 259.263 113.331C259.263 93.1829 244.246 76.8497 225.721 76.8497C207.197 76.8497 192.18 93.1829 192.18 113.331C192.18 133.479 207.197 149.812 225.721 149.812Z" fill="#2F2E41"/>
<path d="M239.138 143.884C239.138 143.884 235.784 158.476 237.461 158.476C239.138 158.476 245.008 166.229 245.008 166.229L248.781 181.277L245.846 192.221L235.784 189.941L223.206 174.893L219.432 170.789L216.078 157.564C216.078 157.564 220.271 152.092 217.336 147.532C214.401 142.972 239.138 143.884 239.138 143.884Z" fill="#FBBEBE"/>
<path opacity="0.1" d="M239.138 143.884C239.138 143.884 235.784 158.476 237.461 158.476C239.138 158.476 245.008 166.229 245.008 166.229L248.781 181.277L245.846 192.221L235.784 189.941L223.206 174.893L219.432 170.789L216.078 157.564C216.078 157.564 220.271 152.092 217.336 147.532C214.401 142.972 239.138 143.884 239.138 143.884Z" fill="black"/>
<path d="M137.675 184.469L128.451 168.053C128.451 168.053 118.494 144.092 111.367 152.756C104.239 161.42 122.162 178.997 122.162 178.997L131.386 192.221L137.675 184.469Z" fill="#FBBEBE"/>
<path d="M260.102 327.202L253.394 380.555C253.394 380.555 254.232 384.659 245.847 399.708C237.461 414.756 214.821 447.589 214.821 447.589L208.112 433.909C208.112 433.909 216.078 390.588 229.914 381.467L228.237 315.801L260.102 327.202Z" fill="#FBBEBE"/>
<path opacity="0.1" d="M260.102 327.202L253.394 380.555C253.394 380.555 254.232 384.659 245.847 399.708C237.461 414.756 214.821 447.589 214.821 447.589L208.112 433.909C208.112 433.909 216.078 390.588 229.914 381.467L228.237 315.801L260.102 327.202Z" fill="black"/>
<path d="M208.112 428.437L217.336 447.589C217.336 447.589 209.789 470.846 212.724 473.126C215.659 475.406 219.433 495.927 211.466 493.647C203.5 491.367 197.211 482.247 197.211 480.878C197.211 479.51 201.823 460.358 199.308 455.798C196.792 451.237 195.115 449.869 195.115 449.869L188.826 461.27L186.729 459.902L197.211 440.749C197.211 440.749 198.469 437.101 203.5 434.821L208.112 428.437Z" fill="#2F2E41"/>
<path opacity="0.1" d="M208.112 428.437L217.336 447.589C217.336 447.589 209.789 470.846 212.724 473.126C215.659 475.406 219.433 495.927 211.466 493.647C203.5 491.367 197.211 482.247 197.211 480.878C197.211 479.51 201.823 460.358 199.308 455.798C196.792 451.237 195.115 449.869 195.115 449.869L188.826 461.27L186.729 459.902L197.211 440.749C197.211 440.749 198.469 437.101 203.5 434.821L208.112 428.437Z" fill="black"/>
<path d="M228.335 319.632C228.335 319.632 231.592 370.067 224.464 383.291V448.957L214.821 450.326C214.821 450.326 198.469 414.756 205.597 380.555C212.725 346.354 195.115 315.801 195.115 315.801L228.335 319.632Z" fill="#FBBEBE"/>
<path d="M225.932 155.056C235.657 155.056 243.541 146.481 243.541 135.904C243.541 125.326 235.657 116.751 225.932 116.751C216.206 116.751 208.322 125.326 208.322 135.904C208.322 146.481 216.206 155.056 225.932 155.056Z" fill="#FBBEBE"/>
<path d="M243.75 186.293L226.141 162.124L216.078 154.828L211.886 160.756L200.146 164.404C200.146 164.404 192.599 166.228 184.633 176.261C176.667 186.293 162.412 192.221 162.412 192.221L150.672 189.941C150.672 189.941 136.836 183.101 136.836 181.277C136.836 179.453 124.677 193.589 127.612 199.062C130.547 204.534 136.836 211.374 140.19 215.022C143.545 218.67 144.802 229.158 165.347 225.966C185.891 222.774 193.438 211.83 193.438 211.83C193.438 211.83 197.211 232.807 208.112 236.911C219.013 241.015 254.651 243.751 254.651 243.751L262.198 216.39C262.198 216.39 270.584 204.534 259.263 187.205C259.263 187.205 259.046 177.514 257.829 171.065C257.356 168.556 256.731 166.539 255.909 165.772C252.974 163.036 237.461 158.476 237.461 158.476C237.461 158.476 239.977 167.597 241.235 168.053C242.493 168.509 245.427 184.013 243.75 186.293Z" fill="#FEF9C7"/>
<path d="M187.359 322.413C208.473 320.817 220.766 324.58 226.25 327.448C227.27 327.95 228.23 328.584 229.11 329.336C229.512 329.705 229.705 329.992 229.705 330.166C229.705 331.534 258.635 334.27 269.116 331.534C279.598 328.798 261.989 269.972 257.377 264.956C252.765 259.94 255.251 241.58 255.251 241.58C255.251 241.58 246.057 239.419 243.541 240.331C241.025 241.243 228.028 238.963 223.416 236.227C218.804 233.491 212.934 235.315 209.161 234.403C207.475 233.997 206.624 234.681 206.201 235.566C205.541 236.893 204.546 237.986 203.333 238.717C194.432 244.294 187.287 282.854 181.908 304.173C176.038 327.43 187.359 322.413 187.359 322.413Z" fill="#2F2E41"/>
<path d="M226.141 444.853L227.818 454.886C227.818 454.886 236.623 468.566 234.107 479.966C234.107 479.966 236.204 495.015 243.75 499.119C251.297 503.223 245.008 512.799 237.881 512.343C230.753 511.887 224.045 512.799 223.206 510.519C222.368 508.239 217.336 485.895 217.336 485.895V502.311L213.144 502.767V482.246C213.144 482.246 209.79 475.406 214.401 464.006L213.238 446.507C213.238 446.507 224.883 449.413 226.141 444.853Z" fill="#2F2E41"/>
<path d="M225.722 96.0023C235.447 96.0023 243.331 87.4274 243.331 76.8497C243.331 66.272 235.447 57.6971 225.722 57.6971C215.996 57.6971 208.112 66.272 208.112 76.8497C208.112 87.4274 215.996 96.0023 225.722 96.0023Z" fill="#2F2E41"/>
<path d="M239.268 88.4873C241.482 86.6576 243.265 84.284 244.473 81.5606C245.681 78.8373 246.279 75.8416 246.218 72.8186C246.157 69.7956 245.439 66.8312 244.123 64.168C242.807 61.5047 240.929 59.2183 238.644 57.4957C240.874 58.5921 242.87 60.1818 244.503 62.1637C246.137 64.1455 247.373 66.4759 248.132 69.0061C248.892 71.5364 249.158 74.2111 248.914 76.8595C248.67 79.5079 247.921 82.0719 246.715 84.3881C245.509 86.7042 243.873 88.7216 241.91 90.3116C239.948 91.9015 237.702 93.0291 235.316 93.6225C232.931 94.2159 230.458 94.262 228.055 93.7578C225.652 93.2537 223.372 92.2104 221.36 90.6945C224.251 92.1156 227.441 92.6607 230.594 92.2721C233.746 91.8836 236.743 90.5759 239.268 88.4873Z" fill="#2F2E41"/>
<path d="M226.141 136.132C236.098 136.132 244.17 129.19 244.17 120.627C244.17 112.064 236.098 105.123 226.141 105.123C216.184 105.123 208.112 112.064 208.112 120.627C208.112 129.19 216.184 136.132 226.141 136.132Z" fill="#2F2E41"/>
<path opacity="0.1" d="M226.25 327.448C227.27 327.95 228.23 328.584 229.109 329.336C229.332 325.026 230.615 298.965 229.076 299.385L226.25 327.448Z" fill="black"/>
<path d="M78.3309 173.716C111.02 173.716 137.52 144.893 137.52 109.339C137.52 73.7851 111.02 44.9628 78.3309 44.9628C45.6415 44.9628 19.1416 73.7851 19.1416 109.339C19.1416 144.893 45.6415 173.716 78.3309 173.716Z" fill="#FF6584"/>
<path d="M117.801 162.448C118.282 161.323 116.714 159.423 114.301 158.205C111.888 156.986 109.542 156.91 109.062 158.035C108.582 159.16 110.149 161.06 112.562 162.278C114.976 163.497 117.321 163.573 117.801 162.448Z" fill="#FBBEBE"/>
</g>
<defs>
<filter id="filter0_d" x="0" y="0" width="699" height="580" filterUnits="userSpaceOnUse" color-interpolation-filters="sRGB">
<feFlood flood-opacity="0" result="BackgroundImageFix"/>
<feColorMatrix in="SourceAlpha" type="matrix" values="0 0 0 0 0 0 0 0 0 0 0 0 0 0 0 0 0 0 127 0"/>
<feOffset dy="4"/>
<feGaussianBlur stdDeviation="2"/>
<feColorMatrix type="matrix" values="0 0 0 0 0 0 0 0 0 0 0 0 0 0 0 0 0 0 0.25 0"/>
<feBlend mode="normal" in2="BackgroundImageFix" result="effect1_dropShadow"/>
<feBlend mode="normal" in="SourceGraphic" in2="effect1_dropShadow" result="shape"/>
</filter>
<clipPath id="clip0">
<rect width="691" height="572" fill="white" transform="translate(4)"/>
</clipPath>
</defs>
</svg>
