<svg width="1200" height="1200" viewBox="0 0 1200 1200" fill="none" xmlns="http://www.w3.org/2000/svg">
<circle cx="600" cy="600" r="600" fill="#9FEDD7" fill-opacity="0.75"/>
<circle cx="600" cy="600" r="480" fill="#FEF9C7" fill-opacity="0.85"/>
<g clip-path="url(#clip0)">
<path d="M678.939 557.84H393.523V632.349H678.939V557.84Z" fill="#565661"/>
<path opacity="0.1" d="M678.939 557.84H393.523V632.349H678.939V557.84Z" fill="black"/>
<path d="M427.671 634.801L429.675 833.714L402.223 911.844L400.099 634.801H427.671Z" fill="#BCBEC9"/>
<path d="M396.534 572.145L674.418 574.029V629.522H396.534V572.145Z" fill="#565661"/>
<path d="M650.643 634.801L674.418 638.581V908.825L650.643 826.165V634.801Z" fill="#BCBEC9"/>
<path d="M817.373 560.826H683.451V881.658H817.373V560.826Z" fill="#EFEFF0"/>
<path d="M806.659 569.738H694.166V816.356H806.659V569.738Z" fill="#565661"/>
<path opacity="0.1" d="M806.659 569.738H694.166V816.356H806.659V569.738Z" fill="black"/>
<path d="M806.659 574.79H694.166V629.522H806.659V574.79Z" fill="#565661"/>
<path d="M806.659 634.801H694.166V751.054H806.659V634.801Z" fill="#565661"/>
<path d="M806.659 758.229H694.166V874.483H806.659V758.229Z" fill="#565661"/>
<path opacity="0.1" d="M806.659 758.229H694.166V874.483H806.659V758.229Z" fill="black"/>
<path d="M698.858 902.547C702.862 902.547 706.108 897.871 706.108 892.103C706.108 886.334 702.862 881.658 698.858 881.658C694.854 881.658 691.607 886.334 691.607 892.103C691.607 897.871 694.854 902.547 698.858 902.547Z" fill="#565661"/>
<path d="M799.408 903.046C803.412 903.046 806.658 898.37 806.658 892.602C806.658 886.833 803.412 882.157 799.408 882.157C795.403 882.157 792.157 886.833 792.157 892.602C792.157 898.37 795.403 903.046 799.408 903.046Z" fill="#565661"/>
<path d="M392.516 911.845H402.224L399.555 563.607H384.812L392.516 911.845Z" fill="#EFEFF0"/>
<path d="M674.418 560.826V908.825H683.451V563.608L674.418 560.826Z" fill="#EFEFF0"/>
<path d="M400.028 626.116V638.582H674.418V629.522L400.028 626.116Z" fill="#EFEFF0"/>
<path d="M418.628 537.428H766.489L817.04 556.296V567.24L383.141 563.471V552.334L418.628 537.428Z" fill="white"/>
<path d="M383.141 552.334L817.04 556.296V567.24L383.141 563.471V552.334Z" fill="#BCBEC9"/>
<path d="M422.444 682.12L420.43 681.78C420.43 681.677 420.43 681.587 420.43 681.496C420.37 680.962 420.299 680.44 420.229 679.906C421.055 680.644 421.84 681.382 422.565 682.12H422.444Z" fill="url(#paint0_linear)"/>
<path d="M378.68 857.42C379.989 857.079 381.318 856.795 382.647 856.591C391.776 855.125 401.087 856.671 409.454 861.041C408.608 868.057 407.772 875.312 409.565 882.09C410.813 886.858 413.321 891.172 413.854 896.144C415.199 896.405 416.453 897.083 417.476 898.101C418.498 899.12 419.249 900.439 419.645 901.912C420.031 903.214 420.225 904.58 420.219 905.953C420.207 907.653 420.018 909.345 419.655 910.994C419.532 912.311 418.959 913.523 418.056 914.371C417.153 915.219 415.993 915.637 414.821 915.535C407.027 916.534 399.384 913.072 392.133 909.677L378.035 903.07C376.384 902.298 374.722 901.514 373.141 900.561C370.142 898.734 367.48 896.28 365.296 893.329C364.835 892.802 364.511 892.142 364.36 891.422C364.098 889.423 366.173 888.231 367.492 886.88C367.878 886.469 368.217 886.003 368.499 885.495C370.06 882.839 370.211 879.172 371.147 876.038C373.363 868.602 380.21 863.811 382.627 856.557C382.758 856.16 382.879 855.762 382.98 855.354" fill="#A26565"/>
<path opacity="0.1" d="M420.219 905.953C420.208 907.652 420.018 909.344 419.655 910.994C419.532 912.311 418.959 913.523 418.056 914.371C417.153 915.219 415.993 915.637 414.821 915.535C407.027 916.534 399.384 913.071 392.133 909.677L378.035 903.069C376.384 902.297 374.722 901.514 373.141 900.56C370.142 898.734 367.48 896.279 365.296 893.329C364.835 892.802 364.511 892.142 364.36 891.421C364.098 889.423 366.173 888.231 367.492 886.88C367.878 886.468 368.217 886.003 368.499 885.495C372.386 886.437 377.209 889.196 380.18 890.263C383.156 891.177 386.013 892.524 388.679 894.271C392.385 896.95 395.054 901.083 398.195 904.488C401.337 907.894 405.396 910.994 409.776 910.574C412.092 910.18 414.324 909.31 416.362 908.008L420.219 905.953Z" fill="black"/>
<path d="M403.714 744.618C403.976 745.648 403.952 746.744 403.646 747.758C403.34 748.773 402.766 749.658 402.002 750.294C400.683 751.214 398.981 751.089 397.672 752.088C396.05 753.371 395.819 755.914 395.537 758.116C394.53 765.689 391.197 772.557 388.347 779.516C385.497 786.476 383.09 794.071 384.138 801.632C384.853 806.763 387.088 812.235 384.993 816.856C384.48 817.991 383.715 819.002 383.131 820.103C380.261 825.507 381.892 832.353 381.781 838.642C381.823 839.34 381.687 840.038 381.388 840.652C380.948 841.232 380.407 841.703 379.797 842.037C378.775 842.884 377.935 843.98 377.341 845.244C376.746 846.508 376.412 847.907 376.363 849.336C376.279 852.195 376.584 855.052 377.27 857.806C377.381 858.917 377.816 859.956 378.508 860.757C379.31 861.355 380.257 861.656 381.217 861.62C387.544 862.198 393.75 863.899 399.605 866.661C403.422 868.455 407.127 870.703 411.186 871.565C411.578 871.703 411.991 871.748 412.4 871.7C412.809 871.651 413.204 871.509 413.562 871.282C414.073 870.762 414.425 870.075 414.569 869.318C416.13 863.528 417.711 857.556 417.177 851.539C416.946 848.95 416.332 846.419 416.17 843.83C415.466 833.613 421.598 824.394 423.542 814.313C424.418 809.772 424.418 805.072 425.042 800.485C426.734 787.918 432.877 776.644 435.243 764.213C435.573 761.895 436.085 759.616 436.774 757.401C438.536 752.588 442.614 748.682 442.705 743.471C442.761 742.325 442.493 741.188 441.94 740.224C440.99 739.049 439.729 738.253 438.345 737.954C432.874 736.257 427.305 734.99 421.679 734.162C419.1 733.591 416.468 733.385 413.844 733.549C410.437 734 407.162 735.304 404.258 737.363C400.37 740.065 402.868 740.712 403.714 744.618Z" fill="#454B69"/>
<path opacity="0.05" d="M403.714 744.618C403.976 745.648 403.952 746.744 403.646 747.758C403.34 748.773 402.766 749.658 402.002 750.294C400.683 751.214 398.981 751.089 397.672 752.088C396.05 753.371 395.819 755.914 395.537 758.116C394.53 765.689 391.197 772.557 388.347 779.516C385.497 786.476 383.09 794.071 384.138 801.632C384.853 806.763 387.088 812.235 384.993 816.856C384.48 817.991 383.715 819.002 383.131 820.103C380.261 825.507 381.892 832.353 381.781 838.642C381.823 839.34 381.687 840.038 381.388 840.652C380.948 841.232 380.407 841.703 379.797 842.037C378.775 842.884 377.935 843.98 377.341 845.244C376.746 846.508 376.412 847.907 376.363 849.336C376.279 852.195 376.584 855.052 377.27 857.806C377.381 858.917 377.816 859.956 378.508 860.757C379.31 861.355 380.257 861.656 381.217 861.62C387.544 862.198 393.75 863.899 399.605 866.661C403.422 868.455 407.127 870.703 411.186 871.565C411.578 871.703 411.991 871.748 412.4 871.7C412.809 871.651 413.204 871.509 413.562 871.282C414.073 870.762 414.425 870.075 414.569 869.318C416.13 863.528 417.711 857.556 417.177 851.539C416.946 848.95 416.332 846.419 416.17 843.83C415.466 833.613 421.598 824.394 423.542 814.313C424.418 809.772 424.418 805.072 425.042 800.485C426.734 787.918 432.877 776.644 435.243 764.213C435.573 761.895 436.085 759.616 436.774 757.401C438.536 752.588 442.614 748.682 442.705 743.471C442.761 742.325 442.493 741.188 441.94 740.224C440.99 739.049 439.729 738.253 438.345 737.954C432.874 736.257 427.305 734.99 421.679 734.162C419.1 733.591 416.468 733.385 413.844 733.549C410.437 734 407.162 735.304 404.258 737.363C400.37 740.065 402.868 740.712 403.714 744.618Z" fill="black"/>
<path d="M384.007 915.717H375.417L369.798 785.568L369.405 778.165L376.706 775.271L377.2 783.138L384.007 915.717Z" fill="#565661"/>
<path opacity="0.1" d="M377.2 783.138L369.798 785.568L369.405 778.165L376.706 775.271L377.2 783.138Z" fill="black"/>
<path d="M491.787 943.247L477.618 945.177L412.344 778.165L394.741 776.712L363.826 786.884L357.814 985.729H343.646L349.225 779.618L315.298 780.594L254.757 950.501H241.877L305.551 751.928L308.008 744.276L402.898 740.609L426.553 755.561L426.855 756.424L491.787 943.247Z" fill="#565661"/>
<path opacity="0.1" d="M426.855 756.424C406.463 763.349 385.296 770.91 385.296 770.91C385.296 770.91 365.991 778.505 357.815 770.91C356.783 770.003 355.631 769.287 354.401 768.787C355.462 769.642 356.607 770.354 357.815 770.91L305.551 751.917L307.998 744.276L402.898 740.609L426.553 755.561L426.855 756.424Z" fill="black"/>
<path d="M330.333 723.468L368.972 713.784C368.972 713.784 461.295 733.152 468.162 740.895C468.162 740.895 394.308 757.833 386.152 763.6C377.995 769.368 329.467 775.748 330.333 723.468Z" fill="white"/>
<path d="M313.718 614.604C310.697 625.4 302.449 635.13 292.409 635.595C291.679 635.692 290.939 635.542 290.285 635.164C289.026 634.278 288.996 632.201 289.509 630.623C290.023 629.045 290.919 627.626 291.06 625.968C291.09 625.63 291.07 625.288 290.999 624.958C290.738 623.607 289.761 622.403 288.613 622.687C289.395 621.982 289.915 620.974 290.074 619.859C290.232 618.745 290.016 617.604 289.469 616.659C289.013 616.079 288.602 615.456 288.24 614.797C287.404 612.867 288.704 610.698 289.247 608.632C290.365 604.091 287.525 599.55 287.294 594.816C287.092 590.581 288.996 586.596 289.469 582.396C290.224 575.584 287.223 569.056 286.871 562.256C286.629 557.51 287.666 552.81 288.824 548.235C289.831 544.148 290.969 540.016 291.04 535.747C291.04 532.648 290.566 529.582 290.436 526.494C290.227 523.671 290.682 520.836 291.755 518.275C292.452 516.769 293.639 515.625 295.068 515.085C298.371 513.836 300.536 515.777 301.019 519.308C301.825 525.314 301.362 531.444 302.419 537.473C303.397 543.11 304.878 548.622 306.84 553.923C308.622 558.714 310.787 563.346 312.157 568.307C313.188 572.396 313.925 576.572 314.362 580.795C315.711 592.137 316.769 603.807 313.718 614.604Z" fill="#9FEDD7"/>
<path d="M543.074 889.389C541.8 891.413 540.161 893.111 538.264 894.371C536.367 895.631 534.255 896.425 532.067 896.7C527.697 897.313 523.155 896.076 518.916 897.427C518.259 897.549 517.64 897.852 517.112 898.309C516.585 898.767 516.167 899.365 515.895 900.049C515.79 900.972 515.726 901.9 515.703 902.831C515.21 905.862 511.675 906.543 508.926 906.52L497.587 906.441C495.231 906.441 492.623 906.293 490.931 904.454C490.126 903.45 489.673 902.15 489.654 900.797C489.636 899.444 490.054 898.129 490.83 897.097C491.182 896.628 491.613 896.242 492.099 895.962C491.391 895.698 490.762 895.217 490.282 894.574C489.802 893.931 489.49 893.15 489.38 892.318C489.174 890.649 489.246 888.951 489.592 887.311C489.592 882.566 490.599 874.619 493.559 870.906C497.194 866.286 503.498 860.314 508.987 859.077C510.84 858.676 512.75 858.77 514.566 859.352C516.381 859.934 518.05 860.986 519.439 862.426C522.037 865.151 523.931 869.419 527.495 869.896C529.439 870.168 531.312 869.135 533.235 868.761C535.421 868.443 537.641 868.896 539.59 870.057C541.538 871.217 543.121 873.029 544.121 875.243C544.609 876.366 544.948 877.563 545.128 878.797C545.66 882.493 544.926 886.28 543.074 889.389Z" fill="#A26565"/>
<path opacity="0.1" d="M543.074 889.389C541.8 891.414 540.161 893.112 538.264 894.372C536.367 895.632 534.255 896.425 532.067 896.701C527.697 897.314 523.155 896.076 518.916 897.427C518.259 897.549 517.64 897.852 517.113 898.31C516.585 898.768 516.167 899.365 515.895 900.05C515.79 900.973 515.726 901.901 515.703 902.831C515.21 905.862 511.675 906.544 508.926 906.521L497.587 906.441C495.231 906.441 492.623 906.294 490.931 904.455C490.127 903.45 489.673 902.151 489.654 900.798C489.636 899.445 490.054 898.13 490.83 897.098C497.376 896.792 503.811 897.098 510.336 895.577C512.984 894.975 515.593 894.18 518.271 893.76C524.072 892.829 530.245 893.624 535.572 890.854C540.013 888.583 543.195 883.963 545.078 878.809C545.622 882.494 544.906 886.276 543.074 889.389V889.389Z" fill="black"/>
<path d="M513.155 871.441C509.127 874.96 504.404 877.707 499.329 878.003C494.254 878.298 488.866 875.732 486.379 870.759C482.744 863.46 485.966 853.31 481.515 846.612C480.126 844.512 478.122 843.024 476.651 840.992C475.181 838.96 474.335 835.906 475.644 833.749C474.063 834.43 472.392 832.705 471.928 830.866C471.465 829.026 471.757 827.051 471.475 825.189C470.74 820.251 466.44 817.083 464.376 812.701C462.312 808.319 462.594 802.631 462.362 797.443C461.847 784.802 457.673 772.7 450.479 762.987C449.11 761.148 447.357 759.274 445.223 759.365C445.595 755.21 443.138 751.237 439.956 749.148C436.774 747.059 432.987 746.355 429.302 745.946C392.113 741.814 353.363 757.401 317.856 744.289C307.977 740.644 298.451 734.548 292.409 724.989C290.056 721.351 288.372 717.218 287.457 712.835C286.542 708.452 286.415 703.907 287.082 699.468V699.309C288.482 691.248 292.258 689.261 298.512 685.583C305.731 681.28 313.276 677.713 321.059 674.923C336.164 669.598 352.427 667.68 368.015 671.585C375.296 673.424 382.315 676.467 389.606 678.249C392.476 678.953 395.366 679.452 398.276 679.872C402.797 680.508 407.339 680.928 411.891 681.519C426.445 683.408 440.778 687.043 454.648 692.361C459.814 694.336 464.98 696.595 469.421 700.171C472.934 703.047 475.904 706.683 478.158 710.865C480.413 715.048 481.906 719.695 482.552 724.535C482.975 727.872 482.985 731.346 483.63 734.582C484.241 737.301 485.049 739.959 486.047 742.529C494.651 766.513 501.682 791.177 507.083 816.323C507.389 818.19 507.957 819.991 508.765 821.658C510.054 824.008 512.269 825.586 513.568 827.937C516.589 833.477 513.679 841.208 516.358 846.975C517.284 848.973 518.825 850.551 519.751 852.55C522.772 859.1 518.311 866.934 513.155 871.441Z" fill="#454B69"/>
<path opacity="0.1" d="M461.698 740.996C463.129 739.718 464.364 738.184 465.353 736.454C466.345 734.716 466.739 732.628 466.461 730.585C466.853 733.17 466.704 735.822 466.023 738.33C465.343 740.838 464.151 743.131 462.544 745.026C460.016 747.943 455.273 750.804 451.577 749.805C452.101 746.468 459.351 743.243 461.698 740.996Z" fill="black"/>
<path opacity="0.1" d="M398.78 684.414C398.475 685.631 397.908 686.743 397.127 687.651C396.346 688.558 395.378 689.233 394.308 689.613C392.161 690.353 389.913 690.649 387.672 690.487H385.658C359.234 689.829 332.528 683.222 306.719 689.522C303.608 690.245 300.556 691.259 297.595 692.554C293.823 694.23 290.29 696.525 287.112 699.365V699.206C288.512 691.146 292.288 689.159 298.542 685.481C305.755 681.215 313.29 677.682 321.059 674.923C336.164 669.598 352.427 667.68 368.015 671.585C375.296 673.424 382.315 676.467 389.606 678.249C392.476 678.953 395.366 679.452 398.276 679.872C398.84 681.296 399.016 682.877 398.78 684.414V684.414Z" fill="black"/>
<path d="M398.78 682.789C398.478 684.009 397.911 685.124 397.13 686.034C396.349 686.944 395.379 687.62 394.308 688C392.162 688.742 389.912 689.035 387.672 688.863H385.658C359.234 688.205 332.528 681.597 306.719 687.898C303.61 688.623 300.558 689.633 297.595 690.918C293.644 692.694 289.959 695.145 286.669 698.184C285.897 695.792 285.129 693.397 284.363 690.998C283.437 688.137 286.377 687.501 286.941 684.935C287.314 683.198 286.679 681.223 286.357 679.372C286.274 678.919 286.221 678.46 286.196 677.999C286.015 673.9 287.314 671.539 290.295 669.325C299.136 662.74 309.921 658.222 320.011 654.827C325.376 652.915 330.917 651.704 336.526 651.217C344.462 650.695 352.387 652.353 360.11 654.453C369.607 657.098 379.002 660.595 387.421 666.192C391.549 668.905 395.577 672.311 397.803 677.147C398.691 678.847 399.036 680.838 398.78 682.789Z" fill="#A26565"/>
<path opacity="0.1" d="M313.718 614.605C310.697 625.401 302.449 635.13 292.409 635.596C291.679 635.692 290.939 635.542 290.285 635.165C289.026 634.279 288.996 632.201 289.509 630.623C290.023 629.045 290.919 627.626 291.06 625.969C291.09 625.63 291.07 625.289 290.999 624.958C296.327 616.489 301.493 607.929 303.537 597.904C303.951 596.178 304.077 594.381 303.909 592.603C303.637 590.559 302.721 588.709 302.218 586.733C301.331 583.237 301.744 579.536 301.996 575.914C303.045 559.967 300.682 543.969 295.108 529.265C293.749 525.723 292.198 522.135 291.725 518.355C292.422 516.849 293.609 515.706 295.038 515.165C298.341 513.916 300.506 515.857 300.989 519.388C301.795 525.394 301.331 531.524 302.389 537.553C303.366 543.19 304.848 548.702 306.81 554.003C308.592 558.794 310.757 563.426 312.127 568.387C313.158 572.476 313.895 576.652 314.332 580.875C315.711 592.137 316.769 603.808 313.718 614.605Z" fill="black"/>
<path opacity="0.1" d="M398.779 682.79C398.478 684.009 397.911 685.125 397.13 686.035C396.349 686.945 395.379 687.621 394.308 688.001C392.161 688.743 389.912 689.035 387.672 688.864H385.658C377.056 682.423 366.715 679.609 356.455 680.917C353.172 681.36 349.889 682.222 346.606 681.882C339.97 681.201 334.593 675.819 328.682 672.379C321.955 668.635 314.39 667.242 306.956 668.379C299.523 669.516 292.56 673.131 286.961 678.76L286.387 679.327C286.305 678.874 286.251 678.415 286.226 677.954C286.045 673.855 287.344 671.494 290.325 669.28C299.166 662.695 309.951 658.177 320.041 654.782C325.406 652.871 330.947 651.659 336.556 651.172C344.492 650.65 352.417 652.308 360.14 654.408C369.637 657.053 379.032 660.55 387.451 666.147C391.549 668.905 395.577 672.311 397.803 677.148C398.691 678.847 399.035 680.839 398.779 682.79Z" fill="black"/>
<path d="M421.367 558.43L421.226 558.839C418.97 565.435 414.821 571.009 412.163 577.435C408.809 585.575 407.984 594.703 407.239 603.649C406.594 611.312 405.96 619.02 406.473 626.706C407.762 645.643 415.969 663.603 418.165 682.176C418.706 686.466 418.844 690.808 418.577 695.13C418.396 697.866 417.953 700.807 416.342 702.827C414.731 704.848 411.599 705.643 409.867 703.702C410.642 702.033 411.428 700.375 412.213 698.706C407.611 694.676 400.683 697.571 395.306 695.051C392.939 693.915 391.046 691.872 389.062 690.044C384.534 685.894 379.317 682.806 373.715 680.961C368.114 679.117 362.242 678.554 356.445 679.304C353.162 679.758 349.879 680.621 346.597 680.281C339.96 679.588 334.583 674.218 328.672 670.778C321.946 667.035 314.381 665.642 306.949 666.777C299.516 667.911 292.552 671.522 286.951 677.147C285.542 678.623 283.648 680.349 281.916 679.418C281.247 678.956 280.706 678.291 280.355 677.499C273.76 664.795 278.613 648.413 285.662 636.038C292.712 623.664 302.046 612.254 304.947 597.916C305.365 596.19 305.492 594.392 305.319 592.614C305.047 590.57 304.131 588.72 303.627 586.744C302.741 583.248 303.154 579.547 303.406 575.925C304.462 559.976 302.107 543.974 296.538 529.265C294.927 525.03 293.014 520.739 293.014 516.141C293.014 508.898 297.616 502.892 301.422 497.068C305.803 490.37 309.478 482.956 315.027 477.45C320.283 472.217 327.896 469.015 334.402 471.672C345.455 468.646 356.833 467.397 368.197 467.959C372.124 468.164 376.182 468.629 379.626 470.775C383.312 473.045 385.96 477.087 389.586 479.505C392.234 481.288 395.285 482.128 398.165 483.376C406.118 486.878 412.683 493.497 416.654 502.018C420.682 510.816 421.689 520.932 422.575 530.786C423.421 540.061 424.227 549.7 421.367 558.43Z" fill="#9FEDD7"/>
<path opacity="0.1" d="M406.473 626.706C407.762 645.643 415.969 663.603 418.164 682.176C413.774 677.987 407.661 673.775 406.846 668.905C405.939 663.637 403.039 656.735 402.556 651.41C402.072 646.086 405.385 639.58 401.911 635.925C400.219 634.142 404.721 634.642 403.069 632.814C399.353 628.738 398.437 622.46 398.205 616.636C397.813 606.328 398.971 595.906 397.289 585.768C396.282 579.512 394.177 573.552 392.496 567.478C390.542 560.406 389.132 553.163 387.722 545.908C386.335 539.458 385.326 532.912 384.701 526.313C384.268 520.637 384.47 514.62 386.715 509.443C388.961 504.266 393.503 500.065 398.598 500.145C415.637 500.394 412.696 526.438 416.442 538.472C417.943 543.263 419.967 547.895 420.782 552.89C421.08 554.848 421.242 556.83 421.266 558.816C419.01 565.412 414.861 570.986 412.203 577.412C408.849 585.552 408.024 594.68 407.279 603.626C406.594 611.312 405.959 619.02 406.473 626.706Z" fill="black"/>
<path d="M417.55 538.176C419.051 542.967 421.075 547.599 421.891 552.594C423.25 560.962 421.145 569.851 423.431 577.957C424.026 579.687 424.524 581.458 424.922 583.259C425.314 585.836 424.861 588.47 424.861 591.092C424.861 595.315 426.039 599.402 427.087 603.455C430.628 617.228 432.972 631.357 434.085 645.643C434.252 649.481 434.789 653.288 435.687 656.995C436.109 658.252 436.473 659.533 436.774 660.833C437.045 662.567 437.109 664.335 436.965 666.089C436.694 671.652 436.14 677.238 436.694 682.778C437.247 688.318 439.04 693.938 442.736 697.65C439.433 698.456 435.938 699.262 432.716 698.07C428.184 696.401 425.465 691.258 423.159 686.581C420.239 680.609 409.142 675.228 407.994 668.519C407.098 663.262 404.197 656.36 403.714 651.024C403.231 645.688 406.534 639.205 403.059 635.55C401.378 633.767 405.879 634.256 404.218 632.439C400.512 628.363 399.595 622.085 399.364 616.25C398.971 605.953 400.119 595.531 398.447 585.393C397.44 579.137 395.336 573.177 393.654 567.092C391.7 560.031 390.291 552.787 388.881 545.522C387.489 539.073 386.48 532.527 385.86 525.927C385.427 520.25 385.618 514.222 387.874 509.045C390.129 503.868 394.671 499.679 399.756 499.747C416.725 500.087 413.804 526.142 417.55 538.176Z" fill="#9FEDD7"/>
<path opacity="0.1" d="M368.992 542.616C370.583 544.716 372.627 547.02 375.034 546.612C374.851 546.938 374.562 547.171 374.229 547.26C373.896 547.349 373.545 547.288 373.252 547.089C372.674 546.657 372.211 546.057 371.912 545.352L368.468 538.801C368.015 537.949 364.893 532.988 364.128 535.849C363.826 537.064 368.217 541.594 368.992 542.616Z" fill="black"/>
<path opacity="0.1" d="M367.139 558.953C367.04 556.812 366.24 554.789 364.894 553.276C363.683 552.038 362.271 551.078 360.735 550.449C356.958 548.701 352.487 547.293 348.389 547.52C349.879 549.972 354.662 551.437 357.059 552.822C360.456 554.797 363.816 556.841 367.139 558.953Z" fill="black"/>
<path opacity="0.1" d="M377.864 605.454C377.169 611.267 372.95 615.671 368.68 619.077C364.41 622.483 359.617 625.412 356.827 630.339C354.894 633.745 354.028 637.696 352.386 641.249C350.574 645.166 347.865 648.458 345.7 652.137C343.535 655.815 341.843 660.209 342.508 664.568C342.517 664.769 342.563 664.965 342.643 665.145C342.723 665.324 342.834 665.484 342.971 665.613C343.178 665.711 343.405 665.749 343.629 665.721C343.853 665.693 344.066 665.601 344.25 665.454C348.64 662.865 350.372 656.95 352.215 651.83C354.15 646.662 356.328 641.614 358.741 636.708C359.828 634.438 361.027 631.963 363.051 630.703C364.437 630.052 365.856 629.494 367.3 629.034C369.35 627.974 371.147 626.383 372.547 624.39C378.044 616.997 380.914 607.568 380.603 597.927C380.542 595.895 380.442 586.109 377.733 589.128C375.024 592.148 378.327 601.503 377.864 605.454Z" fill="black"/>
<path d="M384.5 382.517C393.16 386.775 400.612 396.141 400.34 406.756C400.109 417.904 391.831 428.406 394.681 439.089C396.332 445.287 401.307 449.442 405.244 454.154C420.239 472.046 420.209 503.278 405.164 521.136C399.404 527.948 392.002 532.795 385.91 539.3C364.43 562.12 363.514 601.594 375.014 632.235C366.203 634.383 357.222 635.524 348.207 635.641C343.988 635.641 338.822 634.835 337.291 630.396C335.882 626.297 338.298 620.757 335.519 617.726C334.21 616.307 332.246 616.114 330.484 615.785C319.145 613.718 309.84 603.512 305.591 591.489C301.341 579.467 301.563 565.934 304 553.287C305.732 544.148 308.441 534.089 304.423 525.915C299.388 515.63 284.907 511.293 285.128 499.531C285.31 489.893 295.39 485.204 301.11 478.04C311.663 464.848 306.638 444.379 306.618 426.601C306.618 410.956 311.472 394.813 321.804 384.391C337.171 368.758 366.767 373.832 384.5 382.517Z" fill="#A26565"/>
<g opacity="0.1">
<path opacity="0.1" d="M306.074 514.257C301.654 505.266 290.043 500.816 287.344 491.972C285.994 494.036 285.235 496.515 285.169 499.079C284.947 510.84 299.408 515.177 304.463 525.474C306.123 529.119 306.822 533.224 306.477 537.304C308.068 529.402 309.468 521.16 306.074 514.257Z" fill="black"/>
<path opacity="0.1" d="M395.839 424.535C397.652 418.575 400.28 412.558 400.411 406.371C400.43 405.7 400.413 405.029 400.361 404.361C398.337 411.196 395.235 417.826 395.839 424.535Z" fill="black"/>
<path opacity="0.1" d="M307.807 456.289C311.271 443.949 308.28 428.645 308.27 414.954C308.27 413.296 308.33 411.627 308.441 409.97C307.248 415.261 306.646 420.699 306.648 426.159C306.669 435.934 308.189 446.537 307.807 456.289Z" fill="black"/>
<path opacity="0.1" d="M406.846 509.522C401.086 516.334 393.684 521.182 387.592 527.687C376.716 539.233 371.127 555.047 369.728 571.816C372.326 559.327 377.572 547.827 385.981 538.892C392.023 532.421 399.475 527.596 405.235 520.728C412.086 512.31 416.065 501.423 416.463 490.007C414.724 497.302 411.421 504.004 406.846 509.522V509.522Z" fill="black"/>
<path opacity="0.1" d="M349.89 623.994C345.67 623.994 340.504 623.177 338.974 618.738C337.564 614.651 339.981 609.11 337.201 606.068C335.892 604.649 333.918 604.456 332.166 604.127C320.837 602.072 311.533 591.854 307.283 579.843C304.151 570.965 303.477 561.281 304.262 551.722C304.181 552.096 304.111 552.471 304.04 552.857C301.644 565.504 301.392 579.048 305.632 591.071C309.871 603.093 319.186 613.3 330.515 615.354C332.307 615.684 334.281 615.888 335.55 617.296C338.359 620.338 335.912 625.879 337.322 629.966C338.853 634.405 344.019 635.279 348.238 635.222C357.252 635.105 366.233 633.964 375.045 631.816C373.802 628.504 372.716 625.12 371.792 621.678C364.56 623.127 357.234 623.902 349.89 623.994V623.994Z" fill="black"/>
</g>
<path opacity="0.1" d="M382.869 574.483C385.356 576.595 388.055 568.546 386.514 566.536C386.102 567.058 382.486 574.188 382.869 574.483Z" fill="black"/>
<path opacity="0.1" d="M393.473 720.185C396.403 719.05 399.515 717.915 401.428 715.19C403.009 712.999 404.308 704.303 400.965 708.469C398.125 712.045 396.786 716.757 393.473 720.185Z" fill="black"/>
<path opacity="0.1" d="M423.31 711.071C422.958 713.75 422.303 716.531 420.622 718.461C420.309 718.825 419.615 719.052 419.524 718.564C421.402 717.436 423.148 716.048 424.72 714.431C428.124 710.628 428.587 701.262 423.401 698.775C423.351 702.885 423.864 706.893 423.31 711.071Z" fill="black"/>
<path d="M459.129 694.189C459.129 694.189 430.551 681.53 420.219 682.836C409.887 684.141 431.92 702.499 431.92 702.499L445.092 712.512C445.092 712.512 453.148 709.106 453.682 708.845C454.215 708.584 459.129 694.189 459.129 694.189Z" fill="#454B69"/>
<path d="M262.491 558.385C262.491 558.385 283.961 544.353 312.298 561.791C340.635 579.229 345.358 681.847 345.358 681.847C345.358 681.847 333.767 786.396 378.458 763.134C378.458 763.134 460.026 734.581 468.193 740.871C468.193 740.871 475.927 740.871 460.469 744.742C445.011 748.613 385.296 769.945 385.296 769.945C385.296 769.945 365.992 777.552 357.815 769.945C349.638 762.339 326.466 770.922 323.455 718.63C321.463 685.678 317.879 652.873 312.721 620.36L304.755 593.738L262.491 558.385Z" fill="#565661"/>
<path d="M259.913 720.073C259.913 720.073 269.359 614.06 253.871 575.812C240.398 542.48 292.5 558.068 306.095 562.609C308.199 563.318 310.034 564.796 311.311 566.809C319.367 579.581 348.268 630.771 339.749 699.263C339.749 699.263 336.315 760.262 357.785 769.935L291.634 745.912C286.267 743.959 280.819 742.336 275.321 740.928C268.312 739.134 256.892 734.037 259.913 720.073Z" fill="white"/>
<path d="M730.397 917.987H738.987L744.616 787.838L744.999 780.436L737.698 777.541L737.215 785.409L730.397 917.987Z" fill="#565661"/>
<path opacity="0.1" d="M737.215 785.408L744.616 787.838L744.999 780.436L737.698 777.541L737.215 785.408Z" fill="black"/>
<path d="M658.678 867.728C658.467 869.51 658.061 871.257 657.47 872.927C656.859 875.109 655.549 876.955 653.794 878.104C652.616 878.653 651.353 878.934 650.078 878.933C645.335 879.251 640.32 879.171 636.242 876.447C634.505 875.185 632.912 873.686 631.499 871.985C622.334 861.719 614.003 850.549 606.606 838.607C605.367 836.598 604.088 834.225 604.642 831.796C614.225 828.799 623.324 824.105 631.6 817.888C632.742 816.901 634.021 816.133 635.386 815.618C637.723 815.055 640.129 814.955 642.496 815.323C644.782 815.743 644.882 815.822 645.758 818.729C647.208 823.644 646.967 828.946 648.598 833.862C649.634 836.578 650.895 839.179 652.364 841.627C656.574 849.563 659.806 858.929 658.678 867.728Z" fill="#A26565"/>
<path opacity="0.1" d="M658.678 867.728C658.467 869.511 658.061 871.257 657.47 872.928C656.859 875.109 655.549 876.955 653.794 878.105C652.616 878.653 651.353 878.935 650.078 878.933C645.335 879.251 640.32 879.172 636.242 876.447C634.505 875.185 632.912 873.687 631.499 871.985C622.334 861.72 614.003 850.549 606.606 838.608C605.367 836.599 604.088 834.226 604.642 831.796C607.768 830.82 610.847 829.66 613.866 828.322L614.017 828.447C617.109 830.933 619.355 834.498 621.54 837.995L628.589 849.177C629.845 851.374 631.329 853.394 633.01 855.195C635.093 857.079 637.393 858.638 639.847 859.826C643.16 861.632 646.473 863.437 649.917 864.89C652.143 865.9 655.909 866.298 658.678 867.728Z" fill="black"/>
<path d="M665.184 746.49C664.49 748.377 663.647 750.189 662.666 751.906C653.306 769.625 646.086 788.673 641.197 808.545C639.807 808.193 639.021 810.327 639.032 811.951C639.042 813.574 639.032 815.618 637.702 816.208C637.31 816.379 636.866 816.379 636.484 816.572C635.638 817.003 635.396 818.218 635.275 819.262L634.087 829.094C633.674 832.5 633.312 836.189 634.792 839.198C635.813 840.986 637.138 842.529 638.689 843.739L658.346 861.222C659.152 861.938 660.148 862.698 661.115 862.301C663.321 861.393 661.367 856.942 663.129 855.137C664.297 853.9 666.15 854.831 667.772 854.683C669.886 854.501 671.487 852.31 672.021 850.006C672.396 847.659 672.433 845.259 672.132 842.899C671.999 841.822 672.11 840.724 672.454 839.709C673.055 838.632 673.881 837.739 674.861 837.109C678.272 834.301 681.02 830.593 682.865 826.31C684.71 822.027 685.596 817.3 685.445 812.541C685.285 811.093 685.332 809.625 685.586 808.193C685.995 806.883 686.613 805.667 687.408 804.606C694.548 793.718 700.499 781.9 706.41 770.104C709.814 763.293 713.278 756.379 714.467 748.704C714.57 748.419 714.612 748.11 714.591 747.803C714.57 747.495 714.486 747.198 714.345 746.933C714.205 746.669 714.011 746.445 713.781 746.28C713.55 746.114 713.288 746.011 713.016 745.98C710.068 744.942 707.06 744.13 704.014 743.55C694.759 741.438 685.827 738.18 676.825 735.047C667.822 731.913 667.892 738.294 665.184 746.49Z" fill="#454B69"/>
<path d="M622.617 945.517L636.796 947.447L702.06 780.435L719.663 778.982L750.588 789.154L756.59 987.999H770.758L765.179 781.888L799.105 782.865L859.647 952.771H872.526L808.853 754.199L806.406 746.547L711.506 742.88L687.851 757.832L687.549 758.694L622.617 945.517Z" fill="#565661"/>
<path opacity="0.1" d="M687.549 758.694C707.941 765.62 729.109 773.181 729.109 773.181C729.109 773.181 748.413 780.776 756.59 773.181C757.621 772.274 758.773 771.557 760.004 771.058C758.942 771.912 757.797 772.625 756.59 773.181L808.854 754.187L806.437 746.547L711.536 742.88L687.882 757.832L687.549 758.694Z" fill="black"/>
<path d="M784.071 725.738L745.432 716.054C745.432 716.054 653.109 735.422 646.242 743.164C646.242 743.164 720.096 760.103 728.252 765.87C736.409 771.637 784.937 778.018 784.071 725.738Z" fill="white"/>
<path d="M640.693 881.363C638.367 886.358 632.637 887.766 627.602 887.845C620.611 887.943 613.668 886.544 607.14 883.724C603.414 882.112 599.839 880.034 595.992 878.854C590.262 877.083 583.908 877.23 578.873 873.677C576.203 871.67 573.996 868.972 572.438 865.809C572.146 865.253 571.864 864.674 571.602 864.084C569.196 858.805 568.078 852.663 569.417 846.964C570.756 841.264 575.62 834.986 581.26 835.077C587.956 835.191 595.942 838.767 602.407 840.617C610.463 842.888 618.519 845.51 625.638 850.313C631.6 854.354 636.867 860.156 639.676 867.24C640.216 868.606 640.661 870.018 641.005 871.463C641.881 874.733 642.083 878.377 640.693 881.363Z" fill="#A26565"/>
<path opacity="0.1" d="M640.693 881.363C638.367 886.358 632.637 887.766 627.602 887.846C620.612 887.943 613.668 886.545 607.14 883.724C603.414 882.112 599.839 880.035 595.992 878.854C590.262 877.083 583.908 877.231 578.873 873.677C576.203 871.67 573.997 868.973 572.438 865.81C572.146 865.253 571.864 864.674 571.603 864.084C572.61 864.175 573.536 864.288 574.039 864.345C580.223 865.015 586.124 867.558 592.025 869.477C600.217 872.144 608.676 873.632 617.2 873.904C623.242 874.097 629.546 873.598 634.823 870.271C636.398 869.151 638.033 868.138 639.717 867.24C640.257 868.607 640.701 870.019 641.046 871.463C641.882 874.733 642.083 878.377 640.693 881.363Z" fill="black"/>
<path d="M683.964 665.5C670.873 663.082 657.54 662.491 644.268 661.901L628.035 661.174C626.88 661.023 625.71 661.183 624.621 661.64C623.682 662.32 622.79 663.079 621.952 663.91C620.321 665.159 618.237 665.295 616.273 665.42C602.343 666.285 588.489 668.312 574.824 671.483C567.775 673.106 560.454 675.229 555.158 680.713C549.559 686.514 547.102 695.358 546.91 703.918C546.719 712.478 548.713 720.89 550.817 729.11C553.497 739.004 554.977 749.262 555.218 759.604C555.123 762.473 555.221 765.345 555.51 768.198C555.979 770.921 556.691 773.583 557.635 776.145L565.046 798.453C565.701 800.406 566.345 802.347 567.06 804.254C567.775 806.162 568.46 807.66 569.074 809.454C569.981 811.906 570.696 814.449 571.411 816.981L576.345 834.453L576.99 836.724C578.772 843.013 580.595 849.416 583.958 854.82C587.321 860.224 592.528 864.584 598.378 864.913C600.266 864.833 602.156 864.89 604.038 865.083C605.641 865.524 607.198 866.16 608.68 866.979C613.073 869.037 617.789 870.075 622.547 870.033C626.927 870.033 631.791 868.659 634.167 864.504C635.477 862.233 635.819 859.441 636.181 856.761C636.816 851.38 637.43 845.76 635.809 840.652C634.802 837.598 633.11 834.975 631.942 831.967C630.311 827.868 629.777 823.339 628.72 819.013C626.431 809.703 621.775 801.352 615.326 794.99C613.036 784.767 611.354 774.383 610.291 763.906C610.144 761.587 609.734 759.298 609.073 757.095C607.895 753.689 605.508 750.93 604.511 747.456C603.575 744.232 603.856 740.508 602.155 737.727C616.323 742.12 630.351 741.133 645.063 740.871C649.775 740.888 654.482 740.585 659.161 739.963C661.343 739.512 663.551 739.247 665.767 739.168C670.319 739.168 674.589 741.439 678.768 743.437C690.58 749.114 703.027 753.575 715.856 754.188C729.098 754.813 742.189 751.305 755.129 747.831C760.819 746.298 766.73 744.641 771.241 740.429C775.753 736.217 778.29 728.622 775.511 722.843C773.396 718.495 769.016 716.361 764.927 714.544C753.609 709.503 742.229 704.588 731.324 698.491C714.668 689.341 702.211 668.906 683.964 665.5Z" fill="#454B69"/>
<path d="M660.622 614.138C659.041 617.998 656.382 621.154 654.418 624.787C651.133 630.767 650.049 637.957 651.397 644.825C652.105 648.22 653.495 651.387 655.459 654.081C657.423 656.776 659.909 658.926 662.726 660.367C665.241 661.496 667.886 662.215 670.581 662.501C674.126 662.99 677.902 663.092 681.034 661.162C683.377 659.576 685.301 657.31 686.602 654.6C689.311 649.491 690.852 643.735 692.262 638.002C694.87 627.421 697.095 616.568 696.773 605.59C696.662 601.809 695.998 597.552 693.218 595.372C691.784 594.438 690.193 593.85 688.546 593.646L675.263 590.967C672.696 590.445 668.214 588.322 665.989 590.411C663.763 592.5 663.592 598.676 663.21 601.571C662.605 605.851 662.233 610.199 660.622 614.138Z" fill="#A1616A"/>
<path d="M822.076 570.226L818.601 603.058C817.882 608.914 817.469 614.813 817.363 620.724C817.363 624.016 817.453 627.672 815.52 630.135C814.574 631.256 813.377 632.068 812.056 632.485C807.836 633.961 803.234 632.644 799.206 630.612C796.85 629.477 794.443 627.83 793.376 625.185C792.756 623.351 792.498 621.387 792.621 619.429C792.621 599.846 794.262 579.422 803.335 562.733C804.109 561.096 805.2 559.675 806.527 558.578C809.045 556.761 812.338 557.272 815.188 558.26C816.94 558.862 821.673 559.532 822.791 561.291C823.908 563.051 822.317 567.967 822.076 570.226Z" fill="#A1616A"/>
<path d="M729.904 451.497C749.926 451.497 766.156 433.199 766.156 410.627C766.156 388.055 749.926 369.757 729.904 369.757C709.883 369.757 693.652 388.055 693.652 410.627C693.652 433.199 709.883 451.497 729.904 451.497Z" fill="#A1616A"/>
<path d="M720.207 471.536C720.076 474.716 719.308 477.821 717.961 480.618C736.47 477.439 754.932 473.897 773.346 469.992C767.237 466.451 762.617 460.329 760.497 452.963C759.496 449.012 758.947 444.934 758.866 440.826C758.573 434.313 758.685 427.784 759.198 421.288C752.753 422.049 746.651 424.773 740.508 427.112C734.332 429.465 728.049 431.447 721.687 433.05C718.616 433.822 715.524 434.48 712.422 435.093C708.797 435.82 707.055 435.808 709.573 439.396C716.33 448.978 721.153 458.718 720.207 471.536Z" fill="#A1616A"/>
<path d="M731.344 466.075C726.561 466.881 721.546 467.79 717.729 471.127C716.277 472.534 714.895 474.031 713.59 475.612C706.008 483.911 695.303 487.248 686.099 493.106C684.598 493.943 683.267 495.122 682.192 496.569C681.185 498.147 680.671 500.157 679.614 501.723C678.385 503.54 676.442 504.675 675.485 506.684C674.529 508.694 674.74 510.828 674.639 512.963C674.408 517.651 672.837 522.102 671.618 526.586C666.029 548.054 669.091 571.997 660.632 592.274C661.021 593.442 661.616 594.509 662.381 595.41C663.146 596.312 664.065 597.029 665.083 597.519C667.211 598.383 669.433 598.922 671.689 599.119L690.429 601.742C693.108 602.117 695.948 602.468 698.395 601.208C696.156 608.165 694.573 615.369 693.672 622.699C693.216 627.18 692.51 631.624 691.557 636.005C688.979 645.995 682.494 654.317 674.81 660.005C673.843 660.576 673.026 661.426 672.444 662.468C671.437 664.739 672.927 667.282 673.985 669.507C677.056 675.956 676.633 683.698 676.593 691.009C676.553 698.321 677.207 706.347 681.739 711.592C684.417 714.691 688.083 716.372 691.648 717.972L720.962 731.176C725.799 733.498 730.789 735.396 735.886 736.852C743.609 738.839 751.635 738.76 759.56 738.374C764.797 738.124 770.027 737.745 775.25 737.238C777.327 737.23 779.369 736.625 781.181 735.479C782.741 734.091 783.941 732.256 784.655 730.165C788.733 720.164 790.103 708.493 796.427 700.114C800.767 694.359 807.504 689.761 807.997 682.234C808.229 678.487 806.749 674.843 806.729 671.085C806.729 666.465 808.874 662.071 808.743 657.462C808.471 649.957 802.197 644.236 801.2 636.811C798.663 617.988 807.142 599.188 812.348 581.08C813.284 577.844 814.493 574.268 817.252 572.883C820.011 571.498 823.898 572.225 824.885 569.159C827.372 561.462 827.966 552.436 827.644 544.251C827.463 539.517 825.973 534.885 826.144 530.139C826.265 526.802 827.211 523.555 827.463 520.228C827.846 515.199 826.667 510.204 825.449 505.345C825.097 503.61 824.57 501.926 823.878 500.327C823.134 498.876 822.256 497.517 821.26 496.274L816.356 489.701C814.06 486.624 811.633 483.434 808.3 481.878C807.222 478.87 803.778 476.792 801.311 475.135C798.824 473.544 796.255 472.122 793.617 470.878L765.884 457.072C764.848 456.484 763.737 456.078 762.591 455.869C760.903 455.805 759.226 456.194 757.697 457.004C749.239 460.785 740.407 464.554 731.344 466.075Z" fill="#9FEDD7"/>
<path d="M701.97 417.735C700.902 413.5 698.173 409.844 697.761 405.462C697.388 401.568 698.909 397.799 699.775 394.007C700.641 390.215 700.61 385.583 697.942 383.063C697.499 382.632 696.935 382.246 696.774 381.61C696.451 380.475 697.468 379.441 697.781 378.295C698.355 376.024 695.867 373.515 696.774 371.335C697.287 370.143 698.576 369.723 699.704 369.349C704.014 367.907 708.384 364.705 709.321 359.744C712.694 361.334 716.29 358.348 718.878 355.453C721.466 352.558 724.648 349.254 728.213 350.128L727.417 351.956C732.914 349.706 738.926 349.63 744.466 351.74H742.774C747.633 351.833 752.346 353.631 756.258 356.883C755.825 356.883 755.784 357.61 755.956 358.019C757.365 361.731 760.991 363.695 764.485 364.615C766.59 365.182 768.875 365.591 770.416 367.294C771.957 368.997 771.987 372.55 769.953 373.368C774.101 375.188 778.029 377.591 781.644 380.52C782.651 381.349 783.789 382.473 783.658 383.926C783.514 384.655 783.305 385.367 783.034 386.049C782.833 387.261 782.906 388.51 783.246 389.682L784.363 394.881C785.592 400.66 786.559 407.619 782.823 411.808C784.221 414.754 784.74 418.13 784.303 421.434C783.866 424.739 782.496 427.797 780.396 430.155C780.692 431.169 780.794 432.242 780.696 433.305C780.598 434.367 780.301 435.393 779.825 436.317C779.35 437.24 778.706 438.04 777.936 438.662C777.167 439.285 776.289 439.717 775.361 439.929C776.599 442.109 775.461 445.22 773.508 446.582C771.554 447.945 769.097 447.956 766.821 447.718C764.545 447.479 762.239 446.9 759.963 447.286C756.65 447.865 753.408 450.408 750.216 449.273C749.026 448.699 747.883 448.008 746.802 447.207C744.566 445.856 741.968 445.549 739.491 444.936C735.268 443.913 731.258 441.986 727.679 439.26C725.306 437.652 723.416 435.279 722.251 432.448C720.036 426.136 723.762 417.859 719.844 412.717C717.548 409.719 712.997 409.674 710.429 412.24C709.15 413.523 708.979 416.225 707.649 417.19C705.795 417.719 703.877 417.903 701.97 417.735Z" fill="#464353"/>
<path opacity="0.1" d="M652.707 743.266C651.275 741.989 650.04 740.455 649.051 738.725C648.059 736.986 647.665 734.899 647.944 732.855C647.551 735.44 647.701 738.093 648.381 740.6C649.061 743.108 650.253 745.401 651.861 747.296C654.389 750.214 659.132 753.075 662.827 752.076C662.304 748.738 655.053 745.514 652.707 743.266Z" fill="black"/>
<path d="M851.913 560.655C851.913 560.655 830.444 546.623 802.107 564.061C773.769 581.499 769.046 684.118 769.046 684.118C769.046 684.118 780.637 788.666 735.946 765.404C735.946 765.404 654.378 736.852 646.212 743.141C646.212 743.141 638.478 743.141 653.935 747.012C669.393 750.884 729.109 772.216 729.109 772.216C729.109 772.216 748.413 779.822 756.59 772.216C764.767 764.609 787.938 773.192 790.949 720.901C792.941 687.949 796.525 655.143 801.684 622.631L809.649 596.008L851.913 560.655Z" fill="#565661"/>
<path d="M854.491 722.344C854.491 722.344 845.045 616.33 860.533 578.083C874.007 544.751 821.904 560.338 808.31 564.879C806.206 565.588 804.371 567.066 803.093 569.08C795.037 581.852 766.136 633.042 774.656 701.534C774.656 701.534 778.09 762.533 756.62 772.205L822.77 748.183C828.138 746.23 833.586 744.606 839.084 743.199C846.093 741.405 857.512 736.308 854.491 722.344Z" fill="white"/>
<path opacity="0.1" d="M1027.91 928.489C1082.1 928.489 1126.03 920.534 1126.03 910.721C1126.03 900.909 1082.1 892.954 1027.91 892.954C973.716 892.954 929.785 900.909 929.785 910.721C929.785 920.534 973.716 928.489 1027.91 928.489Z" fill="#9FEDD7"/>
<path d="M1031.06 570.351H1024.75V730.619H1031.06V570.351Z" fill="#535461"/>
<path d="M1070.75 730.131L1070.35 737.351L1069.79 747.569L1069.56 751.815L1069 762.033L1068.76 766.278L1068.2 776.496L1061.83 892.375C1061.54 897.348 1059.59 902.011 1056.36 905.418C1053.13 908.824 1048.87 910.72 1044.45 910.721H1011.35C1006.92 910.719 1002.66 908.813 999.437 905.391C996.211 901.97 994.264 897.29 993.992 892.307L987.608 776.417L987.054 766.199L986.822 761.953L986.248 751.735L986.017 747.489L985.463 737.272L985.06 730.051C984.99 728.667 985.171 727.282 985.591 725.979C986.012 724.677 986.663 723.484 987.505 722.474C988.347 721.464 989.363 720.658 990.49 720.104C991.618 719.551 992.833 719.262 994.063 719.255H1061.75C1062.99 719.263 1064.21 719.555 1065.34 720.114C1066.47 720.673 1067.49 721.487 1068.33 722.505C1069.17 723.524 1069.82 724.726 1070.24 726.037C1070.65 727.348 1070.83 728.741 1070.75 730.131V730.131Z" fill="#565661"/>
<path d="M1070.35 737.352L1069.79 747.535H986.027L985.463 737.352H1070.35Z" fill="#9D9CB5"/>
<path d="M1069.56 751.792L1069 761.987H986.822L986.258 751.792H1069.56Z" fill="#9D9CB5"/>
<path d="M1068.76 766.233L1068.2 776.417H987.618L987.054 766.233H1068.76Z" fill="#9D9CB5"/>
<path d="M975.816 630.419C1012.59 660.413 1027.91 707.323 1027.91 707.323C1027.91 707.323 983.6 705.609 946.814 675.615C910.028 645.62 894.731 598.722 894.731 598.722C894.731 598.722 939.05 600.436 975.816 630.419Z" fill="#9FEDD7"/>
<path d="M894.731 598.722C894.731 598.722 940.722 627.501 955.484 651.331C970.247 675.161 1027.91 707.323 1027.91 707.323" stroke="#535461" stroke-width="2" stroke-miterlimit="10"/>
<path d="M999.55 569.999C1019.57 586.313 1027.91 611.857 1027.91 611.857C1027.91 611.857 1003.74 610.914 983.771 594.6C963.802 578.286 955.474 552.742 955.474 552.742C955.474 552.742 979.541 553.673 999.55 569.999Z" fill="#9FEDD7"/>
<path d="M955.474 552.742C955.474 552.742 980.508 568.409 988.534 581.374C996.56 594.339 1027.96 611.857 1027.96 611.857" stroke="#535461" stroke-width="2" stroke-miterlimit="10"/>
<path d="M1056.99 610.551C1034 639.036 1029.14 676.262 1029.14 676.262C1029.14 676.262 1061.55 667.293 1084.52 638.797C1107.49 610.302 1112.38 573.087 1112.38 573.087C1112.38 573.087 1079.98 582.067 1056.99 610.551Z" fill="#9FEDD7"/>
<path d="M1112.4 573.099C1112.4 573.099 1082.45 602.298 1074.83 622.415C1067.22 642.533 1029.14 676.262 1029.14 676.262" stroke="#535461" stroke-width="2" stroke-miterlimit="10"/>
<path d="M591.884 541.98V544.568H523.8V542.468C525.666 541.679 527.434 540.618 529.056 539.312C531.948 536.978 534.304 533.901 535.929 530.335C537.554 526.769 538.402 522.818 538.401 518.809C538.403 516.714 538.169 514.628 537.707 512.599C536.883 508.948 535.345 505.55 533.205 502.657C531.066 499.763 528.378 497.446 525.34 495.876H591.42C588.383 497.446 585.695 499.763 583.556 502.657C581.416 505.55 579.878 508.948 579.054 512.599C578.595 514.628 578.365 516.715 578.37 518.809C578.367 522.817 579.213 526.768 580.836 530.334C582.46 533.9 584.814 536.978 587.704 539.312C589.011 540.363 590.412 541.257 591.884 541.98V541.98Z" fill="#DFE6F5"/>
<path opacity="0.1" d="M591.421 495.876C588.383 497.446 585.696 499.763 583.556 502.657C581.416 505.55 579.878 508.948 579.055 512.599H537.707C536.884 508.948 535.345 505.55 533.206 502.657C531.066 499.763 528.378 497.446 525.341 495.876H591.421Z" fill="black"/>
<path d="M445.847 482.65V497.227C445.847 505.265 451.063 511.793 457.508 511.793H657.812C664.257 511.793 669.484 505.265 669.484 497.227V482.65H445.847Z" fill="#DFE6F5"/>
<path opacity="0.1" d="M591.884 541.98V544.569H523.8V542.469C525.666 541.679 527.434 540.618 529.056 539.312H587.704C589.011 540.364 590.412 541.258 591.884 541.98V541.98Z" fill="black"/>
<path d="M610.966 540.118H504.717C502.832 540.118 501.303 541.839 501.303 543.961C501.303 546.084 502.832 547.804 504.717 547.804H610.966C612.852 547.804 614.38 546.084 614.38 543.961C614.38 541.839 612.852 540.118 610.966 540.118Z" fill="#DFE6F5"/>
<path d="M669.484 322.995C669.484 321.268 669.182 319.557 668.595 317.962C668.008 316.366 667.148 314.916 666.065 313.695C664.981 312.474 663.694 311.506 662.278 310.846C660.862 310.186 659.345 309.847 657.812 309.849H457.508C455.977 309.847 454.46 310.186 453.044 310.846C451.629 311.506 450.343 312.475 449.26 313.696C448.177 314.917 447.318 316.367 446.732 317.962C446.147 319.558 445.846 321.268 445.847 322.995V485.489H669.484V322.995Z" fill="#474157"/>
<path d="M663.381 328.865V468.505C663.382 469.356 663.235 470.198 662.947 470.985C662.659 471.771 662.237 472.486 661.704 473.088C661.17 473.69 660.537 474.168 659.84 474.494C659.143 474.82 658.396 474.987 657.641 474.987H457.69C456.935 474.987 456.188 474.82 455.491 474.494C454.794 474.168 454.161 473.69 453.627 473.088C453.094 472.486 452.672 471.771 452.384 470.985C452.096 470.198 451.948 469.356 451.95 468.505V328.865C451.945 327.729 452.209 326.612 452.715 325.629C453.219 324.645 453.944 323.827 454.818 323.259C455.691 322.691 456.682 322.393 457.69 322.394H657.641C659.164 322.394 660.624 323.075 661.7 324.289C662.776 325.502 663.381 327.148 663.381 328.865V328.865Z" fill="#4C4C78"/>
<path d="M557.665 319.145C559.15 319.145 560.354 317.788 560.354 316.114C560.354 314.44 559.15 313.083 557.665 313.083C556.18 313.083 554.977 314.44 554.977 316.114C554.977 317.788 556.18 319.145 557.665 319.145Z" fill="white"/>
<path d="M557.665 505.311C561.331 505.311 564.302 501.961 564.302 497.829C564.302 493.697 561.331 490.348 557.665 490.348C554 490.348 551.029 493.697 551.029 497.829C551.029 501.961 554 505.311 557.665 505.311Z" fill="white"/>
<path d="M663.381 328.865H451.97C451.97 327.148 452.574 325.502 453.651 324.289C454.727 323.075 456.187 322.394 457.71 322.394H657.641C659.163 322.394 660.623 323.075 661.7 324.289C662.776 325.502 663.381 327.148 663.381 328.865Z" fill="#C8CAD7"/>
<path d="M457.69 327.253C458.485 327.253 459.13 326.526 459.13 325.629C459.13 324.733 458.485 324.006 457.69 324.006C456.894 324.006 456.25 324.733 456.25 325.629C456.25 326.526 456.894 327.253 457.69 327.253Z" fill="#EDEDF4"/>
<path d="M462 327.253C462.795 327.253 463.44 326.526 463.44 325.629C463.44 324.733 462.795 324.006 462 324.006C461.204 324.006 460.56 324.733 460.56 325.629C460.56 326.526 461.204 327.253 462 327.253Z" fill="#EDEDF4"/>
<path d="M466.31 327.253C467.105 327.253 467.75 326.526 467.75 325.629C467.75 324.733 467.105 324.006 466.31 324.006C465.514 324.006 464.87 324.733 464.87 325.629C464.87 326.526 465.514 327.253 466.31 327.253Z" fill="#EDEDF4"/>
</g>
<defs>
<linearGradient id="paint0_linear" x1="420.159" y1="681.019" x2="422.495" y2="681.019" gradientUnits="userSpaceOnUse">
<stop stop-color="#808080" stop-opacity="0.25"/>
<stop offset="0.54" stop-color="#808080" stop-opacity="0.12"/>
<stop offset="1" stop-color="#808080" stop-opacity="0.1"/>
</linearGradient>
<clipPath id="clip0">
<rect width="1138" height="838" fill="white" transform="translate(31 150)"/>
</clipPath>
</defs>
</svg>
