<svg width="907" height="587" viewBox="0 0 907 587" fill="none" xmlns="http://www.w3.org/2000/svg">
<g clip-path="url(#clip0)">
<path d="M524.387 285.683H293.396V337.874H524.387V285.683Z" fill="#565661"/>
<path opacity="0.1" d="M524.387 285.683H293.396V337.874H524.387V285.683Z" fill="black"/>
<path d="M321.031 339.592L322.653 478.926L300.436 533.655L298.717 339.592H321.031Z" fill="#BCBEC9"/>
<path d="M295.832 295.703L520.728 297.023V335.895H295.832V295.703Z" fill="#565661"/>
<path d="M501.485 339.592L520.727 342.24V531.539L501.485 473.638V339.592Z" fill="#BCBEC9"/>
<path d="M636.423 287.774H528.038V512.51H636.423V287.774Z" fill="#EFEFF0"/>
<path d="M627.751 294.017H536.709V466.767H627.751V294.017Z" fill="#565661"/>
<path opacity="0.1" d="M627.751 294.017H536.709V466.767H627.751V294.017Z" fill="black"/>
<path d="M627.751 297.556H536.709V335.894H627.751V297.556Z" fill="#565661"/>
<path d="M627.751 339.592H536.709V421.025H627.751V339.592Z" fill="#565661"/>
<path d="M627.751 426.051H536.709V507.484H627.751V426.051Z" fill="#565661"/>
<path opacity="0.1" d="M627.751 426.051H536.709V507.484H627.751V426.051Z" fill="black"/>
<path d="M540.508 527.142C543.748 527.142 546.375 523.867 546.375 519.826C546.375 515.785 543.748 512.51 540.508 512.51C537.267 512.51 534.64 515.785 534.64 519.826C534.64 523.867 537.267 527.142 540.508 527.142Z" fill="#565661"/>
<path d="M621.884 527.492C625.124 527.492 627.752 524.216 627.752 520.176C627.752 516.135 625.124 512.859 621.884 512.859C618.643 512.859 616.016 516.135 616.016 520.176C616.016 524.216 618.643 527.492 621.884 527.492Z" fill="#565661"/>
<path d="M292.58 533.655H300.437L298.277 289.723H286.346L292.58 533.655Z" fill="#EFEFF0"/>
<path d="M520.728 287.774V531.54H528.038V289.723L520.728 287.774Z" fill="#EFEFF0"/>
<path d="M298.66 333.509V342.241H520.728V335.895L298.66 333.509Z" fill="#EFEFF0"/>
<path d="M313.712 271.385H595.241L636.154 284.602V292.268L284.992 289.628V281.826L313.712 271.385Z" fill="white"/>
<path d="M284.992 281.826L636.154 284.602V292.268L284.992 289.627V281.826Z" fill="#BCBEC9"/>
<path d="M316.802 372.738L315.172 372.5C315.172 372.428 315.172 372.364 315.172 372.301C315.123 371.927 315.066 371.561 315.009 371.188C315.677 371.704 316.313 372.221 316.9 372.738H316.802Z" fill="url(#paint0_linear)"/>
<path d="M281.383 495.531C282.442 495.293 283.518 495.094 284.594 494.951C291.982 493.924 299.517 495.007 306.289 498.068C305.604 502.983 304.928 508.064 306.378 512.812C307.389 516.152 309.418 519.174 309.85 522.657C310.939 522.84 311.953 523.314 312.781 524.028C313.609 524.741 314.217 525.665 314.536 526.697C314.849 527.609 315.006 528.566 315.001 529.528C314.992 530.718 314.839 531.904 314.545 533.059C314.445 533.982 313.981 534.831 313.251 535.425C312.52 536.019 311.581 536.311 310.633 536.24C304.325 536.94 298.139 534.514 292.271 532.136L280.861 527.508C279.525 526.967 278.18 526.419 276.9 525.751C274.473 524.471 272.319 522.752 270.552 520.685C270.178 520.316 269.916 519.854 269.794 519.349C269.582 517.949 271.261 517.114 272.328 516.168C272.641 515.879 272.915 515.553 273.143 515.198C274.406 513.337 274.529 510.768 275.287 508.573C277.08 503.364 282.622 500.009 284.578 494.927C284.683 494.649 284.781 494.37 284.863 494.084" fill="#A26565"/>
<path opacity="0.1" d="M315.001 529.527C314.992 530.718 314.839 531.903 314.545 533.058C314.446 533.981 313.981 534.83 313.251 535.424C312.52 536.018 311.581 536.311 310.633 536.239C304.325 536.939 298.139 534.514 292.271 532.136L280.861 527.508C279.525 526.967 278.18 526.418 276.9 525.75C274.473 524.471 272.319 522.751 270.552 520.684C270.178 520.315 269.916 519.853 269.794 519.348C269.582 517.949 271.261 517.114 272.328 516.167C272.641 515.879 272.915 515.553 273.143 515.197C276.289 515.857 280.193 517.79 282.597 518.537C285.005 519.177 287.318 520.121 289.476 521.344C292.475 523.221 294.634 526.116 297.177 528.502C299.72 530.887 303.004 533.058 306.55 532.764C308.424 532.488 310.231 531.879 311.88 530.967L315.001 529.527Z" fill="black"/>
<path d="M301.643 416.516C301.855 417.238 301.836 418.006 301.589 418.716C301.341 419.427 300.877 420.047 300.258 420.493C299.19 421.137 297.813 421.049 296.753 421.749C295.441 422.648 295.254 424.429 295.026 425.972C294.211 431.276 291.513 436.087 289.207 440.962C286.9 445.837 284.952 451.157 285.8 456.454C286.379 460.048 288.188 463.881 286.493 467.118C286.077 467.913 285.458 468.621 284.985 469.392C282.662 473.177 283.983 477.973 283.893 482.378C283.927 482.868 283.816 483.356 283.575 483.786C283.219 484.192 282.78 484.523 282.287 484.756C281.46 485.35 280.78 486.118 280.299 487.003C279.818 487.888 279.548 488.868 279.508 489.87C279.44 491.872 279.687 493.873 280.242 495.802C280.332 496.581 280.684 497.308 281.244 497.87C281.893 498.288 282.659 498.499 283.436 498.474C288.557 498.879 293.579 500.071 298.318 502.005C301.407 503.261 304.406 504.836 307.69 505.44C308.008 505.537 308.342 505.569 308.673 505.535C309.004 505.5 309.324 505.401 309.614 505.242C310.027 504.878 310.312 504.397 310.429 503.866C311.692 499.81 312.972 495.627 312.54 491.412C312.352 489.599 311.855 487.826 311.725 486.013C311.154 478.856 316.117 472.398 317.69 465.336C318.399 462.155 318.399 458.863 318.905 455.65C320.274 446.847 325.245 438.95 327.161 430.242C327.427 428.619 327.842 427.022 328.399 425.471C329.826 422.099 333.126 419.363 333.2 415.713C333.245 414.91 333.028 414.114 332.58 413.439C331.812 412.616 330.791 412.058 329.671 411.848C325.243 410.66 320.736 409.772 316.183 409.192C314.096 408.792 311.966 408.648 309.842 408.763C307.084 409.079 304.434 409.992 302.083 411.435C298.938 413.328 300.959 413.781 301.643 416.516Z" fill="#454B69"/>
<path opacity="0.05" d="M301.643 416.516C301.855 417.238 301.836 418.006 301.589 418.716C301.341 419.427 300.877 420.047 300.258 420.493C299.19 421.137 297.813 421.049 296.753 421.749C295.441 422.648 295.254 424.429 295.026 425.972C294.211 431.276 291.513 436.087 289.207 440.962C286.9 445.837 284.952 451.157 285.8 456.454C286.379 460.048 288.188 463.881 286.493 467.118C286.077 467.913 285.458 468.621 284.985 469.392C282.662 473.177 283.983 477.973 283.893 482.378C283.927 482.868 283.816 483.356 283.575 483.786C283.219 484.192 282.78 484.523 282.287 484.756C281.46 485.35 280.78 486.118 280.299 487.003C279.818 487.888 279.548 488.868 279.508 489.87C279.44 491.872 279.687 493.873 280.242 495.802C280.332 496.581 280.684 497.308 281.244 497.87C281.893 498.288 282.659 498.499 283.436 498.474C288.557 498.879 293.579 500.071 298.318 502.005C301.407 503.261 304.406 504.836 307.69 505.44C308.008 505.537 308.342 505.569 308.673 505.535C309.004 505.5 309.324 505.401 309.614 505.242C310.027 504.878 310.312 504.397 310.429 503.866C311.692 499.81 312.972 495.627 312.54 491.412C312.352 489.599 311.855 487.826 311.725 486.013C311.154 478.856 316.117 472.398 317.69 465.336C318.399 462.155 318.399 458.863 318.905 455.65C320.274 446.847 325.245 438.95 327.161 430.242C327.427 428.619 327.842 427.022 328.399 425.471C329.826 422.099 333.126 419.363 333.2 415.713C333.245 414.91 333.028 414.114 332.58 413.439C331.812 412.616 330.791 412.058 329.671 411.848C325.243 410.66 320.736 409.772 316.183 409.192C314.096 408.792 311.966 408.648 309.842 408.763C307.084 409.079 304.434 409.992 302.083 411.435C298.938 413.328 300.959 413.781 301.643 416.516Z" fill="black"/>
<path d="M285.693 536.367H278.741L274.194 445.2L273.876 440.015L279.785 437.987L280.184 443.498L285.693 536.367Z" fill="#565661"/>
<path opacity="0.1" d="M280.184 443.498L274.194 445.2L273.876 440.015L279.785 437.987L280.184 443.498Z" fill="black"/>
<path d="M372.921 555.652L361.454 557.004L308.627 440.016L294.381 438.998L269.361 446.123L264.495 585.41H253.029L257.544 441.034L230.087 441.717L181.09 560.733H170.666L222.198 421.638L224.186 416.278L300.982 413.709L320.126 424.182L320.371 424.787L372.921 555.652Z" fill="#565661"/>
<path opacity="0.1" d="M320.372 424.787C303.868 429.638 286.737 434.934 286.737 434.934C286.737 434.934 271.114 440.254 264.496 434.934C263.662 434.299 262.729 433.797 261.733 433.447C262.592 434.045 263.519 434.544 264.496 434.934L222.198 421.63L224.179 416.278L300.983 413.709L320.127 424.182L320.372 424.787Z" fill="black"/>
<path d="M242.254 401.7L273.525 394.917C273.525 394.917 348.243 408.484 353.802 413.907C353.802 413.907 294.031 425.772 287.429 429.812C280.828 433.852 241.553 438.321 242.254 401.7Z" fill="white"/>
<path d="M228.808 325.445C226.363 333.007 219.688 339.823 211.563 340.149C210.972 340.216 210.373 340.111 209.843 339.846C208.824 339.226 208.8 337.771 209.216 336.665C209.631 335.56 210.357 334.566 210.471 333.405C210.495 333.168 210.478 332.929 210.422 332.697C210.21 331.751 209.419 330.908 208.49 331.107C209.123 330.613 209.544 329.907 209.672 329.126C209.8 328.345 209.626 327.546 209.183 326.884C208.814 326.478 208.482 326.041 208.189 325.58C207.512 324.228 208.564 322.709 209.004 321.262C209.908 318.081 207.61 314.9 207.423 311.584C207.26 308.617 208.8 305.826 209.183 302.884C209.794 298.112 207.366 293.54 207.08 288.776C206.885 285.452 207.724 282.16 208.661 278.955C209.476 276.092 210.397 273.197 210.454 270.207C210.454 268.036 210.071 265.889 209.965 263.726C209.796 261.748 210.165 259.763 211.033 257.968C211.597 256.913 212.558 256.112 213.714 255.734C216.387 254.859 218.14 256.219 218.531 258.692C219.183 262.899 218.808 267.193 219.664 271.416C220.455 275.365 221.654 279.225 223.242 282.939C224.684 286.295 226.436 289.539 227.545 293.015C228.379 295.879 228.976 298.804 229.329 301.762C230.422 309.707 231.277 317.882 228.808 325.445Z" fill="#9FEDD7"/>
<path d="M414.429 517.925C413.398 519.343 412.071 520.533 410.536 521.415C409.001 522.298 407.292 522.854 405.521 523.047C401.984 523.476 398.309 522.609 394.877 523.555C394.346 523.641 393.845 523.853 393.418 524.174C392.991 524.494 392.653 524.913 392.432 525.392C392.348 526.039 392.296 526.689 392.278 527.341C391.878 529.464 389.018 529.941 386.793 529.925L377.616 529.87C375.709 529.87 373.598 529.766 372.229 528.478C371.578 527.774 371.211 526.864 371.196 525.916C371.181 524.969 371.519 524.048 372.147 523.325C372.432 522.996 372.781 522.725 373.174 522.53C372.601 522.345 372.092 522.008 371.704 521.557C371.315 521.107 371.063 520.559 370.974 519.977C370.807 518.808 370.865 517.618 371.145 516.47C371.145 513.146 371.96 507.579 374.356 504.979C377.298 501.742 382.4 497.559 386.842 496.692C388.342 496.412 389.888 496.478 391.357 496.885C392.826 497.292 394.177 498.03 395.301 499.038C397.404 500.947 398.936 503.937 401.821 504.271C403.394 504.462 404.91 503.738 406.467 503.476C408.236 503.253 410.032 503.57 411.609 504.383C413.186 505.196 414.467 506.465 415.277 508.016C415.671 508.803 415.946 509.641 416.092 510.506C416.522 513.095 415.928 515.747 414.429 517.925Z" fill="#A26565"/>
<path opacity="0.1" d="M414.429 517.925C413.398 519.343 412.071 520.533 410.536 521.415C409.001 522.298 407.292 522.854 405.521 523.047C401.984 523.476 398.308 522.609 394.877 523.556C394.346 523.641 393.845 523.853 393.418 524.174C392.991 524.495 392.653 524.913 392.432 525.393C392.347 526.039 392.296 526.689 392.278 527.341C391.878 529.464 389.018 529.941 386.793 529.926L377.616 529.87C375.709 529.87 373.598 529.766 372.229 528.478C371.578 527.775 371.211 526.864 371.196 525.917C371.181 524.969 371.519 524.048 372.147 523.325C377.445 523.11 382.653 523.325 387.934 522.259C390.077 521.838 392.188 521.281 394.356 520.987C399.05 520.335 404.046 520.892 408.357 518.951C411.951 517.361 414.527 514.124 416.051 510.514C416.491 513.095 415.912 515.744 414.429 517.925V517.925Z" fill="black"/>
<path d="M390.215 505.353C386.955 507.818 383.133 509.743 379.026 509.95C374.918 510.156 370.558 508.359 368.545 504.876C365.603 499.762 368.211 492.653 364.608 487.961C363.484 486.49 361.862 485.448 360.672 484.025C359.482 482.601 358.798 480.462 359.857 478.951C358.578 479.428 357.225 478.219 356.85 476.931C356.475 475.643 356.711 474.259 356.483 472.955C355.888 469.496 352.408 467.277 350.737 464.207C349.067 461.138 349.295 457.153 349.107 453.519C348.691 444.665 345.313 436.187 339.491 429.384C338.382 428.095 336.964 426.783 335.236 426.847C335.538 423.936 333.549 421.153 330.974 419.69C328.399 418.226 325.334 417.733 322.351 417.447C292.254 414.552 260.893 425.471 232.157 416.286C224.162 413.733 216.452 409.463 211.562 402.767C209.657 400.218 208.295 397.324 207.554 394.254C206.814 391.183 206.711 387.999 207.251 384.89V384.778C208.384 379.132 211.44 377.741 216.501 375.164C222.344 372.15 228.45 369.651 234.748 367.697C246.973 363.967 260.135 362.623 272.751 365.359C278.644 366.647 284.324 368.778 290.225 370.027C292.547 370.52 294.886 370.87 297.242 371.164C300.901 371.609 304.577 371.903 308.26 372.317C320.039 373.64 331.639 376.186 342.865 379.911C347.045 381.295 351.226 382.878 354.82 385.383C357.663 387.397 360.067 389.944 361.892 392.874C363.716 395.804 364.925 399.058 365.448 402.449C365.79 404.787 365.798 407.22 366.32 409.487C366.814 411.391 367.468 413.253 368.276 415.053C375.24 431.854 380.93 449.13 385.301 466.744C385.549 468.052 386.008 469.314 386.662 470.482C387.705 472.128 389.498 473.233 390.549 474.879C392.994 478.76 390.639 484.176 392.807 488.216C393.557 489.615 394.804 490.721 395.553 492.12C397.998 496.709 394.388 502.196 390.215 505.353Z" fill="#454B69"/>
<path opacity="0.1" d="M348.57 413.979C349.728 413.084 350.728 412.01 351.528 410.798C352.331 409.58 352.65 408.118 352.424 406.687C352.742 408.497 352.621 410.355 352.07 412.112C351.52 413.868 350.555 415.475 349.254 416.802C347.209 418.846 343.37 420.85 340.379 420.15C340.803 417.812 346.671 415.553 348.57 413.979Z" fill="black"/>
<path opacity="0.1" d="M297.649 374.345C297.403 375.197 296.944 375.976 296.312 376.612C295.68 377.248 294.896 377.721 294.031 377.987C292.293 378.505 290.473 378.713 288.66 378.599H287.03C265.645 378.138 244.031 373.51 223.143 377.923C220.626 378.43 218.156 379.14 215.759 380.047C212.706 381.221 209.847 382.829 207.275 384.818V384.707C208.408 379.061 211.464 377.669 216.525 375.092C222.363 372.104 228.461 369.629 234.749 367.697C246.973 363.967 260.135 362.623 272.751 365.359C278.644 366.647 284.324 368.778 290.225 370.027C292.547 370.52 294.886 370.87 297.242 371.164C297.699 372.161 297.84 373.269 297.649 374.345V374.345Z" fill="black"/>
<path d="M297.649 373.207C297.405 374.061 296.946 374.843 296.314 375.48C295.682 376.117 294.897 376.591 294.03 376.857C292.293 377.377 290.473 377.582 288.66 377.462H287.03C265.645 377 244.031 372.372 223.143 376.786C220.627 377.293 218.157 378.001 215.759 378.901C212.562 380.145 209.579 381.862 206.917 383.991C206.292 382.315 205.67 380.637 205.05 378.957C204.3 376.953 206.68 376.507 207.137 374.71C207.438 373.493 206.925 372.11 206.664 370.813C206.597 370.496 206.553 370.175 206.534 369.851C206.387 366.98 207.438 365.326 209.851 363.776C217.006 359.163 225.735 355.998 233.901 353.62C238.242 352.281 242.727 351.433 247.267 351.091C253.689 350.726 260.103 351.887 266.354 353.358C274.039 355.211 281.643 357.66 288.456 361.581C291.797 363.481 295.057 365.867 296.859 369.255C297.577 370.445 297.856 371.84 297.649 373.207Z" fill="#A26565"/>
<path opacity="0.1" d="M228.808 325.445C226.363 333.007 219.688 339.823 211.563 340.149C210.972 340.216 210.373 340.111 209.843 339.846C208.824 339.226 208.8 337.771 209.216 336.665C209.631 335.56 210.357 334.566 210.471 333.405C210.495 333.168 210.479 332.929 210.422 332.697C214.733 326.765 218.914 320.769 220.568 313.747C220.903 312.538 221.006 311.278 220.87 310.033C220.65 308.601 219.908 307.305 219.501 305.921C218.784 303.472 219.118 300.88 219.322 298.343C220.17 287.172 218.258 275.966 213.747 265.666C212.647 263.185 211.392 260.672 211.009 258.024C211.573 256.969 212.534 256.168 213.69 255.789C216.363 254.915 218.115 256.274 218.507 258.748C219.159 262.954 218.784 267.249 219.639 271.472C220.431 275.42 221.629 279.281 223.217 282.995C224.66 286.351 226.412 289.595 227.52 293.07C228.355 295.935 228.952 298.86 229.305 301.818C230.422 309.707 231.277 317.882 228.808 325.445Z" fill="black"/>
<path opacity="0.1" d="M297.649 373.207C297.405 374.061 296.946 374.842 296.315 375.48C295.683 376.117 294.898 376.59 294.031 376.857C292.293 377.376 290.473 377.581 288.66 377.461H287.03C280.069 372.95 271.7 370.979 263.396 371.895C260.739 372.205 258.082 372.809 255.425 372.571C250.054 372.093 245.702 368.324 240.918 365.914C235.474 363.291 229.352 362.316 223.335 363.112C217.319 363.908 211.684 366.44 207.153 370.384L206.689 370.781C206.622 370.464 206.578 370.142 206.558 369.819C206.412 366.948 207.463 365.294 209.875 363.743C217.031 359.131 225.759 355.966 233.926 353.588C238.267 352.249 242.752 351.4 247.291 351.059C253.713 350.693 260.127 351.854 266.378 353.326C274.064 355.179 281.668 357.628 288.481 361.548C291.798 363.481 295.058 365.867 296.859 369.254C297.578 370.445 297.857 371.84 297.649 373.207Z" fill="black"/>
<path d="M315.93 286.097L315.815 286.383C313.99 291.003 310.632 294.908 308.481 299.409C305.767 305.111 305.098 311.505 304.495 317.771C303.974 323.139 303.46 328.539 303.876 333.922C304.919 347.187 311.561 359.768 313.338 372.778C313.776 375.783 313.888 378.824 313.672 381.852C313.525 383.768 313.167 385.828 311.863 387.243C310.559 388.659 308.024 389.216 306.622 387.856C307.25 386.687 307.886 385.526 308.521 384.357C304.797 381.534 299.19 383.561 294.838 381.796C292.923 381.001 291.39 379.569 289.785 378.289C286.121 375.382 281.898 373.219 277.365 371.927C272.831 370.635 268.079 370.24 263.387 370.766C260.731 371.084 258.074 371.688 255.417 371.45C250.046 370.965 245.694 367.203 240.91 364.794C235.467 362.172 229.345 361.196 223.329 361.991C217.314 362.786 211.678 365.315 207.145 369.255C206.004 370.289 204.472 371.498 203.07 370.846C202.528 370.522 202.091 370.056 201.807 369.502C196.469 360.603 200.397 349.127 206.102 340.459C211.807 331.791 219.362 323.799 221.709 313.755C222.048 312.547 222.15 311.287 222.011 310.041C221.791 308.61 221.049 307.314 220.641 305.93C219.924 303.481 220.258 300.888 220.462 298.351C221.317 287.179 219.411 275.97 214.904 265.667C213.6 262.701 212.051 259.695 212.051 256.474C212.051 251.4 215.776 247.193 218.857 243.114C222.402 238.422 225.376 233.229 229.867 229.372C234.121 225.706 240.283 223.463 245.547 225.324C254.493 223.205 263.701 222.33 272.898 222.724C276.077 222.867 279.361 223.193 282.148 224.696C285.131 226.286 287.275 229.117 290.209 230.811C292.352 232.06 294.821 232.648 297.152 233.523C303.588 235.976 308.902 240.612 312.115 246.581C315.375 252.744 316.19 259.83 316.908 266.732C317.592 273.23 318.244 279.981 315.93 286.097Z" fill="#9FEDD7"/>
<path opacity="0.1" d="M303.876 333.922C304.919 347.187 311.561 359.767 313.338 372.777C309.784 369.843 304.837 366.893 304.177 363.481C303.444 359.791 301.097 354.956 300.705 351.226C300.314 347.497 302.995 342.94 300.184 340.379C298.815 339.131 302.458 339.481 301.121 338.2C298.114 335.345 297.372 330.948 297.185 326.868C296.867 319.647 297.804 312.347 296.443 305.245C295.628 300.864 293.925 296.689 292.564 292.434C290.983 287.48 289.842 282.406 288.701 277.325C287.578 272.807 286.761 268.221 286.256 263.599C285.905 259.622 286.068 255.408 287.886 251.781C289.703 248.155 293.379 245.213 297.502 245.268C311.292 245.443 308.912 263.686 311.944 272.116C313.158 275.472 314.796 278.716 315.457 282.215C315.697 283.587 315.828 284.975 315.848 286.366C314.022 290.987 310.665 294.891 308.513 299.393C305.799 305.094 305.131 311.488 304.528 317.755C303.973 323.138 303.46 328.538 303.876 333.922Z" fill="black"/>
<path d="M312.841 271.909C314.055 275.265 315.694 278.509 316.354 282.008C317.454 287.869 315.751 294.096 317.601 299.774C318.082 300.986 318.485 302.226 318.807 303.488C319.125 305.293 318.758 307.138 318.758 308.975C318.758 311.933 319.711 314.796 320.559 317.635C323.425 327.283 325.322 337.18 326.223 347.186C326.358 349.875 326.792 352.542 327.519 355.139C327.861 356.019 328.155 356.916 328.399 357.827C328.618 359.042 328.67 360.28 328.554 361.509C328.334 365.405 327.886 369.318 328.334 373.199C328.782 377.08 330.233 381.016 333.224 383.616C330.551 384.181 327.723 384.746 325.115 383.911C321.447 382.742 319.247 379.139 317.381 375.863C315.017 371.68 306.036 367.91 305.107 363.21C304.381 359.529 302.034 354.693 301.643 350.956C301.252 347.218 303.925 342.677 301.113 340.117C299.752 338.868 303.395 339.21 302.051 337.938C299.051 335.083 298.31 330.685 298.122 326.598C297.805 319.385 298.734 312.084 297.381 304.983C296.566 300.601 294.862 296.426 293.501 292.164C291.92 287.217 290.779 282.144 289.638 277.054C288.512 272.537 287.695 267.951 287.193 263.328C286.843 259.352 286.998 255.129 288.823 251.503C290.649 247.877 294.325 244.942 298.44 244.99C312.173 245.228 309.809 263.479 312.841 271.909Z" fill="#9FEDD7"/>
<path opacity="0.1" d="M273.542 275.019C274.83 276.49 276.484 278.104 278.432 277.818C278.284 278.047 278.05 278.21 277.781 278.272C277.511 278.335 277.227 278.292 276.99 278.152C276.522 277.85 276.147 277.429 275.906 276.935L273.118 272.347C272.752 271.75 270.225 268.275 269.606 270.279C269.361 271.13 272.915 274.303 273.542 275.019Z" fill="black"/>
<path opacity="0.1" d="M272.042 286.462C271.962 284.963 271.314 283.546 270.225 282.486C269.245 281.619 268.102 280.947 266.859 280.506C263.803 279.281 260.184 278.295 256.867 278.454C258.073 280.172 261.945 281.198 263.884 282.168C266.633 283.552 269.353 284.983 272.042 286.462Z" fill="black"/>
<path opacity="0.1" d="M280.722 319.035C280.16 323.106 276.745 326.192 273.289 328.578C269.834 330.963 265.954 333.015 263.697 336.466C262.132 338.852 261.431 341.62 260.103 344.109C258.636 346.852 256.443 349.158 254.691 351.735C252.939 354.312 251.57 357.389 252.108 360.443C252.115 360.584 252.153 360.721 252.217 360.847C252.282 360.973 252.372 361.084 252.483 361.175C252.651 361.244 252.834 361.27 253.015 361.25C253.196 361.231 253.369 361.167 253.518 361.063C257.071 359.25 258.473 355.107 259.964 351.52C261.53 347.9 263.293 344.364 265.245 340.928C266.126 339.337 267.095 337.604 268.733 336.721C269.855 336.265 271.004 335.875 272.173 335.552C273.831 334.81 275.286 333.695 276.419 332.299C280.868 327.12 283.191 320.516 282.939 313.762C282.89 312.339 282.808 305.484 280.616 307.599C278.424 309.715 281.097 316.267 280.722 319.035Z" fill="black"/>
<path d="M286.093 162.873C293.102 165.855 299.133 172.416 298.913 179.852C298.725 187.661 292.026 195.017 294.332 202.5C295.669 206.842 299.695 209.753 302.882 213.053C315.017 225.586 314.992 247.463 302.816 259.972C298.155 264.744 292.165 268.139 287.234 272.696C269.85 288.681 269.109 316.331 278.416 337.795C271.285 339.3 264.016 340.099 256.721 340.18C253.306 340.18 249.125 339.616 247.886 336.506C246.745 333.636 248.701 329.755 246.452 327.632C245.392 326.637 243.803 326.502 242.377 326.272C233.2 324.824 225.67 317.675 222.231 309.253C218.791 300.832 218.971 291.353 220.943 282.494C222.345 276.092 224.537 269.046 221.285 263.32C217.21 256.115 205.491 253.078 205.67 244.839C205.817 238.087 213.975 234.803 218.604 229.785C227.145 220.544 223.078 206.206 223.062 193.752C223.062 182.794 226.99 171.486 235.352 164.185C247.789 153.235 271.741 156.79 286.093 162.873Z" fill="#A26565"/>
<g opacity="0.1">
<path opacity="0.1" d="M222.621 255.154C219.044 248.855 209.647 245.738 207.463 239.543C206.37 240.989 205.756 242.726 205.702 244.521C205.523 252.76 217.226 255.798 221.317 263.011C222.661 265.564 223.226 268.44 222.947 271.297C224.235 265.762 225.368 259.989 222.621 255.154Z" fill="black"/>
<path opacity="0.1" d="M295.269 192.305C296.736 188.13 298.863 183.915 298.969 179.581C298.984 179.112 298.97 178.642 298.928 178.174C297.29 182.961 294.78 187.605 295.269 192.305Z" fill="black"/>
<path opacity="0.1" d="M224.023 214.548C226.827 205.904 224.406 195.184 224.398 185.594C224.398 184.433 224.447 183.264 224.537 182.103C223.571 185.809 223.084 189.618 223.086 193.443C223.102 200.29 224.333 207.717 224.023 214.548Z" fill="black"/>
<path opacity="0.1" d="M304.177 251.837C299.515 256.609 293.525 260.004 288.595 264.561C279.793 272.649 275.27 283.726 274.137 295.472C276.239 286.724 280.485 278.669 287.291 272.41C292.181 267.877 298.211 264.497 302.873 259.686C308.418 253.79 311.638 246.164 311.96 238.167C310.553 243.277 307.88 247.971 304.177 251.837V251.837Z" fill="black"/>
<path opacity="0.1" d="M258.081 332.022C254.666 332.022 250.486 331.449 249.247 328.34C248.106 325.477 250.062 321.596 247.812 319.465C246.753 318.471 245.156 318.336 243.738 318.105C234.569 316.665 227.038 309.508 223.599 301.095C221.065 294.876 220.519 288.092 221.154 281.396C221.089 281.659 221.032 281.921 220.975 282.192C219.035 291.051 218.832 300.538 222.263 308.96C225.694 317.381 233.232 324.53 242.401 325.97C243.852 326.2 245.449 326.344 246.476 327.33C248.75 329.461 246.769 333.342 247.91 336.205C249.149 339.314 253.33 339.926 256.745 339.887C264.04 339.805 271.308 339.005 278.44 337.501C277.434 335.181 276.555 332.81 275.807 330.399C269.954 331.414 264.026 331.957 258.081 332.022V332.022Z" fill="black"/>
</g>
<path opacity="0.1" d="M284.773 297.341C286.786 298.82 288.97 293.182 287.723 291.774C287.389 292.14 284.463 297.134 284.773 297.341Z" fill="black"/>
<path opacity="0.1" d="M293.354 399.402C295.726 398.607 298.244 397.811 299.793 395.903C301.072 394.368 302.124 388.276 299.418 391.195C297.12 393.7 296.036 397 293.354 399.402Z" fill="black"/>
<path opacity="0.1" d="M317.503 393.017C317.218 394.894 316.688 396.842 315.327 398.194C315.074 398.448 314.512 398.607 314.438 398.265C315.959 397.476 317.371 396.503 318.644 395.371C321.398 392.707 321.773 386.146 317.576 384.404C317.535 387.283 317.951 390.09 317.503 393.017Z" fill="black"/>
<path d="M346.491 381.191C346.491 381.191 323.362 372.324 315 373.239C306.638 374.154 324.47 387.013 324.47 387.013L335.13 394.027C335.13 394.027 341.65 391.641 342.082 391.458C342.514 391.275 346.491 381.191 346.491 381.191Z" fill="#454B69"/>
<path d="M187.35 286.064C187.35 286.064 204.725 276.235 227.659 288.45C250.593 300.665 254.415 372.547 254.415 372.547C254.415 372.547 245.034 445.781 281.203 429.486C281.203 429.486 347.217 409.486 353.827 413.891C353.827 413.891 360.086 413.891 347.576 416.603C335.066 419.315 286.737 434.258 286.737 434.258C286.737 434.258 271.114 439.586 264.496 434.258C257.879 428.929 239.126 434.942 236.689 398.313C235.076 375.23 232.176 352.251 228.001 329.476L221.555 310.828L187.35 286.064Z" fill="#565661"/>
<path d="M185.263 399.323C185.263 399.323 192.908 325.064 180.373 298.272C169.469 274.924 211.636 285.842 222.638 289.023C224.341 289.52 225.826 290.555 226.86 291.966C233.38 300.912 256.77 336.77 249.875 384.747C249.875 384.747 247.096 427.475 264.471 434.25L210.935 417.423C206.591 416.055 202.182 414.918 197.732 413.932C192.06 412.676 182.818 409.105 185.263 399.323Z" fill="white"/>
<path d="M566.032 537.957H572.984L577.54 446.791L577.85 441.606L571.941 439.578L571.55 445.089L566.032 537.957Z" fill="#565661"/>
<path opacity="0.1" d="M571.55 445.089L577.54 446.791L577.85 441.606L571.941 439.578L571.55 445.089Z" fill="black"/>
<path d="M507.989 502.752C507.818 504.001 507.49 505.224 507.011 506.394C506.517 507.922 505.456 509.215 504.036 510.021C503.083 510.405 502.061 510.602 501.029 510.601C497.191 510.824 493.132 510.768 489.831 508.86C488.425 507.975 487.136 506.926 485.993 505.734C478.575 498.543 471.833 490.719 465.846 482.354C464.844 480.947 463.809 479.285 464.257 477.583C472.012 475.484 479.377 472.195 486.074 467.841C486.998 467.149 488.034 466.612 489.139 466.251C491.03 465.856 492.977 465.786 494.892 466.044C496.742 466.338 496.824 466.394 497.533 468.429C498.706 471.873 498.511 475.587 499.831 479.03C500.669 480.933 501.69 482.754 502.879 484.47C506.286 490.028 508.902 496.589 507.989 502.752Z" fill="#A26565"/>
<path opacity="0.1" d="M507.989 502.752C507.818 504.001 507.49 505.224 507.011 506.394C506.517 507.923 505.456 509.216 504.036 510.021C503.083 510.405 502.061 510.602 501.029 510.601C497.191 510.824 493.132 510.768 489.831 508.86C488.425 507.976 487.136 506.926 485.993 505.734C478.575 498.543 471.833 490.719 465.846 482.354C464.844 480.947 463.809 479.285 464.257 477.583C466.787 476.899 469.279 476.086 471.722 475.149L471.844 475.237C474.346 476.979 476.164 479.476 477.932 481.925L483.637 489.758C484.654 491.297 485.855 492.711 487.215 493.973C488.901 495.293 490.763 496.385 492.749 497.217C495.43 498.482 498.112 499.746 500.899 500.764C502.7 501.472 505.748 501.75 507.989 502.752Z" fill="black"/>
<path d="M513.254 417.828C512.692 419.15 512.01 420.419 511.216 421.622C503.642 434.033 497.798 447.376 493.841 461.296C492.716 461.05 492.081 462.545 492.089 463.682C492.097 464.819 492.089 466.25 491.013 466.664C490.695 466.783 490.336 466.783 490.027 466.919C489.342 467.221 489.147 468.072 489.049 468.803L488.087 475.69C487.753 478.076 487.46 480.66 488.658 482.768C489.484 484.02 490.556 485.101 491.812 485.949L507.72 498.195C508.372 498.696 509.179 499.229 509.961 498.951C511.746 498.315 510.165 495.197 511.591 493.933C512.537 493.066 514.036 493.718 515.348 493.615C517.06 493.488 518.356 491.953 518.788 490.338C519.091 488.694 519.121 487.014 518.877 485.36C518.77 484.606 518.86 483.837 519.138 483.126C519.624 482.372 520.293 481.746 521.086 481.304C523.846 479.337 526.07 476.74 527.564 473.74C529.057 470.74 529.774 467.428 529.651 464.095C529.522 463.081 529.561 462.052 529.766 461.05C530.097 460.132 530.597 459.28 531.241 458.537C537.019 450.91 541.836 442.632 546.619 434.369C549.374 429.598 552.178 424.755 553.139 419.379C553.223 419.179 553.257 418.963 553.24 418.747C553.223 418.532 553.155 418.324 553.041 418.139C552.927 417.953 552.771 417.797 552.584 417.681C552.398 417.565 552.186 417.493 551.966 417.47C549.579 416.743 547.145 416.175 544.68 415.769C537.19 414.289 529.961 412.007 522.675 409.812C515.389 407.617 515.446 412.087 513.254 417.828Z" fill="#454B69"/>
<path d="M478.805 557.242L490.28 558.593L543.099 441.605L557.345 440.588L582.373 447.713L587.23 587H598.697L594.182 442.623L621.639 443.307L670.636 562.323H681.06L629.528 423.227L627.548 417.867L550.744 415.299L531.6 425.772L531.355 426.377L478.805 557.242Z" fill="#565661"/>
<path opacity="0.1" d="M531.354 426.377C547.858 431.228 564.989 436.524 564.989 436.524C564.989 436.524 580.612 441.844 587.23 436.524C588.064 435.889 588.997 435.387 589.993 435.037C589.134 435.635 588.207 436.134 587.23 436.524L629.528 423.219L627.572 417.867L550.767 415.299L531.623 425.772L531.354 426.377Z" fill="black"/>
<path d="M609.471 403.291L578.2 396.508C578.2 396.508 503.482 410.075 497.924 415.498C497.924 415.498 557.695 427.363 564.296 431.403C570.898 435.443 610.172 439.912 609.471 403.291Z" fill="white"/>
<path d="M493.433 512.303C491.551 515.802 486.913 516.788 482.839 516.843C477.181 516.912 471.561 515.932 466.278 513.957C463.263 512.827 460.369 511.372 457.256 510.545C452.619 509.305 447.476 509.408 443.401 506.919C441.24 505.513 439.455 503.623 438.194 501.408C437.957 501.018 437.729 500.613 437.517 500.199C435.569 496.501 434.665 492.199 435.749 488.207C436.833 484.215 440.769 479.817 445.333 479.881C450.753 479.96 457.215 482.465 462.448 483.761C468.967 485.352 475.487 487.189 481.249 490.553C486.074 493.384 490.336 497.447 492.61 502.41C493.047 503.367 493.407 504.356 493.686 505.368C494.395 507.658 494.558 510.211 493.433 512.303Z" fill="#A26565"/>
<path opacity="0.1" d="M493.434 512.303C491.551 515.802 486.914 516.788 482.839 516.844C477.181 516.912 471.562 515.932 466.278 513.957C463.263 512.828 460.37 511.372 457.257 510.545C452.619 509.305 447.477 509.408 443.402 506.919C441.241 505.513 439.455 503.624 438.194 501.408C437.958 501.018 437.729 500.613 437.518 500.199C438.333 500.263 439.082 500.342 439.49 500.382C444.494 500.851 449.27 502.633 454.046 503.977C460.676 505.845 467.522 506.887 474.42 507.078C479.31 507.213 484.412 506.863 488.682 504.533C489.958 503.748 491.28 503.039 492.643 502.41C493.08 503.367 493.44 504.356 493.719 505.368C494.395 507.659 494.558 510.211 493.434 512.303Z" fill="black"/>
<path d="M528.453 361.096C517.859 359.402 507.068 358.988 496.327 358.575L483.189 358.066C482.255 357.96 481.308 358.072 480.426 358.392C479.666 358.869 478.945 359.4 478.267 359.983C476.946 360.857 475.259 360.953 473.67 361.04C462.396 361.646 451.184 363.066 440.125 365.287C434.42 366.424 428.495 367.911 424.208 371.752C419.677 375.816 417.689 382.011 417.534 388.007C417.379 394.003 418.993 399.896 420.696 405.653C422.864 412.584 424.062 419.769 424.257 427.013C424.181 429.023 424.26 431.035 424.494 433.033C424.873 434.941 425.449 436.806 426.213 438.6L432.212 454.227C432.741 455.594 433.263 456.954 433.842 458.29C434.42 459.626 434.974 460.676 435.472 461.933C436.205 463.65 436.784 465.432 437.362 467.205L441.356 479.444L441.877 481.034C443.32 485.44 444.795 489.925 447.517 493.71C450.239 497.496 454.453 500.549 459.188 500.78C460.715 500.724 462.245 500.764 463.768 500.899C465.066 501.208 466.325 501.654 467.525 502.227C471.081 503.669 474.897 504.396 478.747 504.367C482.293 504.367 486.229 503.404 488.152 500.494C489.212 498.903 489.489 496.947 489.782 495.07C490.296 491.301 490.793 487.364 489.481 483.786C488.666 481.647 487.297 479.81 486.351 477.702C485.031 474.831 484.599 471.658 483.743 468.628C481.891 462.107 478.123 456.257 472.904 451.801C471.05 444.64 469.689 437.366 468.829 430.027C468.709 428.402 468.378 426.799 467.843 425.256C466.889 422.87 464.958 420.938 464.151 418.504C463.393 416.246 463.621 413.637 462.244 411.689C473.711 414.767 485.064 414.075 496.97 413.892C500.783 413.904 504.594 413.691 508.38 413.256C510.146 412.94 511.933 412.754 513.727 412.699C517.41 412.699 520.866 414.29 524.248 415.689C533.808 419.665 543.881 422.791 554.264 423.22C564.981 423.658 575.576 421.2 586.048 418.767C590.653 417.693 595.437 416.532 599.088 413.582C602.739 410.631 604.793 405.311 602.544 401.264C600.832 398.218 597.287 396.723 593.978 395.45C584.818 391.919 575.608 388.476 566.782 384.206C553.302 377.796 543.221 363.482 528.453 361.096Z" fill="#454B69"/>
<path d="M509.562 325.119C508.283 327.822 506.131 330.033 504.542 332.578C501.884 336.767 501.006 341.803 502.097 346.614C502.67 348.992 503.795 351.21 505.384 353.098C506.974 354.985 508.986 356.491 511.266 357.501C513.301 358.292 515.442 358.795 517.623 358.996C520.491 359.338 523.548 359.409 526.082 358.057C527.979 356.947 529.536 355.359 530.589 353.461C532.781 349.882 534.028 345.851 535.169 341.835C537.28 334.423 539.081 326.82 538.82 319.13C538.731 316.482 538.193 313.5 535.944 311.973C534.783 311.319 533.495 310.907 532.162 310.764L521.412 308.888C519.334 308.522 515.707 307.035 513.906 308.498C512.105 309.961 511.967 314.287 511.657 316.315C511.168 319.313 510.866 322.359 509.562 325.119Z" fill="#A1616A"/>
<path d="M640.23 294.359L637.418 317.357C636.836 321.459 636.501 325.591 636.415 329.731C636.415 332.037 636.489 334.598 634.924 336.323C634.159 337.109 633.19 337.677 632.12 337.97C628.706 339.003 624.981 338.081 621.721 336.657C619.814 335.862 617.866 334.709 617.003 332.856C616.501 331.572 616.292 330.196 616.391 328.824C616.391 315.106 617.72 300.8 625.063 289.11C625.689 287.963 626.572 286.968 627.646 286.199C629.684 284.927 632.349 285.285 634.655 285.977C636.073 286.398 639.904 286.867 640.808 288.1C641.713 289.333 640.425 292.776 640.23 294.359Z" fill="#A1616A"/>
<path d="M565.633 211.192C581.837 211.192 594.973 198.374 594.973 182.563C594.973 166.752 581.837 153.935 565.633 153.935C549.43 153.935 536.294 166.752 536.294 182.563C536.294 198.374 549.43 211.192 565.633 211.192Z" fill="#A1616A"/>
<path d="M557.785 225.229C557.679 227.456 557.058 229.631 555.968 231.591C570.947 229.364 585.889 226.883 600.792 224.147C595.847 221.667 592.109 217.379 590.393 212.218C589.582 209.451 589.139 206.594 589.073 203.717C588.836 199.155 588.926 194.582 589.341 190.031C584.126 190.564 579.187 192.473 574.215 194.111C569.217 195.759 564.132 197.147 558.983 198.27C556.498 198.811 553.995 199.272 551.485 199.701C548.551 200.21 547.141 200.202 549.179 202.715C554.647 209.427 558.551 216.25 557.785 225.229Z" fill="#A1616A"/>
<path d="M566.799 221.403C562.927 221.968 558.869 222.604 555.78 224.942C554.604 225.927 553.486 226.976 552.43 228.083C546.294 233.896 537.63 236.234 530.181 240.338C528.966 240.924 527.89 241.75 527.019 242.763C526.204 243.869 525.789 245.276 524.933 246.374C523.939 247.646 522.366 248.441 521.591 249.849C520.817 251.256 520.988 252.751 520.907 254.246C520.719 257.531 519.448 260.648 518.462 263.789C513.939 278.827 516.416 295.599 509.57 309.802C509.885 310.62 510.367 311.368 510.986 311.999C511.605 312.631 512.349 313.133 513.173 313.476C514.895 314.082 516.693 314.459 518.519 314.597L533.686 316.434C535.854 316.697 538.152 316.943 540.132 316.061C538.321 320.934 537.04 325.98 536.31 331.115C535.941 334.253 535.37 337.366 534.599 340.435C532.512 347.433 527.264 353.262 521.045 357.246C520.262 357.647 519.601 358.242 519.13 358.972C518.315 360.562 519.521 362.344 520.377 363.902C522.863 368.419 522.52 373.843 522.488 378.964C522.455 384.086 522.985 389.708 526.652 393.382C528.82 395.553 531.787 396.73 534.672 397.851L558.396 407.1C562.311 408.727 566.349 410.056 570.474 411.076C576.725 412.468 583.221 412.412 589.635 412.142C593.873 411.967 598.105 411.702 602.332 411.347C604.014 411.341 605.666 410.917 607.132 410.114C608.395 409.142 609.366 407.856 609.944 406.392C613.245 399.386 614.353 391.211 619.471 385.342C622.984 381.31 628.436 378.089 628.835 372.817C629.023 370.193 627.825 367.64 627.809 365.008C627.809 361.771 629.544 358.694 629.439 355.465C629.218 350.208 624.141 346.2 623.334 340.999C621.281 327.814 628.143 314.645 632.356 301.961C633.114 299.695 634.092 297.19 636.325 296.219C638.558 295.249 641.704 295.758 642.503 293.611C644.516 288.219 644.997 281.897 644.736 276.163C644.589 272.847 643.383 269.603 643.522 266.278C643.619 263.94 644.385 261.666 644.589 259.336C644.899 255.813 643.945 252.314 642.959 248.91C642.674 247.695 642.248 246.516 641.688 245.395C641.086 244.379 640.375 243.427 639.569 242.556L635.6 237.952C633.742 235.797 631.778 233.562 629.08 232.473C628.208 230.365 625.421 228.91 623.424 227.749C621.411 226.635 619.332 225.639 617.197 224.767L594.753 215.097C593.914 214.685 593.015 214.4 592.088 214.254C590.722 214.209 589.364 214.482 588.127 215.049C581.281 217.697 574.134 220.337 566.799 221.403Z" fill="#9FEDD7"/>
<path d="M543.025 187.542C542.161 184.576 539.953 182.015 539.619 178.945C539.317 176.218 540.548 173.577 541.249 170.921C541.949 168.265 541.925 165.021 539.765 163.255C539.407 162.953 538.95 162.683 538.82 162.237C538.559 161.442 539.382 160.718 539.635 159.915C540.099 158.325 538.086 156.567 538.82 155.04C539.235 154.205 540.279 153.911 541.191 153.649C544.68 152.639 548.217 150.396 548.975 146.921C551.705 148.034 554.614 145.943 556.709 143.915C558.803 141.887 561.379 139.573 564.264 140.185L563.62 141.465C568.068 139.89 572.934 139.836 577.418 141.314H576.048C579.981 141.379 583.796 142.639 586.961 144.917C586.611 144.917 586.578 145.426 586.717 145.712C587.858 148.312 590.792 149.688 593.62 150.332C595.323 150.73 597.173 151.016 598.42 152.209C599.667 153.402 599.691 155.891 598.045 156.464C601.402 157.739 604.581 159.422 607.507 161.474C608.322 162.054 609.243 162.842 609.137 163.859C609.02 164.371 608.851 164.869 608.632 165.347C608.469 166.195 608.528 167.071 608.803 167.891L609.707 171.534C610.702 175.581 611.484 180.456 608.46 183.391C609.592 185.454 610.012 187.819 609.659 190.133C609.305 192.448 608.196 194.59 606.496 196.242C606.736 196.952 606.819 197.704 606.739 198.448C606.66 199.192 606.42 199.911 606.035 200.558C605.65 201.205 605.129 201.765 604.506 202.201C603.883 202.637 603.173 202.94 602.421 203.089C603.424 204.616 602.503 206.795 600.922 207.749C599.341 208.703 597.352 208.711 595.51 208.544C593.668 208.377 591.802 207.972 589.96 208.242C587.279 208.648 584.655 210.429 582.071 209.634C581.108 209.232 580.184 208.747 579.308 208.186C577.499 207.24 575.396 207.025 573.392 206.596C569.974 205.879 566.728 204.529 563.832 202.62C561.912 201.493 560.382 199.831 559.439 197.848C557.646 193.427 560.661 187.629 557.491 184.027C555.633 181.927 551.949 181.896 549.871 183.693C548.836 184.591 548.698 186.484 547.622 187.16C546.121 187.531 544.568 187.659 543.025 187.542Z" fill="#464353"/>
<path opacity="0.1" d="M503.157 415.57C501.998 414.675 500.999 413.6 500.198 412.389C499.395 411.171 499.076 409.709 499.302 408.277C498.984 410.088 499.105 411.946 499.656 413.702C500.206 415.459 501.171 417.065 502.472 418.393C504.518 420.437 508.356 422.441 511.347 421.741C510.924 419.403 505.056 417.144 503.157 415.57Z" fill="black"/>
<path d="M664.377 287.655C664.377 287.655 647.002 277.826 624.068 290.041C601.134 302.256 597.312 374.138 597.312 374.138C597.312 374.138 606.692 447.371 570.523 431.077C570.523 431.077 504.509 411.077 497.9 415.482C497.9 415.482 491.641 415.482 504.151 418.194C516.661 420.906 564.989 435.848 564.989 435.848C564.989 435.848 580.613 441.177 587.23 435.848C593.848 430.52 612.601 436.532 615.038 399.903C616.65 376.821 619.551 353.842 623.726 331.067L630.172 312.419L664.377 287.655Z" fill="#565661"/>
<path d="M666.463 400.913C666.463 400.913 658.819 326.654 671.353 299.862C682.258 276.513 640.09 287.432 629.088 290.613C627.385 291.11 625.9 292.145 624.866 293.556C618.347 302.502 594.956 338.359 601.851 386.336C601.851 386.336 604.63 429.065 587.255 435.84L640.791 419.013C645.135 417.645 649.544 416.508 653.994 415.522C659.666 414.265 668.908 410.695 666.463 400.913Z" fill="white"/>
<path opacity="0.1" d="M806.813 545.313C850.671 545.313 886.225 539.741 886.225 532.867C886.225 525.994 850.671 520.422 806.813 520.422C762.954 520.422 727.4 525.994 727.4 532.867C727.4 539.741 762.954 545.313 806.813 545.313Z" fill="#9FEDD7"/>
<path d="M809.363 294.446H804.253V406.711H809.363V294.446Z" fill="#535461"/>
<path d="M841.482 406.368L841.164 411.426L840.708 418.583L840.52 421.558L840.072 428.715L839.876 431.689L839.42 438.846L834.269 520.017C834.034 523.5 832.449 526.767 829.837 529.153C827.225 531.539 823.781 532.867 820.203 532.868H793.414C789.83 532.866 786.381 531.531 783.77 529.134C781.159 526.738 779.584 523.46 779.364 519.969L774.197 438.79L773.748 431.633L773.561 428.659L773.097 421.502L772.909 418.528L772.461 411.37L772.135 406.313C772.078 405.343 772.225 404.373 772.565 403.46C772.905 402.548 773.432 401.712 774.114 401.005C774.795 400.297 775.617 399.733 776.53 399.345C777.442 398.957 778.426 398.755 779.421 398.75H834.204C835.204 398.756 836.192 398.96 837.107 399.352C838.022 399.744 838.846 400.313 839.528 401.027C840.209 401.74 840.734 402.582 841.07 403.501C841.406 404.419 841.546 405.395 841.482 406.368V406.368Z" fill="#565661"/>
<path d="M841.164 411.427L840.708 418.56H772.917L772.461 411.427H841.164Z" fill="#9D9CB5"/>
<path d="M840.52 421.542L840.072 428.683H773.561L773.104 421.542H840.52Z" fill="#9D9CB5"/>
<path d="M839.876 431.657L839.42 438.791H774.204L773.748 431.657H839.876Z" fill="#9D9CB5"/>
<path d="M764.653 336.523C794.416 357.533 806.812 390.392 806.812 390.392C806.812 390.392 770.953 389.191 741.181 368.181C711.41 347.171 699.03 314.319 699.03 314.319C699.03 314.319 734.898 315.52 764.653 336.523Z" fill="#9FEDD7"/>
<path d="M699.03 314.319C699.03 314.319 736.251 334.479 748.198 351.171C760.146 367.863 806.812 390.392 806.812 390.392" stroke="#535461" stroke-width="2" stroke-miterlimit="10"/>
<path d="M783.862 294.2C800.064 305.628 806.812 323.521 806.812 323.521C806.812 323.521 787.253 322.861 771.092 311.433C754.93 300.005 748.19 282.112 748.19 282.112C748.19 282.112 767.669 282.764 783.862 294.2Z" fill="#9FEDD7"/>
<path d="M748.19 282.112C748.19 282.112 768.451 293.087 774.946 302.168C781.442 311.25 806.853 323.521 806.853 323.521" stroke="#535461" stroke-width="2" stroke-miterlimit="10"/>
<path d="M830.349 322.606C811.743 342.559 807.807 368.635 807.807 368.635C807.807 368.635 834.041 362.352 852.631 342.392C871.221 322.431 875.174 296.363 875.174 296.363C875.174 296.363 848.955 302.654 830.349 322.606Z" fill="#9FEDD7"/>
<path d="M875.19 296.371C875.19 296.371 850.952 316.825 844.791 330.916C838.629 345.008 807.807 368.635 807.807 368.635" stroke="#535461" stroke-width="2" stroke-miterlimit="10"/>
<path d="M453.931 274.573V276.386H398.83V274.915C400.341 274.362 401.771 273.619 403.084 272.704C405.424 271.069 407.331 268.914 408.646 266.416C409.962 263.918 410.648 261.15 410.647 258.342C410.648 256.875 410.459 255.413 410.085 253.992C409.419 251.435 408.174 249.055 406.442 247.028C404.71 245.001 402.535 243.378 400.077 242.278H453.556C451.098 243.378 448.923 245.001 447.191 247.028C445.46 249.055 444.215 251.435 443.548 253.992C443.177 255.414 442.991 256.875 442.994 258.342C442.992 261.15 443.677 263.917 444.991 266.415C446.305 268.913 448.21 271.069 450.549 272.704C451.607 273.441 452.74 274.067 453.931 274.573V274.573Z" fill="#DFE6F5"/>
<path opacity="0.1" d="M453.557 242.278C451.098 243.378 448.923 245.001 447.191 247.028C445.46 249.055 444.215 251.435 443.549 253.992H410.085C409.419 251.435 408.174 249.055 406.442 247.028C404.711 245.001 402.536 243.378 400.077 242.278H453.557Z" fill="black"/>
<path d="M335.742 233.014V243.225C335.742 248.855 339.964 253.428 345.18 253.428H507.289C512.505 253.428 516.734 248.855 516.734 243.225V233.014H335.742Z" fill="#DFE6F5"/>
<path opacity="0.1" d="M453.931 274.573V276.386H398.83V274.915C400.341 274.362 401.771 273.619 403.084 272.704H450.549C451.607 273.44 452.74 274.067 453.931 274.573V274.573Z" fill="black"/>
<path d="M469.375 273.27H383.386C381.86 273.27 380.623 274.475 380.623 275.961C380.623 277.448 381.86 278.653 383.386 278.653H469.375C470.901 278.653 472.138 277.448 472.138 275.961C472.138 274.475 470.901 273.27 469.375 273.27Z" fill="#DFE6F5"/>
<path d="M516.734 121.179C516.734 119.969 516.49 118.771 516.015 117.653C515.54 116.535 514.845 115.519 513.967 114.664C513.09 113.809 512.049 113.131 510.903 112.668C509.757 112.206 508.529 111.969 507.289 111.97H345.18C343.94 111.969 342.712 112.206 341.567 112.669C340.421 113.131 339.381 113.809 338.504 114.665C337.627 115.52 336.932 116.536 336.458 117.653C335.984 118.771 335.741 119.969 335.742 121.179V235.002H516.734V121.179Z" fill="#474157"/>
<path d="M511.795 125.291V223.105C511.796 223.701 511.677 224.292 511.444 224.843C511.211 225.393 510.869 225.894 510.438 226.316C510.006 226.738 509.494 227.072 508.93 227.301C508.365 227.529 507.761 227.646 507.15 227.646H345.326C344.715 227.646 344.111 227.529 343.547 227.301C342.982 227.072 342.47 226.738 342.038 226.316C341.607 225.894 341.265 225.393 341.032 224.843C340.799 224.292 340.68 223.701 340.681 223.105V125.291C340.677 124.495 340.891 123.712 341.3 123.024C341.708 122.335 342.295 121.762 343.002 121.364C343.709 120.967 344.51 120.757 345.326 120.758H507.15C508.382 120.758 509.564 121.235 510.435 122.085C511.306 122.936 511.795 124.088 511.795 125.291V125.291Z" fill="#4C4C78"/>
<path d="M426.238 118.483C427.439 118.483 428.414 117.532 428.414 116.36C428.414 115.187 427.439 114.236 426.238 114.236C425.036 114.236 424.062 115.187 424.062 116.36C424.062 117.532 425.036 118.483 426.238 118.483Z" fill="white"/>
<path d="M426.238 248.887C429.204 248.887 431.609 246.54 431.609 243.646C431.609 240.752 429.204 238.405 426.238 238.405C423.272 238.405 420.867 240.752 420.867 243.646C420.867 246.54 423.272 248.887 426.238 248.887Z" fill="white"/>
<path d="M511.796 125.291H340.697C340.697 124.088 341.187 122.936 342.058 122.085C342.929 121.235 344.111 120.758 345.343 120.758H507.15C508.382 120.758 509.564 121.235 510.435 122.085C511.306 122.936 511.796 124.088 511.796 125.291Z" fill="#C8CAD7"/>
<path d="M345.327 124.161C345.97 124.161 346.492 123.652 346.492 123.024C346.492 122.396 345.97 121.887 345.327 121.887C344.683 121.887 344.161 122.396 344.161 123.024C344.161 123.652 344.683 124.161 345.327 124.161Z" fill="#EDEDF4"/>
<path d="M348.814 124.161C349.458 124.161 349.979 123.652 349.979 123.024C349.979 122.396 349.458 121.887 348.814 121.887C348.17 121.887 347.648 122.396 347.648 123.024C347.648 123.652 348.17 124.161 348.814 124.161Z" fill="#EDEDF4"/>
<path d="M352.302 124.161C352.946 124.161 353.468 123.652 353.468 123.024C353.468 122.396 352.946 121.887 352.302 121.887C351.658 121.887 351.137 122.396 351.137 123.024C351.137 123.652 351.658 124.161 352.302 124.161Z" fill="#EDEDF4"/>
</g>
<defs>
<linearGradient id="paint0_linear" x1="314.952" y1="371.967" x2="316.842" y2="371.967" gradientUnits="userSpaceOnUse">
<stop stop-color="#808080" stop-opacity="0.25"/>
<stop offset="0.54" stop-color="#808080" stop-opacity="0.12"/>
<stop offset="1" stop-color="#808080" stop-opacity="0.1"/>
</linearGradient>
<clipPath id="clip0">
<rect width="921" height="587" fill="white"/>
</clipPath>
</defs>
</svg>
